<?xml version="1.0" encoding="UTF-8"?><svg xmlns:svg="http://www.w3.org/2000/svg" xmlns="http://www.w3.org/2000/svg" xmlns:xlink="http://www.w3.org/1999/xlink" version="1.0" width="1340" height="122" viewBox="0 0 1340 122" ><text font-size="24" font-family="M+ 1p Fallback" x="34" y="22" text-anchor="start" dominant-baseline="middle" >31</text><text font-size="24" font-family="M+ 1p Fallback" x="506" y="22" text-anchor="end" dominant-baseline="middle" >20</text><text font-size="24" font-family="M+ 1p Fallback" x="514" y="22" text-anchor="start" dominant-baseline="middle" >19</text><text font-size="24" font-family="M+ 1p Fallback" x="906" y="22" text-anchor="end" dominant-baseline="middle" >10</text><text font-size="24" font-family="M+ 1p Fallback" x="930" y="22" text-anchor="middle" dominant-baseline="middle" >9</text><text font-size="24" font-family="M+ 1p Fallback" x="970" y="22" text-anchor="middle" dominant-baseline="middle" >8</text><text font-size="24" font-family="M+ 1p Fallback" x="1010" y="22" text-anchor="middle" dominant-baseline="middle" >7</text><text font-size="24" font-family="M+ 1p Fallback" x="1050" y="22" text-anchor="middle" dominant-baseline="middle" >6</text><text font-size="24" font-family="M+ 1p Fallback" x="1090" y="22" text-anchor="middle" dominant-baseline="middle" >5</text><text font-size="24" font-family="M+ 1p Fallback" x="1130" y="22" text-anchor="middle" dominant-baseline="middle" >4</text><text font-size="24" font-family="M+ 1p Fallback" x="1170" y="22" text-anchor="middle" dominant-baseline="middle" >3</text><text font-size="24" font-family="M+ 1p Fallback" x="1210" y="22" text-anchor="middle" dominant-baseline="middle" >2</text><text font-size="24" font-family="M+ 1p Fallback" x="1250" y="22" text-anchor="middle" dominant-baseline="middle" >1</text><text font-size="24" font-family="M+ 1p Fallback" x="1290" y="22" text-anchor="middle" dominant-baseline="middle" >0</text><line x1="30" y1="41" x2="510" y2="41" stroke="#000000" stroke-width="1" /><line x1="30" y1="81" x2="510" y2="81" stroke="#000000" stroke-width="1" /><line x1="510" y1="41" x2="510" y2="81" stroke="#000000" stroke-width="1" /><line x1="30" y1="41" x2="30" y2="81" stroke="#000000" stroke-width="1" /><text font-size="24" font-family="M+ 1p Fallback" x="270" y="62" text-anchor="middle" dominant-baseline="middle" >PPN[1]</text><line x1="510" y1="41" x2="910" y2="41" stroke="#000000" stroke-width="1" /><line x1="510" y1="81" x2="910" y2="81" stroke="#000000" stroke-width="1" /><line x1="910" y1="41" x2="910" y2="81" stroke="#000000" stroke-width="1" /><line x1="510" y1="41" x2="510" y2="81" stroke="#000000" stroke-width="1" /><text font-size="24" font-family="M+ 1p Fallback" x="710" y="62" text-anchor="middle" dominant-baseline="middle" >PPN[0]</text><line x1="910" y1="41" x2="990" y2="41" stroke="#000000" stroke-width="1" /><line x1="910" y1="81" x2="990" y2="81" stroke="#000000" stroke-width="1" /><line x1="990" y1="41" x2="990" y2="81" stroke="#000000" stroke-width="1" /><line x1="910" y1="41" x2="910" y2="81" stroke="#000000" stroke-width="1" /><text font-size="24" font-family="M+ 1p Fallback" x="950" y="62" text-anchor="middle" dominant-baseline="middle" >RSW</text><line x1="990" y1="41" x2="1030" y2="41" stroke="#000000" stroke-width="1" /><line x1="990" y1="81" x2="1030" y2="81" stroke="#000000" stroke-width="1" /><line x1="1030" y1="41" x2="1030" y2="81" stroke="#000000" stroke-width="1" /><line x1="990" y1="41" x2="990" y2="81" stroke="#000000" stroke-width="1" /><text font-size="24" font-family="M+ 1p Fallback" x="1010" y="62" text-anchor="middle" dominant-baseline="middle" >D</text><line x1="1030" y1="41" x2="1070" y2="41" stroke="#000000" stroke-width="1" /><line x1="1030" y1="81" x2="1070" y2="81" stroke="#000000" stroke-width="1" /><line x1="1070" y1="41" x2="1070" y2="81" stroke="#000000" stroke-width="1" /><line x1="1030" y1="41" x2="1030" y2="81" stroke="#000000" stroke-width="1" /><text font-size="24" font-family="M+ 1p Fallback" x="1050" y="62" text-anchor="middle" dominant-baseline="middle" >A</text><line x1="1070" y1="41" x2="1110" y2="41" stroke="#000000" stroke-width="1" /><line x1="1070" y1="81" x2="1110" y2="81" stroke="#000000" stroke-width="1" /><line x1="1110" y1="41" x2="1110" y2="81" stroke="#000000" stroke-width="1" /><line x1="1070" y1="41" x2="1070" y2="81" stroke="#000000" stroke-width="1" /><text font-size="24" font-family="M+ 1p Fallback" x="1090" y="62" text-anchor="middle" dominant-baseline="middle" >G</text><line x1="1110" y1="41" x2="1150" y2="41" stroke="#000000" stroke-width="1" /><line x1="1110" y1="81" x2="1150" y2="81" stroke="#000000" stroke-width="1" /><line x1="1150" y1="41" x2="1150" y2="81" stroke="#000000" stroke-width="1" /><line x1="1110" y1="41" x2="1110" y2="81" stroke="#000000" stroke-width="1" /><text font-size="24" font-family="M+ 1p Fallback" x="1130" y="62" text-anchor="middle" dominant-baseline="middle" >U</text><line x1="1150" y1="41" x2="1190" y2="41" stroke="#000000" stroke-width="1" /><line x1="1150" y1="81" x2="1190" y2="81" stroke="#000000" stroke-width="1" /><line x1="1190" y1="41" x2="1190" y2="81" stroke="#000000" stroke-width="1" /><line x1="1150" y1="41" x2="1150" y2="81" stroke="#000000" stroke-width="1" /><text font-size="24" font-family="M+ 1p Fallback" x="1170" y="62" text-anchor="middle" dominant-baseline="middle" >X</text><line x1="1190" y1="41" x2="1230" y2="41" stroke="#000000" stroke-width="1" /><line x1="1190" y1="81" x2="1230" y2="81" stroke="#000000" stroke-width="1" /><line x1="1230" y1="41" x2="1230" y2="81" stroke="#000000" stroke-width="1" /><line x1="1190" y1="41" x2="1190" y2="81" stroke="#000000" stroke-width="1" /><text font-size="24" font-family="M+ 1p Fallback" x="1210" y="62" text-anchor="middle" dominant-baseline="middle" >W</text><line x1="1230" y1="41" x2="1270" y2="41" stroke="#000000" stroke-width="1" /><line x1="1230" y1="81" x2="1270" y2="81" stroke="#000000" stroke-width="1" /><line x1="1270" y1="41" x2="1270" y2="81" stroke="#000000" stroke-width="1" /><line x1="1230" y1="41" x2="1230" y2="81" stroke="#000000" stroke-width="1" /><text font-size="24" font-family="M+ 1p Fallback" x="1250" y="62" text-anchor="middle" dominant-baseline="middle" >R</text><line x1="1270" y1="41" x2="1310" y2="41" stroke="#000000" stroke-width="1" /><line x1="1270" y1="81" x2="1310" y2="81" stroke="#000000" stroke-width="1" /><line x1="1310" y1="41" x2="1310" y2="81" stroke="#000000" stroke-width="1" /><line x1="1270" y1="41" x2="1270" y2="81" stroke="#000000" stroke-width="1" /><text font-size="24" font-family="M+ 1p Fallback" x="1290" y="62" text-anchor="middle" dominant-baseline="middle" >V</text><text font-size="24" font-family="M+ 1p Fallback" x="270" y="102" text-anchor="middle" dominant-baseline="middle" >12</text><text font-size="24" font-family="M+ 1p Fallback" x="710" y="102" text-anchor="middle" dominant-baseline="middle" >10</text><text font-size="24" font-family="M+ 1p Fallback" x="950" y="102" text-anchor="middle" dominant-baseline="middle" >2</text><text font-size="24" font-family="M+ 1p Fallback" x="1010" y="102" text-anchor="middle" dominant-baseline="middle" >1</text><text font-size="24" font-family="M+ 1p Fallback" x="1050" y="102" text-anchor="middle" dominant-baseline="middle" >1</text><text font-size="24" font-family="M+ 1p Fallback" x="1090" y="102" text-anchor="middle" dominant-baseline="middle" >1</text><text font-size="24" font-family="M+ 1p Fallback" x="1130" y="102" text-anchor="middle" dominant-baseline="middle" >1</text><text font-size="24" font-family="M+ 1p Fallback" x="1170" y="102" text-anchor="middle" dominant-baseline="middle" >1</text><text font-size="24" font-family="M+ 1p Fallback" x="1210" y="102" text-anchor="middle" dominant-baseline="middle" >1</text><text font-size="24" font-family="M+ 1p Fallback" x="1250" y="102" text-anchor="middle" dominant-baseline="middle" >1</text><text font-size="24" font-family="M+ 1p Fallback" x="1290" y="102" text-anchor="middle" dominant-baseline="middle" >1</text></svg>