<svg xmlns="http://www.w3.org/2000/svg" width="800" height="70" viewBox="0 0 800 70" class="WaveDrom"><g transform="translate(0.5,0.5)" text-anchor="middle" font-size="14" font-family="sans-serif" font-weight="normal"><g transform="translate(4,21)"><g stroke="black" stroke-width="1" stroke-linecap="round"><line x2="791"/><line y2="31"/><line x2="791" y1="31" y2="31"/><line x1="791" x2="791" y2="31"/><line x1="742" x2="742" y2="3"/><line x1="742" x2="742" y1="31" y2="28"/><line x1="692" x2="692" y2="31"/><line x1="643" x2="643" y2="3"/><line x1="643" x2="643" y1="31" y2="28"/><line x1="593" x2="593" y2="3"/><line x1="593" x2="593" y1="31" y2="28"/><line x1="544" x2="544" y2="31"/><line x1="494" x2="494" y2="3"/><line x1="494" x2="494" y1="31" y2="28"/><line x1="445" x2="445" y2="31"/><line x1="396" x2="396" y2="3"/><line x1="396" x2="396" y1="31" y2="28"/><line x1="346" x2="346" y2="3"/><line x1="346" x2="346" y1="31" y2="28"/><line x1="297" x2="297" y2="31"/><line x1="247" x2="247" y2="3"/><line x1="247" x2="247" y1="31" y2="28"/><line x1="198" x2="198" y2="3"/><line x1="198" x2="198" y1="31" y2="28"/><line x1="148" x2="148" y2="31"/><line x1="99" x2="99" y2="3"/><line x1="99" x2="99" y1="31" y2="28"/><line x1="49" x2="49" y2="3"/><line x1="49" x2="49" y1="31" y2="28"/></g><g><g><rect x="692" width="99" height="31" field="0" style="fill-opacity:0.1"/><rect x="544" width="148" height="31" field="rd`" style="fill-opacity:0.1;fill:#ff0000"/><rect x="445" width="99" height="31" field="imm" style="fill-opacity:0.1;fill:#aaff00"/><rect x="297" width="148" height="31" field="rs1`" style="fill-opacity:0.1;fill:#00ffd5"/><rect x="148" width="148" height="31" field="imm" style="fill-opacity:0.1;fill:#aaff00"/><rect width="148" height="31" field="3" style="fill-opacity:0.1"/></g><g transform="translate(25,-11)"><g transform="translate(742)"><text y="6">0</text></g><g transform="translate(692)"><text y="6">1</text></g><g transform="translate(643)"><text y="6">2</text></g><g transform="translate(544)"><text y="6">4</text></g><g transform="translate(494)"><text y="6">5</text></g><g transform="translate(445)"><text y="6">6</text></g><g transform="translate(396)"><text y="6">7</text></g><g transform="translate(297)"><text y="6">9</text></g><g transform="translate(247)"><text y="6">10</text></g><g transform="translate(148)"><text y="6">12</text></g><g transform="translate(99)"><text y="6">13</text></g><g transform="translate(0)"><text y="6">15</text></g></g><g transform="translate(25,15)"><g><g transform="translate(742)"><text y="6">0</text></g><g transform="translate(692)"><text y="6">0</text></g></g><g transform="translate(593)"><text y="6"><tspan>rd`</tspan></text></g><g transform="translate(470)"><text y="6"><tspan>imm</tspan></text></g><g transform="translate(346)"><text y="6"><tspan>rs1`</tspan></text></g><g transform="translate(198)"><text y="6"><tspan>imm</tspan></text></g><g><g transform="translate(99)"><text y="6">1</text></g><g transform="translate(49)"><text y="6">1</text></g><g transform="translate(0)"><text y="6">0</text></g></g></g><g transform="translate(25,39)"><g><g transform="translate(717)"><text y="6"><tspan>C0</tspan></text></g></g><g><g transform="translate(593)"><text y="6"><tspan>dest, dest[0]=0</tspan></text></g></g><g><g transform="translate(470)"><text y="6"><tspan>offset[7:6]</tspan></text></g></g><g><g transform="translate(346)"><text y="6"><tspan>base</tspan></text></g></g><g><g transform="translate(198)"><text y="6"><tspan>offset[5:3]</tspan></text></g></g><g><g transform="translate(49)"><text y="6"><tspan>C.LD</tspan></text></g></g></g></g></g></g></svg>
