<?xml version="1.0" encoding="UTF-8"?><svg xmlns:svg="http://www.w3.org/2000/svg" xmlns="http://www.w3.org/2000/svg" xmlns:xlink="http://www.w3.org/1999/xlink" version="1.0" width="1340" height="122" viewBox="0 0 1340 122" ><text font-size="24" font-family="M+ 1p Fallback" x="274" y="22" text-anchor="start" dominant-baseline="middle" >SXLEN-1</text><text font-size="24" font-family="M+ 1p Fallback" x="826" y="22" text-anchor="end" dominant-baseline="middle" >2</text><text font-size="24" font-family="M+ 1p Fallback" x="834" y="22" text-anchor="start" dominant-baseline="middle" >1</text><text font-size="24" font-family="M+ 1p Fallback" x="1066" y="22" text-anchor="end" dominant-baseline="middle" >0</text><line x1="270" y1="41" x2="550" y2="41" stroke="#000000" stroke-width="1" /><line x1="270" y1="81" x2="550" y2="81" stroke="#000000" stroke-width="1" /><line x1="270" y1="41" x2="270" y2="81" stroke="#000000" stroke-width="1" /><text font-size="24" font-family="M+ 1p Fallback" x="546" y="62" text-anchor="end" dominant-baseline="middle" >BASE[SXLEN-1:2]</text><line x1="550" y1="41" x2="830" y2="41" stroke="#000000" stroke-width="1" /><line x1="550" y1="81" x2="830" y2="81" stroke="#000000" stroke-width="1" /><line x1="830" y1="41" x2="830" y2="81" stroke="#000000" stroke-width="1" /><text font-size="24" font-weight="bold" x="554" y="62" text-anchor="start" dominant-baseline="middle" >(WARL)</text><line x1="830" y1="41" x2="950" y2="41" stroke="#000000" stroke-width="1" /><line x1="830" y1="81" x2="950" y2="81" stroke="#000000" stroke-width="1" /><line x1="830" y1="41" x2="830" y2="81" stroke="#000000" stroke-width="1" /><text font-size="24" font-family="M+ 1p Fallback" x="946" y="62" text-anchor="end" dominant-baseline="middle" >MODE</text><line x1="950" y1="41" x2="1070" y2="41" stroke="#000000" stroke-width="1" /><line x1="950" y1="81" x2="1070" y2="81" stroke="#000000" stroke-width="1" /><line x1="1070" y1="41" x2="1070" y2="81" stroke="#000000" stroke-width="1" /><text font-size="24" font-weight="bold" x="954" y="62" text-anchor="start" dominant-baseline="middle" >(WARL)</text><text font-size="24" font-family="M+ 1p Fallback" x="550" y="102" text-anchor="middle" dominant-baseline="middle" >SXLEN-2</text><text font-size="24" font-family="M+ 1p Fallback" x="950" y="102" text-anchor="middle" dominant-baseline="middle" >2</text></svg>