<?xml version="1.0" encoding="UTF-8"?><svg xmlns:svg="http://www.w3.org/2000/svg" xmlns="http://www.w3.org/2000/svg" xmlns:xlink="http://www.w3.org/1999/xlink" version="1.0" width="1340" height="442" viewBox="0 0 1340 442" ><text font-size="24" font-family="M+ 1p Fallback" x="90" y="22" text-anchor="middle" dominant-baseline="middle" >63</text><text font-size="24" font-family="M+ 1p Fallback" x="154" y="22" text-anchor="start" dominant-baseline="middle" >62</text><text font-size="24" font-family="M+ 1p Fallback" x="466" y="22" text-anchor="end" dominant-baseline="middle" >40</text><text font-size="24" font-family="M+ 1p Fallback" x="530" y="22" text-anchor="middle" dominant-baseline="middle" >39</text><text font-size="24" font-family="M+ 1p Fallback" x="650" y="22" text-anchor="middle" dominant-baseline="middle" >38</text><text font-size="24" font-family="M+ 1p Fallback" x="770" y="22" text-anchor="middle" dominant-baseline="middle" >37</text><text font-size="24" font-family="M+ 1p Fallback" x="890" y="22" text-anchor="middle" dominant-baseline="middle" >36</text><text font-size="24" font-family="M+ 1p Fallback" x="990" y="22" text-anchor="middle" dominant-baseline="middle" >35</text><text font-size="24" font-family="M+ 1p Fallback" x="1070" y="22" text-anchor="middle" dominant-baseline="middle" >34</text><text font-size="24" font-family="M+ 1p Fallback" x="1150" y="22" text-anchor="middle" dominant-baseline="middle" >33</text><text font-size="24" font-family="M+ 1p Fallback" x="1230" y="22" text-anchor="middle" dominant-baseline="middle" >32</text><line x1="30" y1="41" x2="150" y2="41" stroke="#000000" stroke-width="1" /><line x1="30" y1="81" x2="150" y2="81" stroke="#000000" stroke-width="1" /><line x1="150" y1="41" x2="150" y2="81" stroke="#000000" stroke-width="1" /><line x1="30" y1="41" x2="30" y2="81" stroke="#000000" stroke-width="1" /><text font-size="24" font-family="M+ 1p Fallback" x="90" y="62" text-anchor="middle" dominant-baseline="middle" >SD</text><line x1="150" y1="41" x2="470" y2="41" stroke="#000000" stroke-width="1" /><line x1="150" y1="81" x2="470" y2="81" stroke="#000000" stroke-width="1" /><line x1="470" y1="41" x2="470" y2="81" stroke="#000000" stroke-width="1" /><line x1="150" y1="41" x2="150" y2="81" stroke="#000000" stroke-width="1" /><text font-size="24" font-weight="bold" x="310" y="62" text-anchor="middle" dominant-baseline="middle" >WPRI</text><line x1="470" y1="41" x2="590" y2="41" stroke="#000000" stroke-width="1" /><line x1="470" y1="81" x2="590" y2="81" stroke="#000000" stroke-width="1" /><line x1="590" y1="41" x2="590" y2="81" stroke="#000000" stroke-width="1" /><line x1="470" y1="41" x2="470" y2="81" stroke="#000000" stroke-width="1" /><text font-size="24" font-family="M+ 1p Fallback" x="530" y="62" text-anchor="middle" dominant-baseline="middle" >MPV</text><line x1="590" y1="41" x2="710" y2="41" stroke="#000000" stroke-width="1" /><line x1="590" y1="81" x2="710" y2="81" stroke="#000000" stroke-width="1" /><line x1="710" y1="41" x2="710" y2="81" stroke="#000000" stroke-width="1" /><line x1="590" y1="41" x2="590" y2="81" stroke="#000000" stroke-width="1" /><text font-size="24" font-family="M+ 1p Fallback" x="650" y="62" text-anchor="middle" dominant-baseline="middle" >GVA</text><line x1="710" y1="41" x2="830" y2="41" stroke="#000000" stroke-width="1" /><line x1="710" y1="81" x2="830" y2="81" stroke="#000000" stroke-width="1" /><line x1="830" y1="41" x2="830" y2="81" stroke="#000000" stroke-width="1" /><line x1="710" y1="41" x2="710" y2="81" stroke="#000000" stroke-width="1" /><text font-size="24" font-family="M+ 1p Fallback" x="770" y="62" text-anchor="middle" dominant-baseline="middle" >MBE</text><line x1="830" y1="41" x2="950" y2="41" stroke="#000000" stroke-width="1" /><line x1="830" y1="81" x2="950" y2="81" stroke="#000000" stroke-width="1" /><line x1="950" y1="41" x2="950" y2="81" stroke="#000000" stroke-width="1" /><line x1="830" y1="41" x2="830" y2="81" stroke="#000000" stroke-width="1" /><text font-size="24" font-family="M+ 1p Fallback" x="890" y="62" text-anchor="middle" dominant-baseline="middle" >SBE</text><line x1="950" y1="41" x2="1110" y2="41" stroke="#000000" stroke-width="1" /><line x1="950" y1="81" x2="1110" y2="81" stroke="#000000" stroke-width="1" /><line x1="1110" y1="41" x2="1110" y2="81" stroke="#000000" stroke-width="1" /><line x1="950" y1="41" x2="950" y2="81" stroke="#000000" stroke-width="1" /><text font-size="24" font-family="M+ 1p Fallback" x="1030" y="62" text-anchor="middle" dominant-baseline="middle" >SXL[1:0]</text><line x1="1110" y1="41" x2="1270" y2="41" stroke="#000000" stroke-width="1" /><line x1="1110" y1="81" x2="1270" y2="81" stroke="#000000" stroke-width="1" /><line x1="1270" y1="41" x2="1270" y2="81" stroke="#000000" stroke-width="1" /><line x1="1110" y1="41" x2="1110" y2="81" stroke="#000000" stroke-width="1" /><text font-size="24" font-family="M+ 1p Fallback" x="1190" y="62" text-anchor="middle" dominant-baseline="middle" >UXL[1:0]</text><line x1="1270" y1="41" x2="1310" y2="41" stroke="#000000" stroke-width="1" /><line x1="1270" y1="81" x2="1310" y2="81" stroke="#000000" stroke-width="1" /><text font-size="24" font-family="M+ 1p Fallback" x="90" y="102" text-anchor="middle" dominant-baseline="middle" >1</text><text font-size="24" font-family="M+ 1p Fallback" x="310" y="102" text-anchor="middle" dominant-baseline="middle" >23</text><text font-size="24" font-family="M+ 1p Fallback" x="530" y="102" text-anchor="middle" dominant-baseline="middle" >1</text><text font-size="24" font-family="M+ 1p Fallback" x="650" y="102" text-anchor="middle" dominant-baseline="middle" >1</text><text font-size="24" font-family="M+ 1p Fallback" x="770" y="102" text-anchor="middle" dominant-baseline="middle" >1</text><text font-size="24" font-family="M+ 1p Fallback" x="890" y="102" text-anchor="middle" dominant-baseline="middle" >1</text><text font-size="24" font-family="M+ 1p Fallback" x="1030" y="102" text-anchor="middle" dominant-baseline="middle" >2</text><text font-size="24" font-family="M+ 1p Fallback" x="1190" y="102" text-anchor="middle" dominant-baseline="middle" >2</text><text font-size="24" font-family="M+ 1p Fallback" x="130" y="182" text-anchor="middle" dominant-baseline="middle" >31</text><text font-size="24" font-family="M+ 1p Fallback" x="250" y="182" text-anchor="middle" dominant-baseline="middle" >23</text><text font-size="24" font-family="M+ 1p Fallback" x="370" y="182" text-anchor="middle" dominant-baseline="middle" >22</text><text font-size="24" font-family="M+ 1p Fallback" x="490" y="182" text-anchor="middle" dominant-baseline="middle" >21</text><text font-size="24" font-family="M+ 1p Fallback" x="610" y="182" text-anchor="middle" dominant-baseline="middle" >20</text><text font-size="24" font-family="M+ 1p Fallback" x="730" y="182" text-anchor="middle" dominant-baseline="middle" >19</text><text font-size="24" font-family="M+ 1p Fallback" x="850" y="182" text-anchor="middle" dominant-baseline="middle" >18</text><text font-size="24" font-family="M+ 1p Fallback" x="970" y="182" text-anchor="middle" dominant-baseline="middle" >17</text><text font-size="24" font-family="M+ 1p Fallback" x="1070" y="182" text-anchor="middle" dominant-baseline="middle" >16</text><text font-size="24" font-family="M+ 1p Fallback" x="1130" y="182" text-anchor="middle" dominant-baseline="middle" >15</text><text font-size="24" font-family="M+ 1p Fallback" x="1190" y="182" text-anchor="middle" dominant-baseline="middle" >14</text><text font-size="24" font-family="M+ 1p Fallback" x="1250" y="182" text-anchor="middle" dominant-baseline="middle" >13</text><line x1="30" y1="201" x2="70" y2="201" stroke="#000000" stroke-width="1" /><line x1="30" y1="241" x2="70" y2="241" stroke="#000000" stroke-width="1" /><line x1="70" y1="201" x2="310" y2="201" stroke="#000000" stroke-width="1" /><line x1="70" y1="241" x2="310" y2="241" stroke="#000000" stroke-width="1" /><line x1="310" y1="201" x2="310" y2="241" stroke="#000000" stroke-width="1" /><line x1="70" y1="201" x2="70" y2="241" stroke="#000000" stroke-width="1" /><text font-size="24" font-weight="bold" x="190" y="222" text-anchor="middle" dominant-baseline="middle" >WPRI</text><line x1="310" y1="201" x2="430" y2="201" stroke="#000000" stroke-width="1" /><line x1="310" y1="241" x2="430" y2="241" stroke="#000000" stroke-width="1" /><line x1="430" y1="201" x2="430" y2="241" stroke="#000000" stroke-width="1" /><line x1="310" y1="201" x2="310" y2="241" stroke="#000000" stroke-width="1" /><text font-size="24" font-family="M+ 1p Fallback" x="370" y="222" text-anchor="middle" dominant-baseline="middle" >TSR</text><line x1="430" y1="201" x2="550" y2="201" stroke="#000000" stroke-width="1" /><line x1="430" y1="241" x2="550" y2="241" stroke="#000000" stroke-width="1" /><line x1="550" y1="201" x2="550" y2="241" stroke="#000000" stroke-width="1" /><line x1="430" y1="201" x2="430" y2="241" stroke="#000000" stroke-width="1" /><text font-size="24" font-family="M+ 1p Fallback" x="490" y="222" text-anchor="middle" dominant-baseline="middle" >TW</text><line x1="550" y1="201" x2="670" y2="201" stroke="#000000" stroke-width="1" /><line x1="550" y1="241" x2="670" y2="241" stroke="#000000" stroke-width="1" /><line x1="670" y1="201" x2="670" y2="241" stroke="#000000" stroke-width="1" /><line x1="550" y1="201" x2="550" y2="241" stroke="#000000" stroke-width="1" /><text font-size="24" font-family="M+ 1p Fallback" x="610" y="222" text-anchor="middle" dominant-baseline="middle" >TVM</text><line x1="670" y1="201" x2="790" y2="201" stroke="#000000" stroke-width="1" /><line x1="670" y1="241" x2="790" y2="241" stroke="#000000" stroke-width="1" /><line x1="790" y1="201" x2="790" y2="241" stroke="#000000" stroke-width="1" /><line x1="670" y1="201" x2="670" y2="241" stroke="#000000" stroke-width="1" /><text font-size="24" font-family="M+ 1p Fallback" x="730" y="222" text-anchor="middle" dominant-baseline="middle" >MXR</text><line x1="790" y1="201" x2="910" y2="201" stroke="#000000" stroke-width="1" /><line x1="790" y1="241" x2="910" y2="241" stroke="#000000" stroke-width="1" /><line x1="910" y1="201" x2="910" y2="241" stroke="#000000" stroke-width="1" /><line x1="790" y1="201" x2="790" y2="241" stroke="#000000" stroke-width="1" /><text font-size="24" font-family="M+ 1p Fallback" x="850" y="222" text-anchor="middle" dominant-baseline="middle" >SUM</text><line x1="910" y1="201" x2="1030" y2="201" stroke="#000000" stroke-width="1" /><line x1="910" y1="241" x2="1030" y2="241" stroke="#000000" stroke-width="1" /><line x1="1030" y1="201" x2="1030" y2="241" stroke="#000000" stroke-width="1" /><line x1="910" y1="201" x2="910" y2="241" stroke="#000000" stroke-width="1" /><text font-size="24" font-family="M+ 1p Fallback" x="970" y="222" text-anchor="middle" dominant-baseline="middle" >MPRV</text><line x1="1030" y1="201" x2="1150" y2="201" stroke="#000000" stroke-width="1" /><line x1="1030" y1="241" x2="1150" y2="241" stroke="#000000" stroke-width="1" /><line x1="1150" y1="201" x2="1150" y2="241" stroke="#000000" stroke-width="1" /><line x1="1030" y1="201" x2="1030" y2="241" stroke="#000000" stroke-width="1" /><text font-size="24" font-family="M+ 1p Fallback" x="1090" y="222" text-anchor="middle" dominant-baseline="middle" >XS[1:0]</text><line x1="1150" y1="201" x2="1270" y2="201" stroke="#000000" stroke-width="1" /><line x1="1150" y1="241" x2="1270" y2="241" stroke="#000000" stroke-width="1" /><line x1="1270" y1="201" x2="1270" y2="241" stroke="#000000" stroke-width="1" /><line x1="1150" y1="201" x2="1150" y2="241" stroke="#000000" stroke-width="1" /><text font-size="24" font-family="M+ 1p Fallback" x="1210" y="222" text-anchor="middle" dominant-baseline="middle" >FS[1:0]</text><line x1="1270" y1="201" x2="1310" y2="201" stroke="#000000" stroke-width="1" /><line x1="1270" y1="241" x2="1310" y2="241" stroke="#000000" stroke-width="1" /><text font-size="24" font-family="M+ 1p Fallback" x="190" y="262" text-anchor="middle" dominant-baseline="middle" >9</text><text font-size="24" font-family="M+ 1p Fallback" x="370" y="262" text-anchor="middle" dominant-baseline="middle" >1</text><text font-size="24" font-family="M+ 1p Fallback" x="490" y="262" text-anchor="middle" dominant-baseline="middle" >1</text><text font-size="24" font-family="M+ 1p Fallback" x="610" y="262" text-anchor="middle" dominant-baseline="middle" >1</text><text font-size="24" font-family="M+ 1p Fallback" x="730" y="262" text-anchor="middle" dominant-baseline="middle" >1</text><text font-size="24" font-family="M+ 1p Fallback" x="850" y="262" text-anchor="middle" dominant-baseline="middle" >1</text><text font-size="24" font-family="M+ 1p Fallback" x="970" y="262" text-anchor="middle" dominant-baseline="middle" >1</text><text font-size="24" font-family="M+ 1p Fallback" x="1090" y="262" text-anchor="middle" dominant-baseline="middle" >2</text><text font-size="24" font-family="M+ 1p Fallback" x="1210" y="262" text-anchor="middle" dominant-baseline="middle" >2</text><text font-size="24" font-family="M+ 1p Fallback" x="90" y="342" text-anchor="middle" dominant-baseline="middle" >12</text><text font-size="24" font-family="M+ 1p Fallback" x="170" y="342" text-anchor="middle" dominant-baseline="middle" >11</text><text font-size="24" font-family="M+ 1p Fallback" x="210" y="342" text-anchor="middle" dominant-baseline="middle" >10</text><text font-size="24" font-family="M+ 1p Fallback" x="290" y="342" text-anchor="middle" dominant-baseline="middle" >9</text><text font-size="24" font-family="M+ 1p Fallback" x="350" y="342" text-anchor="middle" dominant-baseline="middle" >8</text><text font-size="24" font-family="M+ 1p Fallback" x="450" y="342" text-anchor="middle" dominant-baseline="middle" >7</text><text font-size="24" font-family="M+ 1p Fallback" x="550" y="342" text-anchor="middle" dominant-baseline="middle" >6</text><text font-size="24" font-family="M+ 1p Fallback" x="650" y="342" text-anchor="middle" dominant-baseline="middle" >5</text><text font-size="24" font-family="M+ 1p Fallback" x="770" y="342" text-anchor="middle" dominant-baseline="middle" >4</text><text font-size="24" font-family="M+ 1p Fallback" x="890" y="342" text-anchor="middle" dominant-baseline="middle" >3</text><text font-size="24" font-family="M+ 1p Fallback" x="1010" y="342" text-anchor="middle" dominant-baseline="middle" >2</text><text font-size="24" font-family="M+ 1p Fallback" x="1130" y="342" text-anchor="middle" dominant-baseline="middle" >1</text><text font-size="24" font-family="M+ 1p Fallback" x="1250" y="342" text-anchor="middle" dominant-baseline="middle" >0</text><line x1="30" y1="361" x2="70" y2="361" stroke="#000000" stroke-width="1" /><line x1="30" y1="401" x2="70" y2="401" stroke="#000000" stroke-width="1" /><line x1="70" y1="361" x2="190" y2="361" stroke="#000000" stroke-width="1" /><line x1="70" y1="401" x2="190" y2="401" stroke="#000000" stroke-width="1" /><line x1="190" y1="361" x2="190" y2="401" stroke="#000000" stroke-width="1" /><line x1="70" y1="361" x2="70" y2="401" stroke="#000000" stroke-width="1" /><text font-size="24" font-family="M+ 1p Fallback" x="130" y="382" text-anchor="middle" dominant-baseline="middle" >MPP[1:0]</text><line x1="190" y1="361" x2="310" y2="361" stroke="#000000" stroke-width="1" /><line x1="190" y1="401" x2="310" y2="401" stroke="#000000" stroke-width="1" /><line x1="310" y1="361" x2="310" y2="401" stroke="#000000" stroke-width="1" /><line x1="190" y1="361" x2="190" y2="401" stroke="#000000" stroke-width="1" /><text font-size="24" font-family="M+ 1p Fallback" x="250" y="382" text-anchor="middle" dominant-baseline="middle" >VS[1:0]</text><line x1="310" y1="361" x2="390" y2="361" stroke="#000000" stroke-width="1" /><line x1="310" y1="401" x2="390" y2="401" stroke="#000000" stroke-width="1" /><line x1="390" y1="361" x2="390" y2="401" stroke="#000000" stroke-width="1" /><line x1="310" y1="361" x2="310" y2="401" stroke="#000000" stroke-width="1" /><text font-size="24" font-family="M+ 1p Fallback" x="350" y="382" text-anchor="middle" dominant-baseline="middle" >SPP</text><line x1="390" y1="361" x2="510" y2="361" stroke="#000000" stroke-width="1" /><line x1="390" y1="401" x2="510" y2="401" stroke="#000000" stroke-width="1" /><line x1="510" y1="361" x2="510" y2="401" stroke="#000000" stroke-width="1" /><line x1="390" y1="361" x2="390" y2="401" stroke="#000000" stroke-width="1" /><text font-size="24" font-family="M+ 1p Fallback" x="450" y="382" text-anchor="middle" dominant-baseline="middle" >MPIE</text><line x1="510" y1="361" x2="590" y2="361" stroke="#000000" stroke-width="1" /><line x1="510" y1="401" x2="590" y2="401" stroke="#000000" stroke-width="1" /><line x1="590" y1="361" x2="590" y2="401" stroke="#000000" stroke-width="1" /><line x1="510" y1="361" x2="510" y2="401" stroke="#000000" stroke-width="1" /><text font-size="24" font-family="M+ 1p Fallback" x="550" y="382" text-anchor="middle" dominant-baseline="middle" >UBE</text><line x1="590" y1="361" x2="710" y2="361" stroke="#000000" stroke-width="1" /><line x1="590" y1="401" x2="710" y2="401" stroke="#000000" stroke-width="1" /><line x1="710" y1="361" x2="710" y2="401" stroke="#000000" stroke-width="1" /><line x1="590" y1="361" x2="590" y2="401" stroke="#000000" stroke-width="1" /><text font-size="24" font-family="M+ 1p Fallback" x="650" y="382" text-anchor="middle" dominant-baseline="middle" >SPIE</text><line x1="710" y1="361" x2="830" y2="361" stroke="#000000" stroke-width="1" /><line x1="710" y1="401" x2="830" y2="401" stroke="#000000" stroke-width="1" /><line x1="830" y1="361" x2="830" y2="401" stroke="#000000" stroke-width="1" /><line x1="710" y1="361" x2="710" y2="401" stroke="#000000" stroke-width="1" /><text font-size="24" font-weight="bold" x="770" y="382" text-anchor="middle" dominant-baseline="middle" >WPRI</text><line x1="830" y1="361" x2="950" y2="361" stroke="#000000" stroke-width="1" /><line x1="830" y1="401" x2="950" y2="401" stroke="#000000" stroke-width="1" /><line x1="950" y1="361" x2="950" y2="401" stroke="#000000" stroke-width="1" /><line x1="830" y1="361" x2="830" y2="401" stroke="#000000" stroke-width="1" /><text font-size="24" font-family="M+ 1p Fallback" x="890" y="382" text-anchor="middle" dominant-baseline="middle" >MIE</text><line x1="950" y1="361" x2="1070" y2="361" stroke="#000000" stroke-width="1" /><line x1="950" y1="401" x2="1070" y2="401" stroke="#000000" stroke-width="1" /><line x1="1070" y1="361" x2="1070" y2="401" stroke="#000000" stroke-width="1" /><line x1="950" y1="361" x2="950" y2="401" stroke="#000000" stroke-width="1" /><text font-size="24" font-weight="bold" x="1010" y="382" text-anchor="middle" dominant-baseline="middle" >WPRI</text><line x1="1070" y1="361" x2="1190" y2="361" stroke="#000000" stroke-width="1" /><line x1="1070" y1="401" x2="1190" y2="401" stroke="#000000" stroke-width="1" /><line x1="1190" y1="361" x2="1190" y2="401" stroke="#000000" stroke-width="1" /><line x1="1070" y1="361" x2="1070" y2="401" stroke="#000000" stroke-width="1" /><text font-size="24" font-family="M+ 1p Fallback" x="1130" y="382" text-anchor="middle" dominant-baseline="middle" >SIE</text><line x1="1190" y1="361" x2="1310" y2="361" stroke="#000000" stroke-width="1" /><line x1="1190" y1="401" x2="1310" y2="401" stroke="#000000" stroke-width="1" /><line x1="1310" y1="361" x2="1310" y2="401" stroke="#000000" stroke-width="1" /><line x1="1190" y1="361" x2="1190" y2="401" stroke="#000000" stroke-width="1" /><text font-size="24" font-weight="bold" x="1250" y="382" text-anchor="middle" dominant-baseline="middle" >WPRI</text><text font-size="24" font-family="M+ 1p Fallback" x="130" y="422" text-anchor="middle" dominant-baseline="middle" >2</text><text font-size="24" font-family="M+ 1p Fallback" x="250" y="422" text-anchor="middle" dominant-baseline="middle" >2</text><text font-size="24" font-family="M+ 1p Fallback" x="350" y="422" text-anchor="middle" dominant-baseline="middle" >1</text><text font-size="24" font-family="M+ 1p Fallback" x="450" y="422" text-anchor="middle" dominant-baseline="middle" >1</text><text font-size="24" font-family="M+ 1p Fallback" x="550" y="422" text-anchor="middle" dominant-baseline="middle" >1</text><text font-size="24" font-family="M+ 1p Fallback" x="650" y="422" text-anchor="middle" dominant-baseline="middle" >1</text><text font-size="24" font-family="M+ 1p Fallback" x="770" y="422" text-anchor="middle" dominant-baseline="middle" >1</text><text font-size="24" font-family="M+ 1p Fallback" x="890" y="422" text-anchor="middle" dominant-baseline="middle" >1</text><text font-size="24" font-family="M+ 1p Fallback" x="1010" y="422" text-anchor="middle" dominant-baseline="middle" >1</text><text font-size="24" font-family="M+ 1p Fallback" x="1130" y="422" text-anchor="middle" dominant-baseline="middle" >1</text><text font-size="24" font-family="M+ 1p Fallback" x="1250" y="422" text-anchor="middle" dominant-baseline="middle" >1</text></svg>