<?xml version="1.0" encoding="UTF-8"?><svg xmlns:svg="http://www.w3.org/2000/svg" xmlns="http://www.w3.org/2000/svg" xmlns:xlink="http://www.w3.org/1999/xlink" version="1.0" width="1340" height="122" viewBox="0 0 1340 122" ><text font-size="24" font-family="M+ 1p Fallback" x="274" y="22" text-anchor="start" dominant-baseline="middle" >15</text><text font-size="24" font-family="M+ 1p Fallback" x="346" y="22" text-anchor="end" dominant-baseline="middle" >14</text><text font-size="24" font-family="M+ 1p Fallback" x="390" y="22" text-anchor="middle" dominant-baseline="middle" >13</text><text font-size="24" font-family="M+ 1p Fallback" x="434" y="22" text-anchor="start" dominant-baseline="middle" >12</text><text font-size="24" font-family="M+ 1p Fallback" x="506" y="22" text-anchor="end" dominant-baseline="middle" >10</text><text font-size="24" font-family="M+ 1p Fallback" x="550" y="22" text-anchor="middle" dominant-baseline="middle" >9</text><text font-size="24" font-family="M+ 1p Fallback" x="610" y="22" text-anchor="middle" dominant-baseline="middle" >8</text><text font-size="24" font-family="M+ 1p Fallback" x="690" y="22" text-anchor="middle" dominant-baseline="middle" >6</text><text font-size="24" font-family="M+ 1p Fallback" x="750" y="22" text-anchor="middle" dominant-baseline="middle" >5</text><text font-size="24" font-family="M+ 1p Fallback" x="810" y="22" text-anchor="middle" dominant-baseline="middle" >4</text><text font-size="24" font-family="M+ 1p Fallback" x="890" y="22" text-anchor="middle" dominant-baseline="middle" >2</text><text font-size="24" font-family="M+ 1p Fallback" x="950" y="22" text-anchor="middle" dominant-baseline="middle" >1</text><text font-size="24" font-family="M+ 1p Fallback" x="1010" y="22" text-anchor="middle" dominant-baseline="middle" >0</text><line x1="270" y1="41" x2="350" y2="41" stroke="#000000" stroke-width="1" /><line x1="270" y1="81" x2="350" y2="81" stroke="#000000" stroke-width="1" /><line x1="350" y1="41" x2="350" y2="81" stroke="#000000" stroke-width="1" /><line x1="270" y1="41" x2="270" y2="81" stroke="#000000" stroke-width="1" /><text font-size="24" font-family="M+ 1p Fallback" x="310" y="62" text-anchor="middle" dominant-baseline="middle" >0</text><line x1="350" y1="41" x2="430" y2="41" stroke="#000000" stroke-width="1" /><line x1="350" y1="81" x2="430" y2="81" stroke="#000000" stroke-width="1" /><line x1="430" y1="41" x2="430" y2="81" stroke="#000000" stroke-width="1" /><line x1="350" y1="41" x2="350" y2="81" stroke="#000000" stroke-width="1" /><text font-size="20" x="390" y="62" text-anchor="middle" dominant-baseline="middle" >LCOFIE</text><line x1="430" y1="41" x2="510" y2="41" stroke="#000000" stroke-width="1" /><line x1="430" y1="81" x2="510" y2="81" stroke="#000000" stroke-width="1" /><line x1="510" y1="41" x2="510" y2="81" stroke="#000000" stroke-width="1" /><line x1="430" y1="41" x2="430" y2="81" stroke="#000000" stroke-width="1" /><text font-size="24" font-family="M+ 1p Fallback" x="470" y="62" text-anchor="middle" dominant-baseline="middle" >0</text><line x1="510" y1="41" x2="590" y2="41" stroke="#000000" stroke-width="1" /><line x1="510" y1="81" x2="590" y2="81" stroke="#000000" stroke-width="1" /><line x1="590" y1="41" x2="590" y2="81" stroke="#000000" stroke-width="1" /><line x1="510" y1="41" x2="510" y2="81" stroke="#000000" stroke-width="1" /><text font-size="24" font-family="M+ 1p Fallback" x="550" y="62" text-anchor="middle" dominant-baseline="middle" >SEIE</text><line x1="590" y1="41" x2="710" y2="41" stroke="#000000" stroke-width="1" /><line x1="590" y1="81" x2="710" y2="81" stroke="#000000" stroke-width="1" /><line x1="710" y1="41" x2="710" y2="81" stroke="#000000" stroke-width="1" /><line x1="590" y1="41" x2="590" y2="81" stroke="#000000" stroke-width="1" /><text font-size="24" font-family="M+ 1p Fallback" x="650" y="62" text-anchor="middle" dominant-baseline="middle" >0</text><line x1="710" y1="41" x2="790" y2="41" stroke="#000000" stroke-width="1" /><line x1="710" y1="81" x2="790" y2="81" stroke="#000000" stroke-width="1" /><line x1="790" y1="41" x2="790" y2="81" stroke="#000000" stroke-width="1" /><line x1="710" y1="41" x2="710" y2="81" stroke="#000000" stroke-width="1" /><text font-size="24" font-family="M+ 1p Fallback" x="750" y="62" text-anchor="middle" dominant-baseline="middle" >STIE</text><line x1="790" y1="41" x2="910" y2="41" stroke="#000000" stroke-width="1" /><line x1="790" y1="81" x2="910" y2="81" stroke="#000000" stroke-width="1" /><line x1="910" y1="41" x2="910" y2="81" stroke="#000000" stroke-width="1" /><line x1="790" y1="41" x2="790" y2="81" stroke="#000000" stroke-width="1" /><text font-size="24" font-family="M+ 1p Fallback" x="850" y="62" text-anchor="middle" dominant-baseline="middle" >0</text><line x1="910" y1="41" x2="990" y2="41" stroke="#000000" stroke-width="1" /><line x1="910" y1="81" x2="990" y2="81" stroke="#000000" stroke-width="1" /><line x1="990" y1="41" x2="990" y2="81" stroke="#000000" stroke-width="1" /><line x1="910" y1="41" x2="910" y2="81" stroke="#000000" stroke-width="1" /><text font-size="24" font-family="M+ 1p Fallback" x="950" y="62" text-anchor="middle" dominant-baseline="middle" >SSIE</text><line x1="990" y1="41" x2="1030" y2="41" stroke="#000000" stroke-width="1" /><line x1="990" y1="81" x2="1030" y2="81" stroke="#000000" stroke-width="1" /><line x1="1030" y1="41" x2="1030" y2="81" stroke="#000000" stroke-width="1" /><line x1="990" y1="41" x2="990" y2="81" stroke="#000000" stroke-width="1" /><text font-size="24" font-family="M+ 1p Fallback" x="1010" y="62" text-anchor="middle" dominant-baseline="middle" >0</text><text font-size="24" font-family="M+ 1p Fallback" x="310" y="102" text-anchor="middle" dominant-baseline="middle" >2</text><text font-size="24" font-family="M+ 1p Fallback" x="390" y="102" text-anchor="middle" dominant-baseline="middle" >1</text><text font-size="24" font-family="M+ 1p Fallback" x="470" y="102" text-anchor="middle" dominant-baseline="middle" >3</text><text font-size="24" font-family="M+ 1p Fallback" x="550" y="102" text-anchor="middle" dominant-baseline="middle" >1</text><text font-size="24" font-family="M+ 1p Fallback" x="650" y="102" text-anchor="middle" dominant-baseline="middle" >3</text><text font-size="24" font-family="M+ 1p Fallback" x="750" y="102" text-anchor="middle" dominant-baseline="middle" >1</text><text font-size="24" font-family="M+ 1p Fallback" x="850" y="102" text-anchor="middle" dominant-baseline="middle" >3</text><text font-size="24" font-family="M+ 1p Fallback" x="950" y="102" text-anchor="middle" dominant-baseline="middle" >1</text><text font-size="24" font-family="M+ 1p Fallback" x="1010" y="102" text-anchor="middle" dominant-baseline="middle" >1</text></svg>