<?xml version="1.0" encoding="UTF-8"?><svg xmlns:svg="http://www.w3.org/2000/svg" xmlns="http://www.w3.org/2000/svg" xmlns:xlink="http://www.w3.org/1999/xlink" version="1.0" width="1340" height="282" viewBox="0 0 1340 282" ><text font-size="24" font-family="M+ 1p Fallback" x="50" y="22" text-anchor="middle" dominant-baseline="middle" >63</text><text font-size="24" font-family="M+ 1p Fallback" x="90" y="22" text-anchor="middle" dominant-baseline="middle" >62</text><text font-size="24" font-family="M+ 1p Fallback" x="130" y="22" text-anchor="middle" dominant-baseline="middle" >61</text><text font-size="24" font-family="M+ 1p Fallback" x="154" y="22" text-anchor="start" dominant-baseline="middle" >60</text><text font-size="24" font-family="M+ 1p Fallback" x="426" y="22" text-anchor="end" dominant-baseline="middle" >54</text><text font-size="24" font-family="M+ 1p Fallback" x="434" y="22" text-anchor="start" dominant-baseline="middle" >53</text><text font-size="24" font-family="M+ 1p Fallback" x="706" y="22" text-anchor="end" dominant-baseline="middle" >10</text><text font-size="24" font-family="M+ 1p Fallback" x="714" y="22" text-anchor="start" dominant-baseline="middle" >9</text><text font-size="24" font-family="M+ 1p Fallback" x="986" y="22" text-anchor="end" dominant-baseline="middle" >8</text><text font-size="24" font-family="M+ 1p Fallback" x="1010" y="22" text-anchor="middle" dominant-baseline="middle" >7</text><text font-size="24" font-family="M+ 1p Fallback" x="1050" y="22" text-anchor="middle" dominant-baseline="middle" >6</text><text font-size="24" font-family="M+ 1p Fallback" x="1090" y="22" text-anchor="middle" dominant-baseline="middle" >5</text><text font-size="24" font-family="M+ 1p Fallback" x="1130" y="22" text-anchor="middle" dominant-baseline="middle" >4</text><text font-size="24" font-family="M+ 1p Fallback" x="1170" y="22" text-anchor="middle" dominant-baseline="middle" >3</text><text font-size="24" font-family="M+ 1p Fallback" x="1210" y="22" text-anchor="middle" dominant-baseline="middle" >2</text><text font-size="24" font-family="M+ 1p Fallback" x="1250" y="22" text-anchor="middle" dominant-baseline="middle" >1</text><text font-size="24" font-family="M+ 1p Fallback" x="1290" y="22" text-anchor="middle" dominant-baseline="middle" >0</text><line x1="30" y1="41" x2="70" y2="41" stroke="#000000" stroke-width="1" /><line x1="30" y1="81" x2="70" y2="81" stroke="#000000" stroke-width="1" /><line x1="70" y1="41" x2="70" y2="81" stroke="#000000" stroke-width="1" /><line x1="30" y1="41" x2="30" y2="81" stroke="#000000" stroke-width="1" /><text font-size="24" font-family="M+ 1p Fallback" x="50" y="62" text-anchor="middle" dominant-baseline="middle" >N</text><line x1="70" y1="41" x2="150" y2="41" stroke="#000000" stroke-width="1" /><line x1="70" y1="81" x2="150" y2="81" stroke="#000000" stroke-width="1" /><line x1="150" y1="41" x2="150" y2="81" stroke="#000000" stroke-width="1" /><line x1="70" y1="41" x2="70" y2="81" stroke="#000000" stroke-width="1" /><text font-size="24" font-family="M+ 1p Fallback" x="110" y="62" text-anchor="middle" dominant-baseline="middle" >PBMT</text><line x1="150" y1="41" x2="430" y2="41" stroke="#000000" stroke-width="1" /><line x1="150" y1="81" x2="430" y2="81" stroke="#000000" stroke-width="1" /><line x1="430" y1="41" x2="430" y2="81" stroke="#000000" stroke-width="1" /><line x1="150" y1="41" x2="150" y2="81" stroke="#000000" stroke-width="1" /><text font-size="24" font-family="M+ 1p Fallback" x="290" y="62" text-anchor="middle" dominant-baseline="middle" >Reserved</text><line x1="430" y1="41" x2="710" y2="41" stroke="#000000" stroke-width="1" /><line x1="430" y1="81" x2="710" y2="81" stroke="#000000" stroke-width="1" /><line x1="710" y1="41" x2="710" y2="81" stroke="#000000" stroke-width="1" /><line x1="430" y1="41" x2="430" y2="81" stroke="#000000" stroke-width="1" /><text font-size="24" font-family="M+ 1p Fallback" x="570" y="62" text-anchor="middle" dominant-baseline="middle" >PPN</text><line x1="710" y1="41" x2="990" y2="41" stroke="#000000" stroke-width="1" /><line x1="710" y1="81" x2="990" y2="81" stroke="#000000" stroke-width="1" /><line x1="990" y1="41" x2="990" y2="81" stroke="#000000" stroke-width="1" /><line x1="710" y1="41" x2="710" y2="81" stroke="#000000" stroke-width="1" /><text font-size="24" font-family="M+ 1p Fallback" x="850" y="62" text-anchor="middle" dominant-baseline="middle" >RSW</text><line x1="990" y1="41" x2="1030" y2="41" stroke="#000000" stroke-width="1" /><line x1="990" y1="81" x2="1030" y2="81" stroke="#000000" stroke-width="1" /><line x1="1030" y1="41" x2="1030" y2="81" stroke="#000000" stroke-width="1" /><line x1="990" y1="41" x2="990" y2="81" stroke="#000000" stroke-width="1" /><text font-size="24" font-family="M+ 1p Fallback" x="1010" y="62" text-anchor="middle" dominant-baseline="middle" >D</text><line x1="1030" y1="41" x2="1070" y2="41" stroke="#000000" stroke-width="1" /><line x1="1030" y1="81" x2="1070" y2="81" stroke="#000000" stroke-width="1" /><line x1="1070" y1="41" x2="1070" y2="81" stroke="#000000" stroke-width="1" /><line x1="1030" y1="41" x2="1030" y2="81" stroke="#000000" stroke-width="1" /><text font-size="24" font-family="M+ 1p Fallback" x="1050" y="62" text-anchor="middle" dominant-baseline="middle" >A</text><line x1="1070" y1="41" x2="1110" y2="41" stroke="#000000" stroke-width="1" /><line x1="1070" y1="81" x2="1110" y2="81" stroke="#000000" stroke-width="1" /><line x1="1110" y1="41" x2="1110" y2="81" stroke="#000000" stroke-width="1" /><line x1="1070" y1="41" x2="1070" y2="81" stroke="#000000" stroke-width="1" /><text font-size="24" font-family="M+ 1p Fallback" x="1090" y="62" text-anchor="middle" dominant-baseline="middle" >G</text><line x1="1110" y1="41" x2="1150" y2="41" stroke="#000000" stroke-width="1" /><line x1="1110" y1="81" x2="1150" y2="81" stroke="#000000" stroke-width="1" /><line x1="1150" y1="41" x2="1150" y2="81" stroke="#000000" stroke-width="1" /><line x1="1110" y1="41" x2="1110" y2="81" stroke="#000000" stroke-width="1" /><text font-size="24" font-family="M+ 1p Fallback" x="1130" y="62" text-anchor="middle" dominant-baseline="middle" >U</text><line x1="1150" y1="41" x2="1190" y2="41" stroke="#000000" stroke-width="1" /><line x1="1150" y1="81" x2="1190" y2="81" stroke="#000000" stroke-width="1" /><line x1="1190" y1="41" x2="1190" y2="81" stroke="#000000" stroke-width="1" /><line x1="1150" y1="41" x2="1150" y2="81" stroke="#000000" stroke-width="1" /><text font-size="24" font-family="M+ 1p Fallback" x="1170" y="62" text-anchor="middle" dominant-baseline="middle" >X</text><line x1="1190" y1="41" x2="1230" y2="41" stroke="#000000" stroke-width="1" /><line x1="1190" y1="81" x2="1230" y2="81" stroke="#000000" stroke-width="1" /><line x1="1230" y1="41" x2="1230" y2="81" stroke="#000000" stroke-width="1" /><line x1="1190" y1="41" x2="1190" y2="81" stroke="#000000" stroke-width="1" /><text font-size="24" font-family="M+ 1p Fallback" x="1210" y="62" text-anchor="middle" dominant-baseline="middle" >W</text><line x1="1230" y1="41" x2="1270" y2="41" stroke="#000000" stroke-width="1" /><line x1="1230" y1="81" x2="1270" y2="81" stroke="#000000" stroke-width="1" /><line x1="1270" y1="41" x2="1270" y2="81" stroke="#000000" stroke-width="1" /><line x1="1230" y1="41" x2="1230" y2="81" stroke="#000000" stroke-width="1" /><text font-size="24" font-family="M+ 1p Fallback" x="1250" y="62" text-anchor="middle" dominant-baseline="middle" >R</text><line x1="1270" y1="41" x2="1310" y2="41" stroke="#000000" stroke-width="1" /><line x1="1270" y1="81" x2="1310" y2="81" stroke="#000000" stroke-width="1" /><line x1="1310" y1="41" x2="1310" y2="81" stroke="#000000" stroke-width="1" /><line x1="1270" y1="41" x2="1270" y2="81" stroke="#000000" stroke-width="1" /><text font-size="24" font-family="M+ 1p Fallback" x="1290" y="62" text-anchor="middle" dominant-baseline="middle" >V</text><text font-size="24" font-family="M+ 1p Fallback" x="50" y="102" text-anchor="middle" dominant-baseline="middle" >1</text><text font-size="24" font-family="M+ 1p Fallback" x="110" y="102" text-anchor="middle" dominant-baseline="middle" >2</text><text font-size="24" font-family="M+ 1p Fallback" x="290" y="102" text-anchor="middle" dominant-baseline="middle" >7</text><text font-size="24" font-family="M+ 1p Fallback" x="570" y="102" text-anchor="middle" dominant-baseline="middle" >44</text><text font-size="24" font-family="M+ 1p Fallback" x="850" y="102" text-anchor="middle" dominant-baseline="middle" >2</text><text font-size="24" font-family="M+ 1p Fallback" x="1010" y="102" text-anchor="middle" dominant-baseline="middle" >1</text><text font-size="24" font-family="M+ 1p Fallback" x="1050" y="102" text-anchor="middle" dominant-baseline="middle" >1</text><text font-size="24" font-family="M+ 1p Fallback" x="1090" y="102" text-anchor="middle" dominant-baseline="middle" >1</text><text font-size="24" font-family="M+ 1p Fallback" x="1130" y="102" text-anchor="middle" dominant-baseline="middle" >1</text><text font-size="24" font-family="M+ 1p Fallback" x="1170" y="102" text-anchor="middle" dominant-baseline="middle" >1</text><text font-size="24" font-family="M+ 1p Fallback" x="1210" y="102" text-anchor="middle" dominant-baseline="middle" >1</text><text font-size="24" font-family="M+ 1p Fallback" x="1250" y="102" text-anchor="middle" dominant-baseline="middle" >1</text><text font-size="24" font-family="M+ 1p Fallback" x="1290" y="102" text-anchor="middle" dominant-baseline="middle" >1</text><text font-size="24" font-family="M+ 1p Fallback" x="274" y="182" text-anchor="start" dominant-baseline="middle" >53</text><text font-size="24" font-family="M+ 1p Fallback" x="426" y="182" text-anchor="end" dominant-baseline="middle" >46</text><text font-size="24" font-family="M+ 1p Fallback" x="434" y="182" text-anchor="start" dominant-baseline="middle" >45</text><text font-size="24" font-family="M+ 1p Fallback" x="586" y="182" text-anchor="end" dominant-baseline="middle" >37</text><text font-size="24" font-family="M+ 1p Fallback" x="594" y="182" text-anchor="start" dominant-baseline="middle" >36</text><text font-size="24" font-family="M+ 1p Fallback" x="746" y="182" text-anchor="end" dominant-baseline="middle" >28</text><text font-size="24" font-family="M+ 1p Fallback" x="754" y="182" text-anchor="start" dominant-baseline="middle" >27</text><text font-size="24" font-family="M+ 1p Fallback" x="906" y="182" text-anchor="end" dominant-baseline="middle" >19</text><text font-size="24" font-family="M+ 1p Fallback" x="914" y="182" text-anchor="start" dominant-baseline="middle" >18</text><text font-size="24" font-family="M+ 1p Fallback" x="1066" y="182" text-anchor="end" dominant-baseline="middle" >10</text><line x1="270" y1="201" x2="430" y2="201" stroke="#000000" stroke-width="1" /><line x1="270" y1="241" x2="430" y2="241" stroke="#000000" stroke-width="1" /><line x1="430" y1="201" x2="430" y2="241" stroke="#000000" stroke-width="1" /><line x1="270" y1="201" x2="270" y2="241" stroke="#000000" stroke-width="1" /><text font-size="24" font-family="M+ 1p Fallback" x="350" y="222" text-anchor="middle" dominant-baseline="middle" >PPN[4]</text><line x1="430" y1="201" x2="590" y2="201" stroke="#000000" stroke-width="1" /><line x1="430" y1="241" x2="590" y2="241" stroke="#000000" stroke-width="1" /><line x1="590" y1="201" x2="590" y2="241" stroke="#000000" stroke-width="1" /><line x1="430" y1="201" x2="430" y2="241" stroke="#000000" stroke-width="1" /><text font-size="24" font-family="M+ 1p Fallback" x="510" y="222" text-anchor="middle" dominant-baseline="middle" >PPN[3]</text><line x1="590" y1="201" x2="750" y2="201" stroke="#000000" stroke-width="1" /><line x1="590" y1="241" x2="750" y2="241" stroke="#000000" stroke-width="1" /><line x1="750" y1="201" x2="750" y2="241" stroke="#000000" stroke-width="1" /><line x1="590" y1="201" x2="590" y2="241" stroke="#000000" stroke-width="1" /><text font-size="24" font-family="M+ 1p Fallback" x="670" y="222" text-anchor="middle" dominant-baseline="middle" >PPN[2]</text><line x1="750" y1="201" x2="910" y2="201" stroke="#000000" stroke-width="1" /><line x1="750" y1="241" x2="910" y2="241" stroke="#000000" stroke-width="1" /><line x1="910" y1="201" x2="910" y2="241" stroke="#000000" stroke-width="1" /><line x1="750" y1="201" x2="750" y2="241" stroke="#000000" stroke-width="1" /><text font-size="24" font-family="M+ 1p Fallback" x="830" y="222" text-anchor="middle" dominant-baseline="middle" >PPN[1]</text><line x1="910" y1="201" x2="1070" y2="201" stroke="#000000" stroke-width="1" /><line x1="910" y1="241" x2="1070" y2="241" stroke="#000000" stroke-width="1" /><line x1="1070" y1="201" x2="1070" y2="241" stroke="#000000" stroke-width="1" /><line x1="910" y1="201" x2="910" y2="241" stroke="#000000" stroke-width="1" /><text font-size="24" font-family="M+ 1p Fallback" x="990" y="222" text-anchor="middle" dominant-baseline="middle" >PPN[0]</text><text font-size="24" font-family="M+ 1p Fallback" x="350" y="262" text-anchor="middle" dominant-baseline="middle" >8</text><text font-size="24" font-family="M+ 1p Fallback" x="510" y="262" text-anchor="middle" dominant-baseline="middle" >9</text><text font-size="24" font-family="M+ 1p Fallback" x="670" y="262" text-anchor="middle" dominant-baseline="middle" >9</text><text font-size="24" font-family="M+ 1p Fallback" x="830" y="262" text-anchor="middle" dominant-baseline="middle" >9</text><text font-size="24" font-family="M+ 1p Fallback" x="990" y="262" text-anchor="middle" dominant-baseline="middle" >9</text></svg>