<?xml version="1.0" encoding="UTF-8"?><svg xmlns:svg="http://www.w3.org/2000/svg" xmlns="http://www.w3.org/2000/svg" xmlns:xlink="http://www.w3.org/1999/xlink" version="1.0" width="1340" height="122" viewBox="0 0 1340 122" ><text font-size="24" font-family="M+ 1p Fallback" x="70" y="22" text-anchor="middle" dominant-baseline="middle" >31</text><text font-size="24" font-family="M+ 1p Fallback" x="150" y="22" text-anchor="middle" dominant-baseline="middle" >30</text><text font-size="24" font-family="M+ 1p Fallback" x="230" y="22" text-anchor="middle" dominant-baseline="middle" >29</text><text font-size="24" font-family="M+ 1p Fallback" x="274" y="22" text-anchor="start" dominant-baseline="middle" >28</text><text font-size="24" font-family="M+ 1p Fallback" x="946" y="22" text-anchor="end" dominant-baseline="middle" >6</text><text font-size="24" font-family="M+ 1p Fallback" x="990" y="22" text-anchor="middle" dominant-baseline="middle" >5</text><text font-size="24" font-family="M+ 1p Fallback" x="1070" y="22" text-anchor="middle" dominant-baseline="middle" >4</text><text font-size="24" font-family="M+ 1p Fallback" x="1150" y="22" text-anchor="middle" dominant-baseline="middle" >3</text><text font-size="24" font-family="M+ 1p Fallback" x="1210" y="22" text-anchor="middle" dominant-baseline="middle" >2</text><text font-size="24" font-family="M+ 1p Fallback" x="1250" y="22" text-anchor="middle" dominant-baseline="middle" >1</text><text font-size="24" font-family="M+ 1p Fallback" x="1290" y="22" text-anchor="middle" dominant-baseline="middle" >0</text><line x1="30" y1="41" x2="110" y2="41" stroke="#000000" stroke-width="1" /><line x1="30" y1="81" x2="110" y2="81" stroke="#000000" stroke-width="1" /><line x1="110" y1="41" x2="110" y2="81" stroke="#000000" stroke-width="1" /><line x1="30" y1="41" x2="30" y2="81" stroke="#000000" stroke-width="1" /><text font-size="24" font-family="M+ 1p Fallback" x="70" y="62" text-anchor="middle" dominant-baseline="middle" >HPM31</text><line x1="110" y1="41" x2="190" y2="41" stroke="#000000" stroke-width="1" /><line x1="110" y1="81" x2="190" y2="81" stroke="#000000" stroke-width="1" /><line x1="190" y1="41" x2="190" y2="81" stroke="#000000" stroke-width="1" /><line x1="110" y1="41" x2="110" y2="81" stroke="#000000" stroke-width="1" /><text font-size="24" font-family="M+ 1p Fallback" x="150" y="62" text-anchor="middle" dominant-baseline="middle" >HPM30</text><line x1="190" y1="41" x2="270" y2="41" stroke="#000000" stroke-width="1" /><line x1="190" y1="81" x2="270" y2="81" stroke="#000000" stroke-width="1" /><line x1="270" y1="41" x2="270" y2="81" stroke="#000000" stroke-width="1" /><line x1="190" y1="41" x2="190" y2="81" stroke="#000000" stroke-width="1" /><text font-size="24" font-family="M+ 1p Fallback" x="230" y="62" text-anchor="middle" dominant-baseline="middle" >HPM29</text><line x1="270" y1="41" x2="950" y2="41" stroke="#000000" stroke-width="1" /><line x1="270" y1="81" x2="950" y2="81" stroke="#000000" stroke-width="1" /><line x1="950" y1="41" x2="950" y2="81" stroke="#000000" stroke-width="1" /><line x1="270" y1="41" x2="270" y2="81" stroke="#000000" stroke-width="1" /><text font-size="24" font-family="M+ 1p Fallback" x="610" y="62" text-anchor="middle" dominant-baseline="middle" >...</text><line x1="950" y1="41" x2="1030" y2="41" stroke="#000000" stroke-width="1" /><line x1="950" y1="81" x2="1030" y2="81" stroke="#000000" stroke-width="1" /><line x1="1030" y1="41" x2="1030" y2="81" stroke="#000000" stroke-width="1" /><line x1="950" y1="41" x2="950" y2="81" stroke="#000000" stroke-width="1" /><text font-size="24" font-family="M+ 1p Fallback" x="990" y="62" text-anchor="middle" dominant-baseline="middle" >HPM5</text><line x1="1030" y1="41" x2="1110" y2="41" stroke="#000000" stroke-width="1" /><line x1="1030" y1="81" x2="1110" y2="81" stroke="#000000" stroke-width="1" /><line x1="1110" y1="41" x2="1110" y2="81" stroke="#000000" stroke-width="1" /><line x1="1030" y1="41" x2="1030" y2="81" stroke="#000000" stroke-width="1" /><text font-size="24" font-family="M+ 1p Fallback" x="1070" y="62" text-anchor="middle" dominant-baseline="middle" >HPM4</text><line x1="1110" y1="41" x2="1190" y2="41" stroke="#000000" stroke-width="1" /><line x1="1110" y1="81" x2="1190" y2="81" stroke="#000000" stroke-width="1" /><line x1="1190" y1="41" x2="1190" y2="81" stroke="#000000" stroke-width="1" /><line x1="1110" y1="41" x2="1110" y2="81" stroke="#000000" stroke-width="1" /><text font-size="24" font-family="M+ 1p Fallback" x="1150" y="62" text-anchor="middle" dominant-baseline="middle" >HPM3</text><line x1="1190" y1="41" x2="1230" y2="41" stroke="#000000" stroke-width="1" /><line x1="1190" y1="81" x2="1230" y2="81" stroke="#000000" stroke-width="1" /><line x1="1230" y1="41" x2="1230" y2="81" stroke="#000000" stroke-width="1" /><line x1="1190" y1="41" x2="1190" y2="81" stroke="#000000" stroke-width="1" /><text font-size="24" font-family="M+ 1p Fallback" x="1210" y="62" text-anchor="middle" dominant-baseline="middle" >IR</text><line x1="1230" y1="41" x2="1270" y2="41" stroke="#000000" stroke-width="1" /><line x1="1230" y1="81" x2="1270" y2="81" stroke="#000000" stroke-width="1" /><line x1="1270" y1="41" x2="1270" y2="81" stroke="#000000" stroke-width="1" /><line x1="1230" y1="41" x2="1230" y2="81" stroke="#000000" stroke-width="1" /><text font-size="24" font-family="M+ 1p Fallback" x="1250" y="62" text-anchor="middle" dominant-baseline="middle" >TM</text><line x1="1270" y1="41" x2="1310" y2="41" stroke="#000000" stroke-width="1" /><line x1="1270" y1="81" x2="1310" y2="81" stroke="#000000" stroke-width="1" /><line x1="1310" y1="41" x2="1310" y2="81" stroke="#000000" stroke-width="1" /><line x1="1270" y1="41" x2="1270" y2="81" stroke="#000000" stroke-width="1" /><text font-size="24" font-family="M+ 1p Fallback" x="1290" y="62" text-anchor="middle" dominant-baseline="middle" >CY</text><text font-size="24" font-family="M+ 1p Fallback" x="70" y="102" text-anchor="middle" dominant-baseline="middle" >1</text><text font-size="24" font-family="M+ 1p Fallback" x="150" y="102" text-anchor="middle" dominant-baseline="middle" >1</text><text font-size="24" font-family="M+ 1p Fallback" x="230" y="102" text-anchor="middle" dominant-baseline="middle" >1</text><text font-size="24" font-family="M+ 1p Fallback" x="610" y="102" text-anchor="middle" dominant-baseline="middle" >23</text><text font-size="24" font-family="M+ 1p Fallback" x="990" y="102" text-anchor="middle" dominant-baseline="middle" >1</text><text font-size="24" font-family="M+ 1p Fallback" x="1070" y="102" text-anchor="middle" dominant-baseline="middle" >1</text><text font-size="24" font-family="M+ 1p Fallback" x="1150" y="102" text-anchor="middle" dominant-baseline="middle" >1</text><text font-size="24" font-family="M+ 1p Fallback" x="1210" y="102" text-anchor="middle" dominant-baseline="middle" >1</text><text font-size="24" font-family="M+ 1p Fallback" x="1250" y="102" text-anchor="middle" dominant-baseline="middle" >1</text><text font-size="24" font-family="M+ 1p Fallback" x="1290" y="102" text-anchor="middle" dominant-baseline="middle" >1</text></svg>