<?xml version="1.0" encoding="UTF-8"?><svg xmlns:svg="http://www.w3.org/2000/svg" xmlns="http://www.w3.org/2000/svg" xmlns:xlink="http://www.w3.org/1999/xlink" version="1.0" width="1340" height="122" viewBox="0 0 1340 122" ><text font-size="24" font-family="M+ 1p Fallback" x="194" y="22" text-anchor="start" dominant-baseline="middle" >58</text><text font-size="24" font-family="M+ 1p Fallback" x="346" y="22" text-anchor="end" dominant-baseline="middle" >48</text><text font-size="24" font-family="M+ 1p Fallback" x="354" y="22" text-anchor="start" dominant-baseline="middle" >47</text><text font-size="24" font-family="M+ 1p Fallback" x="506" y="22" text-anchor="end" dominant-baseline="middle" >39</text><text font-size="24" font-family="M+ 1p Fallback" x="514" y="22" text-anchor="start" dominant-baseline="middle" >38</text><text font-size="24" font-family="M+ 1p Fallback" x="666" y="22" text-anchor="end" dominant-baseline="middle" >30</text><text font-size="24" font-family="M+ 1p Fallback" x="674" y="22" text-anchor="start" dominant-baseline="middle" >29</text><text font-size="24" font-family="M+ 1p Fallback" x="826" y="22" text-anchor="end" dominant-baseline="middle" >21</text><text font-size="24" font-family="M+ 1p Fallback" x="834" y="22" text-anchor="start" dominant-baseline="middle" >20</text><text font-size="24" font-family="M+ 1p Fallback" x="986" y="22" text-anchor="end" dominant-baseline="middle" >12</text><text font-size="24" font-family="M+ 1p Fallback" x="994" y="22" text-anchor="start" dominant-baseline="middle" >11</text><text font-size="24" font-family="M+ 1p Fallback" x="1146" y="22" text-anchor="end" dominant-baseline="middle" >0</text><line x1="190" y1="41" x2="350" y2="41" stroke="#000000" stroke-width="1" /><line x1="190" y1="81" x2="350" y2="81" stroke="#000000" stroke-width="1" /><line x1="350" y1="41" x2="350" y2="81" stroke="#000000" stroke-width="1" /><line x1="190" y1="41" x2="190" y2="81" stroke="#000000" stroke-width="1" /><text font-size="24" font-family="M+ 1p Fallback" x="270" y="62" text-anchor="middle" dominant-baseline="middle" >VPN[4]</text><line x1="350" y1="41" x2="510" y2="41" stroke="#000000" stroke-width="1" /><line x1="350" y1="81" x2="510" y2="81" stroke="#000000" stroke-width="1" /><line x1="510" y1="41" x2="510" y2="81" stroke="#000000" stroke-width="1" /><line x1="350" y1="41" x2="350" y2="81" stroke="#000000" stroke-width="1" /><text font-size="24" font-family="M+ 1p Fallback" x="430" y="62" text-anchor="middle" dominant-baseline="middle" >VPN[3]</text><line x1="510" y1="41" x2="670" y2="41" stroke="#000000" stroke-width="1" /><line x1="510" y1="81" x2="670" y2="81" stroke="#000000" stroke-width="1" /><line x1="670" y1="41" x2="670" y2="81" stroke="#000000" stroke-width="1" /><line x1="510" y1="41" x2="510" y2="81" stroke="#000000" stroke-width="1" /><text font-size="24" font-family="M+ 1p Fallback" x="590" y="62" text-anchor="middle" dominant-baseline="middle" >VPN[2]</text><line x1="670" y1="41" x2="830" y2="41" stroke="#000000" stroke-width="1" /><line x1="670" y1="81" x2="830" y2="81" stroke="#000000" stroke-width="1" /><line x1="830" y1="41" x2="830" y2="81" stroke="#000000" stroke-width="1" /><line x1="670" y1="41" x2="670" y2="81" stroke="#000000" stroke-width="1" /><text font-size="24" font-family="M+ 1p Fallback" x="750" y="62" text-anchor="middle" dominant-baseline="middle" >VPN[1]</text><line x1="830" y1="41" x2="990" y2="41" stroke="#000000" stroke-width="1" /><line x1="830" y1="81" x2="990" y2="81" stroke="#000000" stroke-width="1" /><line x1="990" y1="41" x2="990" y2="81" stroke="#000000" stroke-width="1" /><line x1="830" y1="41" x2="830" y2="81" stroke="#000000" stroke-width="1" /><text font-size="24" font-family="M+ 1p Fallback" x="910" y="62" text-anchor="middle" dominant-baseline="middle" >VPN[0]</text><line x1="990" y1="41" x2="1150" y2="41" stroke="#000000" stroke-width="1" /><line x1="990" y1="81" x2="1150" y2="81" stroke="#000000" stroke-width="1" /><line x1="1150" y1="41" x2="1150" y2="81" stroke="#000000" stroke-width="1" /><line x1="990" y1="41" x2="990" y2="81" stroke="#000000" stroke-width="1" /><text font-size="24" font-family="M+ 1p Fallback" x="1070" y="62" text-anchor="middle" dominant-baseline="middle" >page offset</text><text font-size="24" font-family="M+ 1p Fallback" x="270" y="102" text-anchor="middle" dominant-baseline="middle" >11</text><text font-size="24" font-family="M+ 1p Fallback" x="430" y="102" text-anchor="middle" dominant-baseline="middle" >9</text><text font-size="24" font-family="M+ 1p Fallback" x="590" y="102" text-anchor="middle" dominant-baseline="middle" >9</text><text font-size="24" font-family="M+ 1p Fallback" x="750" y="102" text-anchor="middle" dominant-baseline="middle" >9</text><text font-size="24" font-family="M+ 1p Fallback" x="910" y="102" text-anchor="middle" dominant-baseline="middle" >9</text><text font-size="24" font-family="M+ 1p Fallback" x="1070" y="102" text-anchor="middle" dominant-baseline="middle" >12</text></svg>