<?xml version="1.0" encoding="UTF-8"?><svg xmlns:svg="http://www.w3.org/2000/svg" xmlns="http://www.w3.org/2000/svg" xmlns:xlink="http://www.w3.org/1999/xlink" version="1.0" width="1360" height="388" viewBox="0 0 1360 388" ><text font-size="24" x="60" y="14" font-family="Courier New, monospace" dominant-baseline="middle" text-anchor="middle" >63</text><text font-size="24" x="100" y="14" font-family="Courier New, monospace" dominant-baseline="middle" text-anchor="middle" ></text><text font-size="24" x="140" y="14" font-family="Courier New, monospace" dominant-baseline="middle" text-anchor="middle" ></text><text font-size="24" x="180" y="14" font-family="Courier New, monospace" dominant-baseline="middle" text-anchor="middle" ></text><text font-size="24" x="220" y="14" font-family="Courier New, monospace" dominant-baseline="middle" text-anchor="middle" ></text><text font-size="24" x="260" y="14" font-family="Courier New, monospace" dominant-baseline="middle" text-anchor="middle" ></text><text font-size="24" x="300" y="14" font-family="Courier New, monospace" dominant-baseline="middle" text-anchor="middle" ></text><text font-size="24" x="340" y="14" font-family="Courier New, monospace" dominant-baseline="middle" text-anchor="middle" ></text><text font-size="24" x="380" y="14" font-family="Courier New, monospace" dominant-baseline="middle" text-anchor="middle" ></text><text font-size="24" x="420" y="14" font-family="Courier New, monospace" dominant-baseline="middle" text-anchor="middle" ></text><text font-size="24" x="460" y="14" font-family="Courier New, monospace" dominant-baseline="middle" text-anchor="middle" ></text><text font-size="24" x="500" y="14" font-family="Courier New, monospace" dominant-baseline="middle" text-anchor="middle" ></text><text font-size="24" x="540" y="14" font-family="Courier New, monospace" dominant-baseline="middle" text-anchor="middle" ></text><text font-size="24" x="580" y="14" font-family="Courier New, monospace" dominant-baseline="middle" text-anchor="middle" >0</text><text font-size="24" x="620" y="14" font-family="Courier New, monospace" dominant-baseline="middle" text-anchor="middle" ></text><text font-size="24" x="660" y="14" font-family="Courier New, monospace" dominant-baseline="middle" text-anchor="middle" ></text><text font-size="24" x="700" y="14" font-family="Courier New, monospace" dominant-baseline="middle" text-anchor="middle" ></text><text font-size="24" x="740" y="14" font-family="Courier New, monospace" dominant-baseline="middle" text-anchor="middle" ></text><text font-size="24" x="780" y="14" font-family="Courier New, monospace" dominant-baseline="middle" text-anchor="middle" ></text><text font-size="24" x="820" y="14" font-family="Courier New, monospace" dominant-baseline="middle" text-anchor="middle" ></text><text font-size="24" x="860" y="14" font-family="Courier New, monospace" dominant-baseline="middle" text-anchor="middle" ></text><text font-size="24" x="900" y="14" font-family="Courier New, monospace" dominant-baseline="middle" text-anchor="middle" ></text><text font-size="24" x="940" y="14" font-family="Courier New, monospace" dominant-baseline="middle" text-anchor="middle" ></text><text font-size="24" x="980" y="14" font-family="Courier New, monospace" dominant-baseline="middle" text-anchor="middle" ></text><text font-size="24" x="1020" y="14" font-family="Courier New, monospace" dominant-baseline="middle" text-anchor="middle" ></text><text font-size="24" x="1060" y="14" font-family="Courier New, monospace" dominant-baseline="middle" text-anchor="middle" ></text><text font-size="24" x="1100" y="14" font-family="Courier New, monospace" dominant-baseline="middle" text-anchor="middle" ></text><text font-size="24" x="1140" y="14" font-family="Courier New, monospace" dominant-baseline="middle" text-anchor="middle" ></text><text font-size="24" x="1180" y="14" font-family="Courier New, monospace" dominant-baseline="middle" text-anchor="middle" ></text><text font-size="24" x="1220" y="14" font-family="Courier New, monospace" dominant-baseline="middle" text-anchor="middle" ></text><text font-size="24" x="1260" y="14" font-family="Courier New, monospace" dominant-baseline="middle" text-anchor="middle" ></text><text font-size="24" x="1300" y="14" font-family="Courier New, monospace" dominant-baseline="middle" text-anchor="middle" ></text><line x1="40" y1="27" x2="600" y2="27" stroke="#000000" stroke-width="1" /><line x1="40" y1="67" x2="600" y2="67" stroke="#000000" stroke-width="1" /><line x1="600" y1="27" x2="600" y2="67" stroke="#000000" stroke-width="1" /><line x1="40" y1="27" x2="40" y2="67" stroke="#000000" stroke-width="1" /><text font-size="24" font-family="M+ 1p Fallback" x="320" y="48" text-anchor="middle" dominant-baseline="middle" >mcycle</text><line x1="40" y1="67" x2="600" y2="67" stroke="#000000" stroke-width="1" /><line x1="40" y1="107" x2="600" y2="107" stroke="#000000" stroke-width="1" /><line x1="600" y1="67" x2="600" y2="107" stroke="#000000" stroke-width="1" /><line x1="40" y1="67" x2="40" y2="107" stroke="#000000" stroke-width="1" /><text font-size="24" font-family="M+ 1p Fallback" x="320" y="88" text-anchor="middle" dominant-baseline="middle" >minstret</text><text font-size="24" font-family="M+ 1p Fallback" x="764" y="128" text-anchor="start" dominant-baseline="middle" >63</text><text font-size="24" font-family="M+ 1p Fallback" x="1316" y="128" text-anchor="end" dominant-baseline="middle" >0</text><line x1="40" y1="147" x2="600" y2="147" stroke="#000000" stroke-width="1" /><line x1="40" y1="187" x2="600" y2="187" stroke="#000000" stroke-width="1" /><line x1="600" y1="147" x2="600" y2="187" stroke="#000000" stroke-width="1" /><line x1="40" y1="147" x2="40" y2="187" stroke="#000000" stroke-width="1" /><text font-size="24" font-family="M+ 1p Fallback" x="320" y="168" text-anchor="middle" dominant-baseline="middle" >mhpmcounter3</text><line x1="760" y1="147" x2="1320" y2="147" stroke="#000000" stroke-width="1" /><line x1="760" y1="187" x2="1320" y2="187" stroke="#000000" stroke-width="1" /><line x1="1320" y1="147" x2="1320" y2="187" stroke="#000000" stroke-width="1" /><line x1="760" y1="147" x2="760" y2="187" stroke="#000000" stroke-width="1" /><text font-size="24" font-family="M+ 1p Fallback" x="1040" y="168" text-anchor="middle" dominant-baseline="middle" >mhpmevent3</text><line x1="40" y1="187" x2="600" y2="187" stroke="#000000" stroke-width="1" /><line x1="40" y1="227" x2="600" y2="227" stroke="#000000" stroke-width="1" /><line x1="600" y1="187" x2="600" y2="227" stroke="#000000" stroke-width="1" /><line x1="40" y1="187" x2="40" y2="227" stroke="#000000" stroke-width="1" /><text font-size="24" font-family="M+ 1p Fallback" x="320" y="208" text-anchor="middle" dominant-baseline="middle" >mhpmcounter4</text><line x1="760" y1="187" x2="1320" y2="187" stroke="#000000" stroke-width="1" /><line x1="760" y1="227" x2="1320" y2="227" stroke="#000000" stroke-width="1" /><line x1="1320" y1="187" x2="1320" y2="227" stroke="#000000" stroke-width="1" /><line x1="760" y1="187" x2="760" y2="227" stroke="#000000" stroke-width="1" /><text font-size="24" font-family="M+ 1p Fallback" x="1040" y="208" text-anchor="middle" dominant-baseline="middle" >mhpmevent4</text><text font-size="24" font-family="M+ 1p Fallback" x="320" y="248" text-anchor="middle" dominant-baseline="middle" >⋮</text><text font-size="24" font-family="M+ 1p Fallback" x="1040" y="248" text-anchor="middle" dominant-baseline="middle" >⋮</text><line x1="40" y1="267" x2="600" y2="267" stroke="#000000" stroke-width="1" /><line x1="40" y1="307" x2="600" y2="307" stroke="#000000" stroke-width="1" /><line x1="600" y1="267" x2="600" y2="307" stroke="#000000" stroke-width="1" /><line x1="40" y1="267" x2="40" y2="307" stroke="#000000" stroke-width="1" /><text font-size="24" font-family="M+ 1p Fallback" x="320" y="288" text-anchor="middle" dominant-baseline="middle" >mhpmcounter30</text><line x1="760" y1="267" x2="1320" y2="267" stroke="#000000" stroke-width="1" /><line x1="760" y1="307" x2="1320" y2="307" stroke="#000000" stroke-width="1" /><line x1="1320" y1="267" x2="1320" y2="307" stroke="#000000" stroke-width="1" /><line x1="760" y1="267" x2="760" y2="307" stroke="#000000" stroke-width="1" /><text font-size="24" font-family="M+ 1p Fallback" x="1040" y="288" text-anchor="middle" dominant-baseline="middle" >mhpmevent30</text><line x1="40" y1="307" x2="600" y2="307" stroke="#000000" stroke-width="1" /><line x1="40" y1="347" x2="600" y2="347" stroke="#000000" stroke-width="1" /><line x1="600" y1="307" x2="600" y2="347" stroke="#000000" stroke-width="1" /><line x1="40" y1="307" x2="40" y2="347" stroke="#000000" stroke-width="1" /><text font-size="24" font-family="M+ 1p Fallback" x="320" y="328" text-anchor="middle" dominant-baseline="middle" >mhpmcounter31</text><line x1="760" y1="307" x2="1320" y2="307" stroke="#000000" stroke-width="1" /><line x1="760" y1="347" x2="1320" y2="347" stroke="#000000" stroke-width="1" /><line x1="1320" y1="307" x2="1320" y2="347" stroke="#000000" stroke-width="1" /><line x1="760" y1="307" x2="760" y2="347" stroke="#000000" stroke-width="1" /><text font-size="24" font-family="M+ 1p Fallback" x="1040" y="328" text-anchor="middle" dominant-baseline="middle" >mhpmevent31</text><text font-size="24" font-family="M+ 1p Fallback" x="320" y="368" text-anchor="middle" dominant-baseline="middle" >64</text><text font-size="24" font-family="M+ 1p Fallback" x="1040" y="368" text-anchor="middle" dominant-baseline="middle" >64</text></svg>