<svg xmlns="http://www.w3.org/2000/svg" width="1024" height="448" viewBox="0 0 1024 448" class="WaveDrom"><g transform="translate(0.5,0.5)" text-anchor="middle" font-size="14" font-family="sans-serif" font-weight="normal"><g transform="translate(4,413)"><g stroke="black" stroke-width="1" stroke-linecap="round"><line x2="1015"/><line y2="31"/><line x2="1015" y1="31" y2="31"/><line x1="1015" x2="1015" y2="31"/><line x1="888" x2="888" y2="31"/><line x1="761" x2="761" y2="31"/><line x1="634" x2="634" y2="3"/><line x1="634" x2="634" y1="31" y2="28"/><line x1="508" x2="508" y2="3"/><line x1="508" x2="508" y1="31" y2="28"/><line x1="381" x2="381" y2="3"/><line x1="381" x2="381" y1="31" y2="28"/><line x1="254" x2="254" y2="3"/><line x1="254" x2="254" y1="31" y2="28"/><line x1="127" x2="127" y2="31"/></g><g><g/><g transform="translate(63,-11)"><g transform="translate(888)"><text y="6">0</text></g><g transform="translate(761)"><text y="6">1</text></g><g transform="translate(634)"><text y="6">2</text></g><g transform="translate(127)"><text y="6">6</text></g><g transform="translate(0)"><text y="6">7</text></g></g><g transform="translate(63,15)"><g transform="translate(888)"><text y="6"><tspan>U</tspan></text></g><g transform="translate(761)"><text y="6"><tspan>S</tspan></text></g><g transform="translate(381)"><text y="6"><tspan font-style="italic">WPRI</tspan></text></g><g transform="translate(0)"><text y="6"><tspan>RASEMU</tspan></text></g></g><g transform="translate(63,39)"/></g></g><g transform="translate(4,357)"><g stroke="black" stroke-width="1" stroke-linecap="round"><line x2="1015"/><line y2="31"/><line x2="1015" y1="31" y2="31"/><line x1="1015" x2="1015" y2="31"/><line x1="888" x2="888" y2="31"/><line x1="761" x2="761" y2="3"/><line x1="761" x2="761" y1="31" y2="28"/><line x1="634" x2="634" y2="31"/><line x1="508" x2="508" y2="31"/><line x1="381" x2="381" y2="31"/><line x1="254" x2="254" y2="3"/><line x1="254" x2="254" y1="31" y2="28"/><line x1="127" x2="127" y2="3"/><line x1="127" x2="127" y1="31" y2="28"/></g><g><g/><g transform="translate(63,-11)"><g transform="translate(888)"><text y="6">8</text></g><g transform="translate(761)"><text y="6">9</text></g><g transform="translate(634)"><text y="6">10</text></g><g transform="translate(508)"><text y="6">11</text></g><g transform="translate(381)"><text y="6">12</text></g><g transform="translate(254)"><text y="6">13</text></g><g transform="translate(0)"><text y="6">15</text></g></g><g transform="translate(63,15)"><g transform="translate(888)"><text y="6"><tspan>STE</tspan></text></g><g transform="translate(698)"><text y="6"><tspan font-style="italic">WPRI</tspan></text></g><g transform="translate(508)"><text y="6"><tspan>BPFRZ</tspan></text></g><g transform="translate(381)"><text y="6"><tspan>LCOFIFRZ</tspan></text></g><g transform="translate(127)"><text y="6"><tspan font-style="italic">WPRI</tspan></text></g></g><g transform="translate(63,39)"/></g></g><g transform="translate(4,301)"><g stroke="black" stroke-width="1" stroke-linecap="round"><line x2="1015"/><line y2="31"/><line x2="1015" y1="31" y2="31"/><line x1="1015" x2="1015" y2="31"/><line x1="888" x2="888" y2="3"/><line x1="888" x2="888" y1="31" y2="28"/><line x1="761" x2="761" y2="3"/><line x1="761" x2="761" y1="31" y2="28"/><line x1="634" x2="634" y2="3"/><line x1="634" x2="634" y1="31" y2="28"/><line x1="508" x2="508" y2="3"/><line x1="508" x2="508" y1="31" y2="28"/><line x1="381" x2="381" y2="3"/><line x1="381" x2="381" y1="31" y2="28"/><line x1="254" x2="254" y2="3"/><line x1="254" x2="254" y1="31" y2="28"/><line x1="127" x2="127" y2="3"/><line x1="127" x2="127" y1="31" y2="28"/></g><g><g/><g transform="translate(63,-11)"><g transform="translate(888)"><text y="6">16</text></g><g transform="translate(0)"><text y="6">23</text></g></g><g transform="translate(63,15)"><g transform="translate(444)"><text y="6"><tspan font-style="italic">WPRI</tspan></text></g></g><g transform="translate(63,39)"/></g></g><g transform="translate(4,245)"><g stroke="black" stroke-width="1" stroke-linecap="round"><line x2="1015"/><line y2="31"/><line x2="1015" y1="31" y2="31"/><line x1="1015" x2="1015" y2="31"/><line x1="888" x2="888" y2="3"/><line x1="888" x2="888" y1="31" y2="28"/><line x1="761" x2="761" y2="3"/><line x1="761" x2="761" y1="31" y2="28"/><line x1="634" x2="634" y2="3"/><line x1="634" x2="634" y1="31" y2="28"/><line x1="508" x2="508" y2="3"/><line x1="508" x2="508" y1="31" y2="28"/><line x1="381" x2="381" y2="3"/><line x1="381" x2="381" y1="31" y2="28"/><line x1="254" x2="254" y2="3"/><line x1="254" x2="254" y1="31" y2="28"/><line x1="127" x2="127" y2="3"/><line x1="127" x2="127" y1="31" y2="28"/></g><g><g/><g transform="translate(63,-11)"><g transform="translate(888)"><text y="6">24</text></g><g transform="translate(0)"><text y="6">31</text></g></g><g transform="translate(63,15)"><g transform="translate(444)"><text y="6"><tspan font-style="italic">WPRI</tspan></text></g></g><g transform="translate(63,39)"/></g></g><g transform="translate(4,189)"><g stroke="black" stroke-width="1" stroke-linecap="round"><line x2="1015"/><line y2="31"/><line x2="1015" y1="31" y2="31"/><line x1="1015" x2="1015" y2="31"/><line x1="888" x2="888" y2="31"/><line x1="761" x2="761" y2="31"/><line x1="634" x2="634" y2="31"/><line x1="508" x2="508" y2="31"/><line x1="381" x2="381" y2="31"/><line x1="254" x2="254" y2="31"/><line x1="127" x2="127" y2="3"/><line x1="127" x2="127" y1="31" y2="28"/></g><g><g/><g transform="translate(63,-11)"><g transform="translate(888)"><text y="6">32</text></g><g transform="translate(761)"><text y="6">33</text></g><g transform="translate(634)"><text y="6">34</text></g><g transform="translate(508)"><text y="6">35</text></g><g transform="translate(381)"><text y="6">36</text></g><g transform="translate(254)"><text y="6">37</text></g><g transform="translate(127)"><text y="6">38</text></g><g transform="translate(0)"><text y="6">39</text></g></g><g transform="translate(63,15)"><g transform="translate(888)"><text y="6"><tspan font-style="italic">WPRI</tspan></text></g><g transform="translate(761)"><text y="6"><tspan>EXCINH</tspan></text></g><g transform="translate(634)"><text y="6"><tspan>INTRINH</tspan></text></g><g transform="translate(508)"><text y="6"><tspan>TRETINH</tspan></text></g><g transform="translate(381)"><text y="6"><tspan>NTBREN</tspan></text></g><g transform="translate(254)"><text y="6"><tspan>TKBRINH</tspan></text></g><g transform="translate(63)"><text y="6"><tspan font-style="italic">WPRI</tspan></text></g></g><g transform="translate(63,39)"/></g></g><g transform="translate(4,133)"><g stroke="black" stroke-width="1" stroke-linecap="round"><line x2="1015"/><line y2="31"/><line x2="1015" y1="31" y2="31"/><line x1="1015" x2="1015" y2="31"/><line x1="888" x2="888" y2="31"/><line x1="761" x2="761" y2="31"/><line x1="634" x2="634" y2="31"/><line x1="508" x2="508" y2="31"/><line x1="381" x2="381" y2="31"/><line x1="254" x2="254" y2="31"/><line x1="127" x2="127" y2="31"/></g><g><g/><g transform="translate(63,-11)"><g transform="translate(888)"><text y="6">40</text></g><g transform="translate(761)"><text y="6">41</text></g><g transform="translate(634)"><text y="6">42</text></g><g transform="translate(508)"><text y="6">43</text></g><g transform="translate(381)"><text y="6">44</text></g><g transform="translate(254)"><text y="6">45</text></g><g transform="translate(127)"><text y="6">46</text></g><g transform="translate(0)"><text y="6">47</text></g></g><g transform="translate(63,15)"><g transform="translate(888)"><text y="6"><tspan>INDCALLINH</tspan></text></g><g transform="translate(761)"><text y="6"><tspan>DIRCALLINH</tspan></text></g><g transform="translate(634)"><text y="6"><tspan>INDJMPINH</tspan></text></g><g transform="translate(508)"><text y="6"><tspan>DIRJMPINH</tspan></text></g><g transform="translate(381)"><text y="6"><tspan>CORSWAPINH</tspan></text></g><g transform="translate(254)"><text y="6"><tspan>RETINH</tspan></text></g><g transform="translate(127)"><text y="6"><tspan>INDLJMPINH</tspan></text></g><g transform="translate(0)"><text y="6"><tspan>DIRLJMPINH</tspan></text></g></g><g transform="translate(63,39)"/></g></g><g transform="translate(4,77)"><g stroke="black" stroke-width="1" stroke-linecap="round"><line x2="1015"/><line y2="31"/><line x2="1015" y1="31" y2="31"/><line x1="1015" x2="1015" y2="31"/><line x1="888" x2="888" y2="3"/><line x1="888" x2="888" y1="31" y2="28"/><line x1="761" x2="761" y2="3"/><line x1="761" x2="761" y1="31" y2="28"/><line x1="634" x2="634" y2="3"/><line x1="634" x2="634" y1="31" y2="28"/><line x1="508" x2="508" y2="3"/><line x1="508" x2="508" y1="31" y2="28"/><line x1="381" x2="381" y2="3"/><line x1="381" x2="381" y1="31" y2="28"/><line x1="254" x2="254" y2="3"/><line x1="254" x2="254" y1="31" y2="28"/><line x1="127" x2="127" y2="3"/><line x1="127" x2="127" y1="31" y2="28"/></g><g><g/><g transform="translate(63,-11)"><g transform="translate(888)"><text y="6">48</text></g><g transform="translate(0)"><text y="6">55</text></g></g><g transform="translate(63,15)"><g transform="translate(444)"><text y="6"><tspan font-style="italic">WPRI</tspan></text></g></g><g transform="translate(63,39)"/></g></g><g transform="translate(4,21)"><g stroke="black" stroke-width="1" stroke-linecap="round"><line x2="1015"/><line y2="31"/><line x2="1015" y1="31" y2="31"/><line x1="1015" x2="1015" y2="31"/><line x1="888" x2="888" y2="3"/><line x1="888" x2="888" y1="31" y2="28"/><line x1="761" x2="761" y2="3"/><line x1="761" x2="761" y1="31" y2="28"/><line x1="634" x2="634" y2="3"/><line x1="634" x2="634" y1="31" y2="28"/><line x1="508" x2="508" y2="31"/><line x1="381" x2="381" y2="3"/><line x1="381" x2="381" y1="31" y2="28"/><line x1="254" x2="254" y2="3"/><line x1="254" x2="254" y1="31" y2="28"/><line x1="127" x2="127" y2="3"/><line x1="127" x2="127" y1="31" y2="28"/></g><g><g/><g transform="translate(63,-11)"><g transform="translate(888)"><text y="6">56</text></g><g transform="translate(508)"><text y="6">59</text></g><g transform="translate(381)"><text y="6">60</text></g><g transform="translate(0)"><text y="6">63</text></g></g><g transform="translate(63,15)"><g transform="translate(698)"><text y="6"><tspan font-style="italic">WPRI</tspan></text></g><g transform="translate(190)"><text y="6"><tspan>Custom</tspan></text></g></g><g transform="translate(63,39)"/></g></g></g></svg>
