<svg xmlns="http://www.w3.org/2000/svg" width="1024" height="112" viewBox="0 0 1024 112" class="WaveDrom"><g transform="translate(0.5,0.5)" text-anchor="middle" font-size="14" font-family="sans-serif" font-weight="normal"><g transform="translate(4,77)"><g stroke="black" stroke-width="1" stroke-linecap="round"><line x2="1015"/><line y2="31"/><line x2="1015" y1="31" y2="31"/><line x1="1015" x2="1015" y2="31"/><line x1="952" x2="952" y2="31"/><line x1="888" x2="888" y2="31"/><line x1="825" x2="825" y2="31"/><line x1="761" x2="761" y2="31"/><line x1="698" x2="698" y2="3"/><line x1="698" x2="698" y1="31" y2="28"/><line x1="634" x2="634" y2="31"/><line x1="571" x2="571" y2="31"/><line x1="508" x2="508" y2="31"/><line x1="444" x2="444" y2="3"/><line x1="444" x2="444" y1="31" y2="28"/><line x1="381" x2="381" y2="3"/><line x1="381" x2="381" y1="31" y2="28"/><line x1="317" x2="317" y2="3"/><line x1="317" x2="317" y1="31" y2="28"/><line x1="254" x2="254" y2="3"/><line x1="254" x2="254" y1="31" y2="28"/><line x1="190" x2="190" y2="3"/><line x1="190" x2="190" y1="31" y2="28"/><line x1="127" x2="127" y2="3"/><line x1="127" x2="127" y1="31" y2="28"/><line x1="63" x2="63" y2="3"/><line x1="63" x2="63" y1="31" y2="28"/></g><g><g/><g transform="translate(32,-11)"><g transform="translate(952)"><text y="6">0</text></g><g transform="translate(888)"><text y="6">1</text></g><g transform="translate(825)"><text y="6">2</text></g><g transform="translate(761)"><text y="6">3</text></g><g transform="translate(698)"><text y="6">4</text></g><g transform="translate(634)"><text y="6">5</text></g><g transform="translate(571)"><text y="6">6</text></g><g transform="translate(508)"><text y="6">7</text></g><g transform="translate(444)"><text y="6">8</text></g><g transform="translate(0)"><text y="6">15</text></g></g><g transform="translate(32,15)"><g transform="translate(952)"><text y="6"><tspan>FIOM</tspan></text></g><g transform="translate(888)"><text y="6"><tspan>WPRI</tspan></text></g><g transform="translate(825)"><text y="6"><tspan>LPE</tspan></text></g><g transform="translate(761)"><text y="6"><tspan>SSE</tspan></text></g><g transform="translate(666)"><text y="6"><tspan>CBIE</tspan></text></g><g transform="translate(571)"><text y="6"><tspan>CBCFE</tspan></text></g><g transform="translate(508)"><text y="6"><tspan>CBZE</tspan></text></g><g transform="translate(222)"><text y="6"><tspan>WPRI</tspan></text></g></g><g transform="translate(32,39)"/></g></g><g transform="translate(4,21)"><g stroke="black" stroke-width="1" stroke-linecap="round"><line x2="1015"/><line y2="31"/><line x2="1015" y1="31" y2="31"/><line x1="1015" x2="1015" y2="31"/><line x1="952" x2="952" y2="3"/><line x1="952" x2="952" y1="31" y2="28"/><line x1="888" x2="888" y2="3"/><line x1="888" x2="888" y1="31" y2="28"/><line x1="825" x2="825" y2="3"/><line x1="825" x2="825" y1="31" y2="28"/><line x1="761" x2="761" y2="3"/><line x1="761" x2="761" y1="31" y2="28"/><line x1="698" x2="698" y2="3"/><line x1="698" x2="698" y1="31" y2="28"/><line x1="634" x2="634" y2="3"/><line x1="634" x2="634" y1="31" y2="28"/><line x1="571" x2="571" y2="3"/><line x1="571" x2="571" y1="31" y2="28"/><line x1="508" x2="508" y2="3"/><line x1="508" x2="508" y1="31" y2="28"/><line x1="444" x2="444" y2="3"/><line x1="444" x2="444" y1="31" y2="28"/><line x1="381" x2="381" y2="3"/><line x1="381" x2="381" y1="31" y2="28"/><line x1="317" x2="317" y2="3"/><line x1="317" x2="317" y1="31" y2="28"/><line x1="254" x2="254" y2="3"/><line x1="254" x2="254" y1="31" y2="28"/><line x1="190" x2="190" y2="3"/><line x1="190" x2="190" y1="31" y2="28"/><line x1="127" x2="127" y2="3"/><line x1="127" x2="127" y1="31" y2="28"/><line x1="63" x2="63" y2="3"/><line x1="63" x2="63" y1="31" y2="28"/></g><g><g/><g transform="translate(32,-11)"><g transform="translate(952)"><text y="6">16</text></g><g transform="translate(0)"><text y="6">31</text></g></g><g transform="translate(32,15)"><g transform="translate(476)"><text y="6"><tspan>WPRI</tspan></text></g></g><g transform="translate(32,39)"/></g></g></g></svg>
