<?xml version="1.0" encoding="UTF-8"?><svg xmlns:svg="http://www.w3.org/2000/svg" xmlns="http://www.w3.org/2000/svg" xmlns:xlink="http://www.w3.org/1999/xlink" version="1.0" width="1340" height="122" viewBox="0 0 1340 122" ><text font-size="24" font-family="M+ 1p Fallback" x="34" y="22" text-anchor="start" dominant-baseline="middle" >33</text><text font-size="24" font-family="M+ 1p Fallback" x="426" y="22" text-anchor="end" dominant-baseline="middle" >22</text><text font-size="24" font-family="M+ 1p Fallback" x="434" y="22" text-anchor="start" dominant-baseline="middle" >21</text><text font-size="24" font-family="M+ 1p Fallback" x="826" y="22" text-anchor="end" dominant-baseline="middle" >12</text><text font-size="24" font-family="M+ 1p Fallback" x="834" y="22" text-anchor="start" dominant-baseline="middle" >11</text><text font-size="24" font-family="M+ 1p Fallback" x="1306" y="22" text-anchor="end" dominant-baseline="middle" >0</text><line x1="30" y1="41" x2="430" y2="41" stroke="#000000" stroke-width="1" /><line x1="30" y1="81" x2="430" y2="81" stroke="#000000" stroke-width="1" /><line x1="430" y1="41" x2="430" y2="81" stroke="#000000" stroke-width="1" /><line x1="30" y1="41" x2="30" y2="81" stroke="#000000" stroke-width="1" /><text font-size="24" font-family="M+ 1p Fallback" x="230" y="62" text-anchor="middle" dominant-baseline="middle" >PPN[1]</text><line x1="430" y1="41" x2="830" y2="41" stroke="#000000" stroke-width="1" /><line x1="430" y1="81" x2="830" y2="81" stroke="#000000" stroke-width="1" /><line x1="830" y1="41" x2="830" y2="81" stroke="#000000" stroke-width="1" /><line x1="430" y1="41" x2="430" y2="81" stroke="#000000" stroke-width="1" /><text font-size="24" font-family="M+ 1p Fallback" x="630" y="62" text-anchor="middle" dominant-baseline="middle" >PPN[0]</text><line x1="830" y1="41" x2="1310" y2="41" stroke="#000000" stroke-width="1" /><line x1="830" y1="81" x2="1310" y2="81" stroke="#000000" stroke-width="1" /><line x1="1310" y1="41" x2="1310" y2="81" stroke="#000000" stroke-width="1" /><line x1="830" y1="41" x2="830" y2="81" stroke="#000000" stroke-width="1" /><text font-size="24" font-family="M+ 1p Fallback" x="1070" y="62" text-anchor="middle" dominant-baseline="middle" >page offset</text><text font-size="24" font-family="M+ 1p Fallback" x="230" y="102" text-anchor="middle" dominant-baseline="middle" >12</text><text font-size="24" font-family="M+ 1p Fallback" x="630" y="102" text-anchor="middle" dominant-baseline="middle" >10</text><text font-size="24" font-family="M+ 1p Fallback" x="1070" y="102" text-anchor="middle" dominant-baseline="middle" >12</text></svg>