<svg xmlns="http://www.w3.org/2000/svg" width="1024" height="84" viewBox="0 0 1024 84" class="WaveDrom"><g transform="translate(0.5,0.5)" text-anchor="middle" font-size="14" font-family="sans-serif" font-weight="normal"><g transform="translate(4,21)"><g stroke="black" stroke-width="1" stroke-linecap="round"><line x2="1015"/><line y2="31"/><line x2="1015" y1="31" y2="31"/><line x1="1015" x2="1015" y2="31"/><line x1="983" x2="983" y2="3"/><line x1="983" x2="983" y1="31" y2="28"/><line x1="952" x2="952" y2="3"/><line x1="952" x2="952" y1="31" y2="28"/><line x1="920" x2="920" y2="3"/><line x1="920" x2="920" y1="31" y2="28"/><line x1="888" x2="888" y2="3"/><line x1="888" x2="888" y1="31" y2="28"/><line x1="856" x2="856" y2="3"/><line x1="856" x2="856" y1="31" y2="28"/><line x1="825" x2="825" y2="3"/><line x1="825" x2="825" y1="31" y2="28"/><line x1="793" x2="793" y2="31"/><line x1="761" x2="761" y2="3"/><line x1="761" x2="761" y1="31" y2="28"/><line x1="730" x2="730" y2="3"/><line x1="730" x2="730" y1="31" y2="28"/><line x1="698" x2="698" y2="3"/><line x1="698" x2="698" y1="31" y2="28"/><line x1="666" x2="666" y2="3"/><line x1="666" x2="666" y1="31" y2="28"/><line x1="634" x2="634" y2="31"/><line x1="603" x2="603" y2="3"/><line x1="603" x2="603" y1="31" y2="28"/><line x1="571" x2="571" y2="3"/><line x1="571" x2="571" y1="31" y2="28"/><line x1="539" x2="539" y2="31"/><line x1="508" x2="508" y2="3"/><line x1="508" x2="508" y1="31" y2="28"/><line x1="476" x2="476" y2="3"/><line x1="476" x2="476" y1="31" y2="28"/><line x1="444" x2="444" y2="3"/><line x1="444" x2="444" y1="31" y2="28"/><line x1="412" x2="412" y2="3"/><line x1="412" x2="412" y1="31" y2="28"/><line x1="381" x2="381" y2="31"/><line x1="349" x2="349" y2="3"/><line x1="349" x2="349" y1="31" y2="28"/><line x1="317" x2="317" y2="3"/><line x1="317" x2="317" y1="31" y2="28"/><line x1="285" x2="285" y2="3"/><line x1="285" x2="285" y1="31" y2="28"/><line x1="254" x2="254" y2="3"/><line x1="254" x2="254" y1="31" y2="28"/><line x1="222" x2="222" y2="31"/><line x1="190" x2="190" y2="31"/><line x1="159" x2="159" y2="31"/><line x1="127" x2="127" y2="3"/><line x1="127" x2="127" y1="31" y2="28"/><line x1="95" x2="95" y2="3"/><line x1="95" x2="95" y1="31" y2="28"/><line x1="63" x2="63" y2="3"/><line x1="63" x2="63" y1="31" y2="28"/><line x1="32" x2="32" y2="3"/><line x1="32" x2="32" y1="31" y2="28"/></g><g><g/><g transform="translate(16,-11)"><g transform="translate(983)"><text y="6">0</text></g><g transform="translate(793)"><text y="6">6</text></g><g transform="translate(761)"><text y="6">7</text></g><g transform="translate(634)"><text y="6">11</text></g><g transform="translate(603)"><text y="6">12</text></g><g transform="translate(539)"><text y="6">14</text></g><g transform="translate(508)"><text y="6">15</text></g><g transform="translate(381)"><text y="6">19</text></g><g transform="translate(349)"><text y="6">20</text></g><g transform="translate(222)"><text y="6">24</text></g><g transform="translate(190)"><text y="6">25</text></g><g transform="translate(159)"><text y="6">26</text></g><g transform="translate(127)"><text y="6">27</text></g><g transform="translate(0)"><text y="6">31</text></g></g><g transform="translate(16,15)"><g transform="translate(888)"><text y="6"><tspan>opcode</tspan></text></g><g transform="translate(698)"><text y="6"><tspan>rd</tspan></text></g><g transform="translate(571)"><text y="6"><tspan>funct3</tspan></text></g><g transform="translate(444)"><text y="6"><tspan>rs1</tspan></text></g><g transform="translate(285)"><text y="6"><tspan>rs2</tspan></text></g><g transform="translate(190)"><text y="6"><tspan>rl</tspan></text></g><g transform="translate(159)"><text y="6"><tspan>aq</tspan></text></g><g transform="translate(63)"><text y="6"><tspan>01001</tspan></text></g></g><g transform="translate(16,39)"><g transform="translate(888)"><text y="6"><tspan>AMO</tspan></text></g><g transform="translate(698)"><text y="6"><tspan>dest</tspan></text></g><g><g transform="translate(571)"><text y="6"><tspan>010</tspan></text></g><g transform="translate(571,14)"><text y="6"><tspan>011</tspan></text></g></g><g transform="translate(444)"><text y="6"><tspan>addr</tspan></text></g><g transform="translate(285)"><text y="6"><tspan>src</tspan></text></g><g><g transform="translate(63)"><text y="6"><tspan>SSAMOSWAP.W</tspan></text></g><g transform="translate(63,14)"><text y="6"><tspan>SSAMOSWAP.D</tspan></text></g></g></g></g></g></g></svg>
