<?xml version="1.0" encoding="UTF-8"?><svg xmlns:svg="http://www.w3.org/2000/svg" xmlns="http://www.w3.org/2000/svg" xmlns:xlink="http://www.w3.org/1999/xlink" version="1.0" width="1340" height="122" viewBox="0 0 1340 122" ><text font-size="24" font-family="M+ 1p Fallback" x="34" y="22" text-anchor="start" dominant-baseline="middle" >55</text><text font-size="24" font-family="M+ 1p Fallback" x="346" y="22" text-anchor="end" dominant-baseline="middle" >39</text><text font-size="24" font-family="M+ 1p Fallback" x="354" y="22" text-anchor="start" dominant-baseline="middle" >38</text><text font-size="24" font-family="M+ 1p Fallback" x="586" y="22" text-anchor="end" dominant-baseline="middle" >30</text><text font-size="24" font-family="M+ 1p Fallback" x="594" y="22" text-anchor="start" dominant-baseline="middle" >29</text><text font-size="24" font-family="M+ 1p Fallback" x="826" y="22" text-anchor="end" dominant-baseline="middle" >21</text><text font-size="24" font-family="M+ 1p Fallback" x="834" y="22" text-anchor="start" dominant-baseline="middle" >20</text><text font-size="24" font-family="M+ 1p Fallback" x="1066" y="22" text-anchor="end" dominant-baseline="middle" >12</text><text font-size="24" font-family="M+ 1p Fallback" x="1074" y="22" text-anchor="start" dominant-baseline="middle" >11</text><text font-size="24" font-family="M+ 1p Fallback" x="1306" y="22" text-anchor="end" dominant-baseline="middle" >0</text><line x1="30" y1="41" x2="350" y2="41" stroke="#000000" stroke-width="1" /><line x1="30" y1="81" x2="350" y2="81" stroke="#000000" stroke-width="1" /><line x1="350" y1="41" x2="350" y2="81" stroke="#000000" stroke-width="1" /><line x1="30" y1="41" x2="30" y2="81" stroke="#000000" stroke-width="1" /><text font-size="24" font-family="M+ 1p Fallback" x="190" y="62" text-anchor="middle" dominant-baseline="middle" >PPN[3]</text><line x1="350" y1="41" x2="590" y2="41" stroke="#000000" stroke-width="1" /><line x1="350" y1="81" x2="590" y2="81" stroke="#000000" stroke-width="1" /><line x1="590" y1="41" x2="590" y2="81" stroke="#000000" stroke-width="1" /><line x1="350" y1="41" x2="350" y2="81" stroke="#000000" stroke-width="1" /><text font-size="24" font-family="M+ 1p Fallback" x="470" y="62" text-anchor="middle" dominant-baseline="middle" >PPN[2]</text><line x1="590" y1="41" x2="830" y2="41" stroke="#000000" stroke-width="1" /><line x1="590" y1="81" x2="830" y2="81" stroke="#000000" stroke-width="1" /><line x1="830" y1="41" x2="830" y2="81" stroke="#000000" stroke-width="1" /><line x1="590" y1="41" x2="590" y2="81" stroke="#000000" stroke-width="1" /><text font-size="24" font-family="M+ 1p Fallback" x="710" y="62" text-anchor="middle" dominant-baseline="middle" >PPN[1]</text><line x1="830" y1="41" x2="1070" y2="41" stroke="#000000" stroke-width="1" /><line x1="830" y1="81" x2="1070" y2="81" stroke="#000000" stroke-width="1" /><line x1="1070" y1="41" x2="1070" y2="81" stroke="#000000" stroke-width="1" /><line x1="830" y1="41" x2="830" y2="81" stroke="#000000" stroke-width="1" /><text font-size="24" font-family="M+ 1p Fallback" x="950" y="62" text-anchor="middle" dominant-baseline="middle" >PPN[0]</text><line x1="1070" y1="41" x2="1310" y2="41" stroke="#000000" stroke-width="1" /><line x1="1070" y1="81" x2="1310" y2="81" stroke="#000000" stroke-width="1" /><line x1="1310" y1="41" x2="1310" y2="81" stroke="#000000" stroke-width="1" /><line x1="1070" y1="41" x2="1070" y2="81" stroke="#000000" stroke-width="1" /><text font-size="24" font-family="M+ 1p Fallback" x="1190" y="62" text-anchor="middle" dominant-baseline="middle" >page offset</text><text font-size="24" font-family="M+ 1p Fallback" x="190" y="102" text-anchor="middle" dominant-baseline="middle" >17</text><text font-size="24" font-family="M+ 1p Fallback" x="470" y="102" text-anchor="middle" dominant-baseline="middle" >9</text><text font-size="24" font-family="M+ 1p Fallback" x="710" y="102" text-anchor="middle" dominant-baseline="middle" >9</text><text font-size="24" font-family="M+ 1p Fallback" x="950" y="102" text-anchor="middle" dominant-baseline="middle" >9</text><text font-size="24" font-family="M+ 1p Fallback" x="1190" y="102" text-anchor="middle" dominant-baseline="middle" >12</text></svg>