<?xml version="1.0" encoding="UTF-8"?><svg xmlns:svg="http://www.w3.org/2000/svg" xmlns="http://www.w3.org/2000/svg" xmlns:xlink="http://www.w3.org/1999/xlink" version="1.0" width="960" height="401" viewBox="0 0 960 401" ><text x="20" y="8" font-family="Courier New, monospace" font-size="11" dominant-baseline="middle" text-anchor="middle" >15</text><text x="60" y="8" font-family="Courier New, monospace" font-size="11" dominant-baseline="middle" text-anchor="middle" >14</text><text x="100" y="8" font-family="Courier New, monospace" font-size="11" dominant-baseline="middle" text-anchor="middle" >13</text><text x="140" y="8" font-family="Courier New, monospace" font-size="11" dominant-baseline="middle" text-anchor="middle" >12</text><text x="180" y="8" font-family="Courier New, monospace" font-size="11" dominant-baseline="middle" text-anchor="middle" >11</text><text x="220" y="8" font-family="Courier New, monospace" font-size="11" dominant-baseline="middle" text-anchor="middle" >10</text><text x="260" y="8" font-family="Courier New, monospace" font-size="11" dominant-baseline="middle" text-anchor="middle" >9</text><text x="300" y="8" font-family="Courier New, monospace" font-size="11" dominant-baseline="middle" text-anchor="middle" >8</text><text x="340" y="8" font-family="Courier New, monospace" font-size="11" dominant-baseline="middle" text-anchor="middle" >7</text><text x="380" y="8" font-family="Courier New, monospace" font-size="11" dominant-baseline="middle" text-anchor="middle" >6</text><text x="420" y="8" font-family="Courier New, monospace" font-size="11" dominant-baseline="middle" text-anchor="middle" >5</text><text x="460" y="8" font-family="Courier New, monospace" font-size="11" dominant-baseline="middle" text-anchor="middle" >4</text><text x="500" y="8" font-family="Courier New, monospace" font-size="11" dominant-baseline="middle" text-anchor="middle" >3</text><text x="540" y="8" font-family="Courier New, monospace" font-size="11" dominant-baseline="middle" text-anchor="middle" >2</text><text x="580" y="8" font-family="Courier New, monospace" font-size="11" dominant-baseline="middle" text-anchor="middle" >1</text><text x="620" y="8" font-family="Courier New, monospace" font-size="11" dominant-baseline="middle" text-anchor="middle" >0</text><text x="660" y="8" font-family="Courier New, monospace" font-size="11" dominant-baseline="middle" text-anchor="middle" ></text><text x="700" y="8" font-family="Courier New, monospace" font-size="11" dominant-baseline="middle" text-anchor="middle" ></text><text x="740" y="8" font-family="Courier New, monospace" font-size="11" dominant-baseline="middle" text-anchor="middle" ></text><text x="780" y="8" font-family="Courier New, monospace" font-size="11" dominant-baseline="middle" text-anchor="middle" ></text><text x="820" y="8" font-family="Courier New, monospace" font-size="11" dominant-baseline="middle" text-anchor="middle" ></text><text x="860" y="8" font-family="Courier New, monospace" font-size="11" dominant-baseline="middle" text-anchor="middle" ></text><text x="900" y="8" font-family="Courier New, monospace" font-size="11" dominant-baseline="middle" text-anchor="middle" ></text><line x1="0" y1="15" x2="120" y2="15" stroke="#000000" stroke-width="1" /><line x1="0" y1="50" x2="120" y2="50" stroke="#000000" stroke-width="1" /><line x1="120" y1="15" x2="120" y2="50" stroke="#000000" stroke-width="1" /><line x1="0" y1="15" x2="0" y2="50" stroke="#000000" stroke-width="1" /><text font-size="18" font-family="M+ 1p Fallback" x="60" y="33.5" text-anchor="middle" dominant-baseline="middle" >000</text><line x1="120" y1="15" x2="440" y2="15" stroke="#000000" stroke-width="1" /><line x1="120" y1="50" x2="440" y2="50" stroke="#000000" stroke-width="1" /><line x1="440" y1="15" x2="440" y2="50" stroke="#000000" stroke-width="1" /><line x1="120" y1="15" x2="120" y2="50" stroke="#000000" stroke-width="1" /><text font-size="18" font-family="M+ 1p Fallback" x="280" y="33.5" text-anchor="middle" dominant-baseline="middle" >0</text><line x1="440" y1="15" x2="560" y2="15" stroke="#000000" stroke-width="1" /><line x1="440" y1="50" x2="560" y2="50" stroke="#000000" stroke-width="1" /><line x1="560" y1="15" x2="560" y2="50" stroke="#000000" stroke-width="1" /><line x1="440" y1="15" x2="440" y2="50" stroke="#000000" stroke-width="1" /><text font-size="18" font-family="M+ 1p Fallback" x="500" y="33.5" text-anchor="middle" dominant-baseline="middle" >0</text><line x1="560" y1="15" x2="640" y2="15" stroke="#000000" stroke-width="1" /><line x1="560" y1="50" x2="640" y2="50" stroke="#000000" stroke-width="1" /><line x1="640" y1="15" x2="640" y2="50" stroke="#000000" stroke-width="1" /><line x1="560" y1="15" x2="560" y2="50" stroke="#000000" stroke-width="1" /><text font-size="18" font-family="M+ 1p Fallback" x="600" y="33.5" text-anchor="middle" dominant-baseline="middle" >00</text><text font-style="italic" x="644" y="33.5" text-anchor="start" dominant-baseline="middle" >Illegal instruction</text><line x1="0" y1="50" x2="120" y2="50" stroke="#000000" stroke-width="1" /><line x1="0" y1="85" x2="120" y2="85" stroke="#000000" stroke-width="1" /><line x1="120" y1="50" x2="120" y2="85" stroke="#000000" stroke-width="1" /><line x1="0" y1="50" x2="0" y2="85" stroke="#000000" stroke-width="1" /><text font-size="18" font-family="M+ 1p Fallback" x="60" y="68.5" text-anchor="middle" dominant-baseline="middle" >000</text><line x1="120" y1="50" x2="440" y2="50" stroke="#000000" stroke-width="1" /><line x1="120" y1="85" x2="440" y2="85" stroke="#000000" stroke-width="1" /><line x1="440" y1="50" x2="440" y2="85" stroke="#000000" stroke-width="1" /><line x1="120" y1="50" x2="120" y2="85" stroke="#000000" stroke-width="1" /><text font-size="18" font-family="M+ 1p Fallback" x="280" y="68.5" text-anchor="middle" dominant-baseline="middle" >uimm[5:4|9:6|2|3]</text><line x1="440" y1="50" x2="560" y2="50" stroke="#000000" stroke-width="1" /><line x1="440" y1="85" x2="560" y2="85" stroke="#000000" stroke-width="1" /><line x1="560" y1="50" x2="560" y2="85" stroke="#000000" stroke-width="1" /><line x1="440" y1="50" x2="440" y2="85" stroke="#000000" stroke-width="1" /><text font-size="18" font-family="M+ 1p Fallback" x="500" y="68.5" text-anchor="middle" dominant-baseline="middle" >rd′</text><line x1="560" y1="50" x2="640" y2="50" stroke="#000000" stroke-width="1" /><line x1="560" y1="85" x2="640" y2="85" stroke="#000000" stroke-width="1" /><line x1="640" y1="50" x2="640" y2="85" stroke="#000000" stroke-width="1" /><line x1="560" y1="50" x2="560" y2="85" stroke="#000000" stroke-width="1" /><text font-size="18" font-family="M+ 1p Fallback" x="600" y="68.5" text-anchor="middle" dominant-baseline="middle" >00</text><text font-size="18" font-family="Palatino, Georgia, Times New Roman, serif" font-style="italic" x="644" y="68.5" text-anchor="start" dominant-baseline="middle" >C.ADDI4SPN<tspan font-size="70%" dy="0.5ex" dominant-baseline="middle" >(RES, uimm=0)</tspan></text><line x1="0" y1="85" x2="120" y2="85" stroke="#000000" stroke-width="1" /><line x1="0" y1="120" x2="120" y2="120" stroke="#000000" stroke-width="1" /><line x1="120" y1="85" x2="120" y2="120" stroke="#000000" stroke-width="1" /><line x1="0" y1="85" x2="0" y2="120" stroke="#000000" stroke-width="1" /><text font-size="18" font-family="M+ 1p Fallback" x="60" y="103.5" text-anchor="middle" dominant-baseline="middle" >001</text><line x1="120" y1="85" x2="240" y2="85" stroke="#000000" stroke-width="1" /><line x1="120" y1="120" x2="240" y2="120" stroke="#000000" stroke-width="1" /><line x1="240" y1="85" x2="240" y2="120" stroke="#000000" stroke-width="1" /><line x1="120" y1="85" x2="120" y2="120" stroke="#000000" stroke-width="1" /><text font-size="18" font-family="M+ 1p Fallback" x="180" y="103.5" text-anchor="middle" dominant-baseline="middle" >uimm[5:3]</text><line x1="240" y1="85" x2="360" y2="85" stroke="#000000" stroke-width="1" /><line x1="240" y1="120" x2="360" y2="120" stroke="#000000" stroke-width="1" /><line x1="360" y1="85" x2="360" y2="120" stroke="#000000" stroke-width="1" /><line x1="240" y1="85" x2="240" y2="120" stroke="#000000" stroke-width="1" /><text font-size="18" font-family="M+ 1p Fallback" x="300" y="103.5" text-anchor="middle" dominant-baseline="middle" >rs1′</text><line x1="360" y1="85" x2="440" y2="85" stroke="#000000" stroke-width="1" /><line x1="360" y1="120" x2="440" y2="120" stroke="#000000" stroke-width="1" /><line x1="440" y1="85" x2="440" y2="120" stroke="#000000" stroke-width="1" /><line x1="360" y1="85" x2="360" y2="120" stroke="#000000" stroke-width="1" /><text font-size="16" x="400" y="103.5" text-anchor="middle" dominant-baseline="middle" >uimm[7:6]</text><line x1="440" y1="85" x2="560" y2="85" stroke="#000000" stroke-width="1" /><line x1="440" y1="120" x2="560" y2="120" stroke="#000000" stroke-width="1" /><line x1="560" y1="85" x2="560" y2="120" stroke="#000000" stroke-width="1" /><line x1="440" y1="85" x2="440" y2="120" stroke="#000000" stroke-width="1" /><text font-size="18" font-family="M+ 1p Fallback" x="500" y="103.5" text-anchor="middle" dominant-baseline="middle" >rd′</text><line x1="560" y1="85" x2="640" y2="85" stroke="#000000" stroke-width="1" /><line x1="560" y1="120" x2="640" y2="120" stroke="#000000" stroke-width="1" /><line x1="640" y1="85" x2="640" y2="120" stroke="#000000" stroke-width="1" /><line x1="560" y1="85" x2="560" y2="120" stroke="#000000" stroke-width="1" /><text font-size="18" font-family="M+ 1p Fallback" x="600" y="103.5" text-anchor="middle" dominant-baseline="middle" >00</text><text font-size="18" font-family="M+ 1p Fallback" x="644" y="103.5" text-anchor="start" dominant-baseline="middle" >C.FLD</text><line x1="0" y1="120" x2="120" y2="120" stroke="#000000" stroke-width="1" /><line x1="0" y1="155" x2="120" y2="155" stroke="#000000" stroke-width="1" /><line x1="120" y1="120" x2="120" y2="155" stroke="#000000" stroke-width="1" /><line x1="0" y1="120" x2="0" y2="155" stroke="#000000" stroke-width="1" /><text font-size="18" font-family="M+ 1p Fallback" x="60" y="138.5" text-anchor="middle" dominant-baseline="middle" >010</text><line x1="120" y1="120" x2="240" y2="120" stroke="#000000" stroke-width="1" /><line x1="120" y1="155" x2="240" y2="155" stroke="#000000" stroke-width="1" /><line x1="240" y1="120" x2="240" y2="155" stroke="#000000" stroke-width="1" /><line x1="120" y1="120" x2="120" y2="155" stroke="#000000" stroke-width="1" /><text font-size="18" font-family="M+ 1p Fallback" x="180" y="138.5" text-anchor="middle" dominant-baseline="middle" >uimm[5:3]</text><line x1="240" y1="120" x2="360" y2="120" stroke="#000000" stroke-width="1" /><line x1="240" y1="155" x2="360" y2="155" stroke="#000000" stroke-width="1" /><line x1="360" y1="120" x2="360" y2="155" stroke="#000000" stroke-width="1" /><line x1="240" y1="120" x2="240" y2="155" stroke="#000000" stroke-width="1" /><text font-size="18" font-family="M+ 1p Fallback" x="300" y="138.5" text-anchor="middle" dominant-baseline="middle" >rs1′</text><line x1="360" y1="120" x2="440" y2="120" stroke="#000000" stroke-width="1" /><line x1="360" y1="155" x2="440" y2="155" stroke="#000000" stroke-width="1" /><line x1="440" y1="120" x2="440" y2="155" stroke="#000000" stroke-width="1" /><line x1="360" y1="120" x2="360" y2="155" stroke="#000000" stroke-width="1" /><text font-size="16" x="400" y="138.5" text-anchor="middle" dominant-baseline="middle" >uimm[2|6]</text><line x1="440" y1="120" x2="560" y2="120" stroke="#000000" stroke-width="1" /><line x1="440" y1="155" x2="560" y2="155" stroke="#000000" stroke-width="1" /><line x1="560" y1="120" x2="560" y2="155" stroke="#000000" stroke-width="1" /><line x1="440" y1="120" x2="440" y2="155" stroke="#000000" stroke-width="1" /><text font-size="18" font-family="M+ 1p Fallback" x="500" y="138.5" text-anchor="middle" dominant-baseline="middle" >rd′</text><line x1="560" y1="120" x2="640" y2="120" stroke="#000000" stroke-width="1" /><line x1="560" y1="155" x2="640" y2="155" stroke="#000000" stroke-width="1" /><line x1="640" y1="120" x2="640" y2="155" stroke="#000000" stroke-width="1" /><line x1="560" y1="120" x2="560" y2="155" stroke="#000000" stroke-width="1" /><text font-size="18" font-family="M+ 1p Fallback" x="600" y="138.5" text-anchor="middle" dominant-baseline="middle" >00</text><text font-size="18" font-family="M+ 1p Fallback" x="644" y="138.5" text-anchor="start" dominant-baseline="middle" >C.LW</text><line x1="0" y1="155" x2="120" y2="155" stroke="#000000" stroke-width="1" /><line x1="0" y1="190" x2="120" y2="190" stroke="#000000" stroke-width="1" /><line x1="120" y1="155" x2="120" y2="190" stroke="#000000" stroke-width="1" /><line x1="0" y1="155" x2="0" y2="190" stroke="#000000" stroke-width="1" /><text font-size="18" font-family="M+ 1p Fallback" x="60" y="173.5" text-anchor="middle" dominant-baseline="middle" >011</text><line x1="120" y1="155" x2="240" y2="155" stroke="#000000" stroke-width="1" /><line x1="120" y1="190" x2="240" y2="190" stroke="#000000" stroke-width="1" /><line x1="240" y1="155" x2="240" y2="190" stroke="#000000" stroke-width="1" /><line x1="120" y1="155" x2="120" y2="190" stroke="#000000" stroke-width="1" /><text font-size="18" font-family="M+ 1p Fallback" x="180" y="173.5" text-anchor="middle" dominant-baseline="middle" >uimm[5:3]</text><line x1="240" y1="155" x2="360" y2="155" stroke="#000000" stroke-width="1" /><line x1="240" y1="190" x2="360" y2="190" stroke="#000000" stroke-width="1" /><line x1="360" y1="155" x2="360" y2="190" stroke="#000000" stroke-width="1" /><line x1="240" y1="155" x2="240" y2="190" stroke="#000000" stroke-width="1" /><text font-size="18" font-family="M+ 1p Fallback" x="300" y="173.5" text-anchor="middle" dominant-baseline="middle" >rs1′</text><line x1="360" y1="155" x2="440" y2="155" stroke="#000000" stroke-width="1" /><line x1="360" y1="190" x2="440" y2="190" stroke="#000000" stroke-width="1" /><line x1="440" y1="155" x2="440" y2="190" stroke="#000000" stroke-width="1" /><line x1="360" y1="155" x2="360" y2="190" stroke="#000000" stroke-width="1" /><text font-size="16" x="400" y="173.5" text-anchor="middle" dominant-baseline="middle" >uimm[2|6]</text><line x1="440" y1="155" x2="560" y2="155" stroke="#000000" stroke-width="1" /><line x1="440" y1="190" x2="560" y2="190" stroke="#000000" stroke-width="1" /><line x1="560" y1="155" x2="560" y2="190" stroke="#000000" stroke-width="1" /><line x1="440" y1="155" x2="440" y2="190" stroke="#000000" stroke-width="1" /><text font-size="18" font-family="M+ 1p Fallback" x="500" y="173.5" text-anchor="middle" dominant-baseline="middle" >rd′</text><line x1="560" y1="155" x2="640" y2="155" stroke="#000000" stroke-width="1" /><line x1="560" y1="190" x2="640" y2="190" stroke="#000000" stroke-width="1" /><line x1="640" y1="155" x2="640" y2="190" stroke="#000000" stroke-width="1" /><line x1="560" y1="155" x2="560" y2="190" stroke="#000000" stroke-width="1" /><text font-size="18" font-family="M+ 1p Fallback" x="600" y="173.5" text-anchor="middle" dominant-baseline="middle" >00</text><text font-size="18" font-family="Palatino, Georgia, Times New Roman, serif" font-style="italic" x="644" y="173.5" text-anchor="start" dominant-baseline="middle" >C.FLW<tspan font-size="70%" dy="0.5ex" dominant-baseline="middle" >(RV32)</tspan></text><line x1="0" y1="190" x2="120" y2="190" stroke="#000000" stroke-width="1" /><line x1="0" y1="225" x2="120" y2="225" stroke="#000000" stroke-width="1" /><line x1="120" y1="190" x2="120" y2="225" stroke="#000000" stroke-width="1" /><line x1="0" y1="190" x2="0" y2="225" stroke="#000000" stroke-width="1" /><text font-size="18" font-family="M+ 1p Fallback" x="60" y="208.5" text-anchor="middle" dominant-baseline="middle" >011</text><line x1="120" y1="190" x2="240" y2="190" stroke="#000000" stroke-width="1" /><line x1="120" y1="225" x2="240" y2="225" stroke="#000000" stroke-width="1" /><line x1="240" y1="190" x2="240" y2="225" stroke="#000000" stroke-width="1" /><line x1="120" y1="190" x2="120" y2="225" stroke="#000000" stroke-width="1" /><text font-size="18" font-family="M+ 1p Fallback" x="180" y="208.5" text-anchor="middle" dominant-baseline="middle" >uimm[5:3]</text><line x1="240" y1="190" x2="360" y2="190" stroke="#000000" stroke-width="1" /><line x1="240" y1="225" x2="360" y2="225" stroke="#000000" stroke-width="1" /><line x1="360" y1="190" x2="360" y2="225" stroke="#000000" stroke-width="1" /><line x1="240" y1="190" x2="240" y2="225" stroke="#000000" stroke-width="1" /><text font-size="18" font-family="M+ 1p Fallback" x="300" y="208.5" text-anchor="middle" dominant-baseline="middle" >rs1′</text><line x1="360" y1="190" x2="440" y2="190" stroke="#000000" stroke-width="1" /><line x1="360" y1="225" x2="440" y2="225" stroke="#000000" stroke-width="1" /><line x1="440" y1="190" x2="440" y2="225" stroke="#000000" stroke-width="1" /><line x1="360" y1="190" x2="360" y2="225" stroke="#000000" stroke-width="1" /><text font-size="16" x="400" y="208.5" text-anchor="middle" dominant-baseline="middle" >uimm[7:6]</text><line x1="440" y1="190" x2="560" y2="190" stroke="#000000" stroke-width="1" /><line x1="440" y1="225" x2="560" y2="225" stroke="#000000" stroke-width="1" /><line x1="560" y1="190" x2="560" y2="225" stroke="#000000" stroke-width="1" /><line x1="440" y1="190" x2="440" y2="225" stroke="#000000" stroke-width="1" /><text font-size="18" font-family="M+ 1p Fallback" x="500" y="208.5" text-anchor="middle" dominant-baseline="middle" >rd′</text><line x1="560" y1="190" x2="640" y2="190" stroke="#000000" stroke-width="1" /><line x1="560" y1="225" x2="640" y2="225" stroke="#000000" stroke-width="1" /><line x1="640" y1="190" x2="640" y2="225" stroke="#000000" stroke-width="1" /><line x1="560" y1="190" x2="560" y2="225" stroke="#000000" stroke-width="1" /><text font-size="18" font-family="M+ 1p Fallback" x="600" y="208.5" text-anchor="middle" dominant-baseline="middle" >00</text><text font-size="18" font-family="Palatino, Georgia, Times New Roman, serif" font-style="italic" x="644" y="208.5" text-anchor="start" dominant-baseline="middle" >C.LD<tspan font-size="70%" dy="0.5ex" dominant-baseline="middle" >(RV64)</tspan></text><line x1="0" y1="225" x2="120" y2="225" stroke="#000000" stroke-width="1" /><line x1="0" y1="260" x2="120" y2="260" stroke="#000000" stroke-width="1" /><line x1="120" y1="225" x2="120" y2="260" stroke="#000000" stroke-width="1" /><line x1="0" y1="225" x2="0" y2="260" stroke="#000000" stroke-width="1" /><text font-size="18" font-family="M+ 1p Fallback" x="60" y="243.5" text-anchor="middle" dominant-baseline="middle" >100</text><line x1="120" y1="225" x2="560" y2="225" stroke="#000000" stroke-width="1" /><line x1="120" y1="260" x2="560" y2="260" stroke="#000000" stroke-width="1" /><line x1="560" y1="225" x2="560" y2="260" stroke="#000000" stroke-width="1" /><line x1="120" y1="225" x2="120" y2="260" stroke="#000000" stroke-width="1" /><text font-size="18" font-family="M+ 1p Fallback" x="340" y="243.5" text-anchor="middle" dominant-baseline="middle" >---</text><line x1="560" y1="225" x2="640" y2="225" stroke="#000000" stroke-width="1" /><line x1="560" y1="260" x2="640" y2="260" stroke="#000000" stroke-width="1" /><line x1="640" y1="225" x2="640" y2="260" stroke="#000000" stroke-width="1" /><line x1="560" y1="225" x2="560" y2="260" stroke="#000000" stroke-width="1" /><text font-size="18" font-family="M+ 1p Fallback" x="600" y="243.5" text-anchor="middle" dominant-baseline="middle" >00</text><text font-style="italic" x="644" y="243.5" text-anchor="start" dominant-baseline="middle" >Reserved</text><line x1="0" y1="260" x2="120" y2="260" stroke="#000000" stroke-width="1" /><line x1="0" y1="295" x2="120" y2="295" stroke="#000000" stroke-width="1" /><line x1="120" y1="260" x2="120" y2="295" stroke="#000000" stroke-width="1" /><line x1="0" y1="260" x2="0" y2="295" stroke="#000000" stroke-width="1" /><text font-size="18" font-family="M+ 1p Fallback" x="60" y="278.5" text-anchor="middle" dominant-baseline="middle" >101</text><line x1="120" y1="260" x2="240" y2="260" stroke="#000000" stroke-width="1" /><line x1="120" y1="295" x2="240" y2="295" stroke="#000000" stroke-width="1" /><line x1="240" y1="260" x2="240" y2="295" stroke="#000000" stroke-width="1" /><line x1="120" y1="260" x2="120" y2="295" stroke="#000000" stroke-width="1" /><text font-size="18" font-family="M+ 1p Fallback" x="180" y="278.5" text-anchor="middle" dominant-baseline="middle" >uimm[5:3]</text><line x1="240" y1="260" x2="360" y2="260" stroke="#000000" stroke-width="1" /><line x1="240" y1="295" x2="360" y2="295" stroke="#000000" stroke-width="1" /><line x1="360" y1="260" x2="360" y2="295" stroke="#000000" stroke-width="1" /><line x1="240" y1="260" x2="240" y2="295" stroke="#000000" stroke-width="1" /><text font-size="18" font-family="M+ 1p Fallback" x="300" y="278.5" text-anchor="middle" dominant-baseline="middle" >rs1′</text><line x1="360" y1="260" x2="440" y2="260" stroke="#000000" stroke-width="1" /><line x1="360" y1="295" x2="440" y2="295" stroke="#000000" stroke-width="1" /><line x1="440" y1="260" x2="440" y2="295" stroke="#000000" stroke-width="1" /><line x1="360" y1="260" x2="360" y2="295" stroke="#000000" stroke-width="1" /><text font-size="16" x="400" y="278.5" text-anchor="middle" dominant-baseline="middle" >uimm[7:6]</text><line x1="440" y1="260" x2="560" y2="260" stroke="#000000" stroke-width="1" /><line x1="440" y1="295" x2="560" y2="295" stroke="#000000" stroke-width="1" /><line x1="560" y1="260" x2="560" y2="295" stroke="#000000" stroke-width="1" /><line x1="440" y1="260" x2="440" y2="295" stroke="#000000" stroke-width="1" /><text font-size="18" font-family="M+ 1p Fallback" x="500" y="278.5" text-anchor="middle" dominant-baseline="middle" >rs2′</text><line x1="560" y1="260" x2="640" y2="260" stroke="#000000" stroke-width="1" /><line x1="560" y1="295" x2="640" y2="295" stroke="#000000" stroke-width="1" /><line x1="640" y1="260" x2="640" y2="295" stroke="#000000" stroke-width="1" /><line x1="560" y1="260" x2="560" y2="295" stroke="#000000" stroke-width="1" /><text font-size="18" font-family="M+ 1p Fallback" x="600" y="278.5" text-anchor="middle" dominant-baseline="middle" >00</text><text font-size="18" font-family="M+ 1p Fallback" x="644" y="278.5" text-anchor="start" dominant-baseline="middle" >C.FSD</text><line x1="0" y1="295" x2="120" y2="295" stroke="#000000" stroke-width="1" /><line x1="0" y1="330" x2="120" y2="330" stroke="#000000" stroke-width="1" /><line x1="120" y1="295" x2="120" y2="330" stroke="#000000" stroke-width="1" /><line x1="0" y1="295" x2="0" y2="330" stroke="#000000" stroke-width="1" /><text font-size="18" font-family="M+ 1p Fallback" x="60" y="313.5" text-anchor="middle" dominant-baseline="middle" >110</text><line x1="120" y1="295" x2="240" y2="295" stroke="#000000" stroke-width="1" /><line x1="120" y1="330" x2="240" y2="330" stroke="#000000" stroke-width="1" /><line x1="240" y1="295" x2="240" y2="330" stroke="#000000" stroke-width="1" /><line x1="120" y1="295" x2="120" y2="330" stroke="#000000" stroke-width="1" /><text font-size="18" font-family="M+ 1p Fallback" x="180" y="313.5" text-anchor="middle" dominant-baseline="middle" >uimm[5:3]</text><line x1="240" y1="295" x2="360" y2="295" stroke="#000000" stroke-width="1" /><line x1="240" y1="330" x2="360" y2="330" stroke="#000000" stroke-width="1" /><line x1="360" y1="295" x2="360" y2="330" stroke="#000000" stroke-width="1" /><line x1="240" y1="295" x2="240" y2="330" stroke="#000000" stroke-width="1" /><text font-size="18" font-family="M+ 1p Fallback" x="300" y="313.5" text-anchor="middle" dominant-baseline="middle" >rs1′</text><line x1="360" y1="295" x2="440" y2="295" stroke="#000000" stroke-width="1" /><line x1="360" y1="330" x2="440" y2="330" stroke="#000000" stroke-width="1" /><line x1="440" y1="295" x2="440" y2="330" stroke="#000000" stroke-width="1" /><line x1="360" y1="295" x2="360" y2="330" stroke="#000000" stroke-width="1" /><text font-size="16" x="400" y="313.5" text-anchor="middle" dominant-baseline="middle" >uimm[2|6]</text><line x1="440" y1="295" x2="560" y2="295" stroke="#000000" stroke-width="1" /><line x1="440" y1="330" x2="560" y2="330" stroke="#000000" stroke-width="1" /><line x1="560" y1="295" x2="560" y2="330" stroke="#000000" stroke-width="1" /><line x1="440" y1="295" x2="440" y2="330" stroke="#000000" stroke-width="1" /><text font-size="18" font-family="M+ 1p Fallback" x="500" y="313.5" text-anchor="middle" dominant-baseline="middle" >rs2′</text><line x1="560" y1="295" x2="640" y2="295" stroke="#000000" stroke-width="1" /><line x1="560" y1="330" x2="640" y2="330" stroke="#000000" stroke-width="1" /><line x1="640" y1="295" x2="640" y2="330" stroke="#000000" stroke-width="1" /><line x1="560" y1="295" x2="560" y2="330" stroke="#000000" stroke-width="1" /><text font-size="18" font-family="M+ 1p Fallback" x="600" y="313.5" text-anchor="middle" dominant-baseline="middle" >00</text><text font-size="18" font-family="M+ 1p Fallback" x="644" y="313.5" text-anchor="start" dominant-baseline="middle" >C.SW</text><line x1="0" y1="330" x2="120" y2="330" stroke="#000000" stroke-width="1" /><line x1="0" y1="365" x2="120" y2="365" stroke="#000000" stroke-width="1" /><line x1="120" y1="330" x2="120" y2="365" stroke="#000000" stroke-width="1" /><line x1="0" y1="330" x2="0" y2="365" stroke="#000000" stroke-width="1" /><text font-size="18" font-family="M+ 1p Fallback" x="60" y="348.5" text-anchor="middle" dominant-baseline="middle" >111</text><line x1="120" y1="330" x2="240" y2="330" stroke="#000000" stroke-width="1" /><line x1="120" y1="365" x2="240" y2="365" stroke="#000000" stroke-width="1" /><line x1="240" y1="330" x2="240" y2="365" stroke="#000000" stroke-width="1" /><line x1="120" y1="330" x2="120" y2="365" stroke="#000000" stroke-width="1" /><text font-size="18" font-family="M+ 1p Fallback" x="180" y="348.5" text-anchor="middle" dominant-baseline="middle" >uimm[5:3]</text><line x1="240" y1="330" x2="360" y2="330" stroke="#000000" stroke-width="1" /><line x1="240" y1="365" x2="360" y2="365" stroke="#000000" stroke-width="1" /><line x1="360" y1="330" x2="360" y2="365" stroke="#000000" stroke-width="1" /><line x1="240" y1="330" x2="240" y2="365" stroke="#000000" stroke-width="1" /><text font-size="18" font-family="M+ 1p Fallback" x="300" y="348.5" text-anchor="middle" dominant-baseline="middle" >rs1′</text><line x1="360" y1="330" x2="440" y2="330" stroke="#000000" stroke-width="1" /><line x1="360" y1="365" x2="440" y2="365" stroke="#000000" stroke-width="1" /><line x1="440" y1="330" x2="440" y2="365" stroke="#000000" stroke-width="1" /><line x1="360" y1="330" x2="360" y2="365" stroke="#000000" stroke-width="1" /><text font-size="16" x="400" y="348.5" text-anchor="middle" dominant-baseline="middle" >uimm[2|6]</text><line x1="440" y1="330" x2="560" y2="330" stroke="#000000" stroke-width="1" /><line x1="440" y1="365" x2="560" y2="365" stroke="#000000" stroke-width="1" /><line x1="560" y1="330" x2="560" y2="365" stroke="#000000" stroke-width="1" /><line x1="440" y1="330" x2="440" y2="365" stroke="#000000" stroke-width="1" /><text font-size="18" font-family="M+ 1p Fallback" x="500" y="348.5" text-anchor="middle" dominant-baseline="middle" >rs2′</text><line x1="560" y1="330" x2="640" y2="330" stroke="#000000" stroke-width="1" /><line x1="560" y1="365" x2="640" y2="365" stroke="#000000" stroke-width="1" /><line x1="640" y1="330" x2="640" y2="365" stroke="#000000" stroke-width="1" /><line x1="560" y1="330" x2="560" y2="365" stroke="#000000" stroke-width="1" /><text font-size="18" font-family="M+ 1p Fallback" x="600" y="348.5" text-anchor="middle" dominant-baseline="middle" >00</text><text font-size="18" font-family="Palatino, Georgia, Times New Roman, serif" font-style="italic" x="644" y="348.5" text-anchor="start" dominant-baseline="middle" >C.FSW<tspan font-size="70%" dy="0.5ex" dominant-baseline="middle" >(RV32)</tspan></text><line x1="0" y1="365" x2="120" y2="365" stroke="#000000" stroke-width="1" /><line x1="0" y1="400" x2="120" y2="400" stroke="#000000" stroke-width="1" /><line x1="120" y1="365" x2="120" y2="400" stroke="#000000" stroke-width="1" /><line x1="0" y1="365" x2="0" y2="400" stroke="#000000" stroke-width="1" /><text font-size="18" font-family="M+ 1p Fallback" x="60" y="383.5" text-anchor="middle" dominant-baseline="middle" >111</text><line x1="120" y1="365" x2="240" y2="365" stroke="#000000" stroke-width="1" /><line x1="120" y1="400" x2="240" y2="400" stroke="#000000" stroke-width="1" /><line x1="240" y1="365" x2="240" y2="400" stroke="#000000" stroke-width="1" /><line x1="120" y1="365" x2="120" y2="400" stroke="#000000" stroke-width="1" /><text font-size="18" font-family="M+ 1p Fallback" x="180" y="383.5" text-anchor="middle" dominant-baseline="middle" >uimm[5:3]</text><line x1="240" y1="365" x2="360" y2="365" stroke="#000000" stroke-width="1" /><line x1="240" y1="400" x2="360" y2="400" stroke="#000000" stroke-width="1" /><line x1="360" y1="365" x2="360" y2="400" stroke="#000000" stroke-width="1" /><line x1="240" y1="365" x2="240" y2="400" stroke="#000000" stroke-width="1" /><text font-size="18" font-family="M+ 1p Fallback" x="300" y="383.5" text-anchor="middle" dominant-baseline="middle" >rs1′</text><line x1="360" y1="365" x2="440" y2="365" stroke="#000000" stroke-width="1" /><line x1="360" y1="400" x2="440" y2="400" stroke="#000000" stroke-width="1" /><line x1="440" y1="365" x2="440" y2="400" stroke="#000000" stroke-width="1" /><line x1="360" y1="365" x2="360" y2="400" stroke="#000000" stroke-width="1" /><text font-size="16" x="400" y="383.5" text-anchor="middle" dominant-baseline="middle" >uimm[7:6]</text><line x1="440" y1="365" x2="560" y2="365" stroke="#000000" stroke-width="1" /><line x1="440" y1="400" x2="560" y2="400" stroke="#000000" stroke-width="1" /><line x1="560" y1="365" x2="560" y2="400" stroke="#000000" stroke-width="1" /><line x1="440" y1="365" x2="440" y2="400" stroke="#000000" stroke-width="1" /><text font-size="18" font-family="M+ 1p Fallback" x="500" y="383.5" text-anchor="middle" dominant-baseline="middle" >rs2′</text><line x1="560" y1="365" x2="640" y2="365" stroke="#000000" stroke-width="1" /><line x1="560" y1="400" x2="640" y2="400" stroke="#000000" stroke-width="1" /><line x1="640" y1="365" x2="640" y2="400" stroke="#000000" stroke-width="1" /><line x1="560" y1="365" x2="560" y2="400" stroke="#000000" stroke-width="1" /><text font-size="18" font-family="M+ 1p Fallback" x="600" y="383.5" text-anchor="middle" dominant-baseline="middle" >00</text><text font-size="18" font-family="Palatino, Georgia, Times New Roman, serif" font-style="italic" x="644" y="383.5" text-anchor="start" dominant-baseline="middle" >C.SD<tspan font-size="70%" dy="0.5ex" dominant-baseline="middle" >(RV64)</tspan></text></svg>