<?xml version="1.0" encoding="UTF-8"?><svg xmlns:svg="http://www.w3.org/2000/svg" xmlns="http://www.w3.org/2000/svg" xmlns:xlink="http://www.w3.org/1999/xlink" version="1.0" width="1340" height="122" viewBox="0 0 1340 122" ><text font-size="24" font-family="M+ 1p Fallback" x="34" y="22" text-anchor="start" dominant-baseline="middle" >15</text><text font-size="24" font-family="M+ 1p Fallback" x="346" y="22" text-anchor="end" dominant-baseline="middle" >11</text><text font-size="24" font-family="M+ 1p Fallback" x="430" y="22" text-anchor="middle" dominant-baseline="middle" >10</text><text font-size="24" font-family="M+ 1p Fallback" x="514" y="22" text-anchor="start" dominant-baseline="middle" >9</text><text font-size="24" font-family="M+ 1p Fallback" x="666" y="22" text-anchor="end" dominant-baseline="middle" >7</text><text font-size="24" font-family="M+ 1p Fallback" x="750" y="22" text-anchor="middle" dominant-baseline="middle" >6</text><text font-size="24" font-family="M+ 1p Fallback" x="834" y="22" text-anchor="start" dominant-baseline="middle" >5</text><text font-size="24" font-family="M+ 1p Fallback" x="986" y="22" text-anchor="end" dominant-baseline="middle" >3</text><text font-size="24" font-family="M+ 1p Fallback" x="1070" y="22" text-anchor="middle" dominant-baseline="middle" >2</text><text font-size="24" font-family="M+ 1p Fallback" x="1154" y="22" text-anchor="start" dominant-baseline="middle" >1</text><text font-size="24" font-family="M+ 1p Fallback" x="1306" y="22" text-anchor="end" dominant-baseline="middle" >0</text><line x1="30" y1="41" x2="350" y2="41" stroke="#000000" stroke-width="1" /><line x1="30" y1="81" x2="350" y2="81" stroke="#000000" stroke-width="1" /><line x1="350" y1="41" x2="350" y2="81" stroke="#000000" stroke-width="1" /><line x1="30" y1="41" x2="30" y2="81" stroke="#000000" stroke-width="1" /><text font-size="24" font-family="M+ 1p Fallback" x="190" y="62" text-anchor="middle" dominant-baseline="middle" >0</text><line x1="350" y1="41" x2="510" y2="41" stroke="#000000" stroke-width="1" /><line x1="350" y1="81" x2="510" y2="81" stroke="#000000" stroke-width="1" /><line x1="510" y1="41" x2="510" y2="81" stroke="#000000" stroke-width="1" /><line x1="350" y1="41" x2="350" y2="81" stroke="#000000" stroke-width="1" /><text font-size="24" font-family="M+ 1p Fallback" x="430" y="62" text-anchor="middle" dominant-baseline="middle" >VSEIP</text><line x1="510" y1="41" x2="670" y2="41" stroke="#000000" stroke-width="1" /><line x1="510" y1="81" x2="670" y2="81" stroke="#000000" stroke-width="1" /><line x1="670" y1="41" x2="670" y2="81" stroke="#000000" stroke-width="1" /><line x1="510" y1="41" x2="510" y2="81" stroke="#000000" stroke-width="1" /><text font-size="24" font-family="M+ 1p Fallback" x="590" y="62" text-anchor="middle" dominant-baseline="middle" >0</text><line x1="670" y1="41" x2="830" y2="41" stroke="#000000" stroke-width="1" /><line x1="670" y1="81" x2="830" y2="81" stroke="#000000" stroke-width="1" /><line x1="830" y1="41" x2="830" y2="81" stroke="#000000" stroke-width="1" /><line x1="670" y1="41" x2="670" y2="81" stroke="#000000" stroke-width="1" /><text font-size="24" font-family="M+ 1p Fallback" x="750" y="62" text-anchor="middle" dominant-baseline="middle" >VSTIP</text><line x1="830" y1="41" x2="990" y2="41" stroke="#000000" stroke-width="1" /><line x1="830" y1="81" x2="990" y2="81" stroke="#000000" stroke-width="1" /><line x1="990" y1="41" x2="990" y2="81" stroke="#000000" stroke-width="1" /><line x1="830" y1="41" x2="830" y2="81" stroke="#000000" stroke-width="1" /><text font-size="24" font-family="M+ 1p Fallback" x="910" y="62" text-anchor="middle" dominant-baseline="middle" >0</text><line x1="990" y1="41" x2="1150" y2="41" stroke="#000000" stroke-width="1" /><line x1="990" y1="81" x2="1150" y2="81" stroke="#000000" stroke-width="1" /><line x1="1150" y1="41" x2="1150" y2="81" stroke="#000000" stroke-width="1" /><line x1="990" y1="41" x2="990" y2="81" stroke="#000000" stroke-width="1" /><text font-size="24" font-family="M+ 1p Fallback" x="1070" y="62" text-anchor="middle" dominant-baseline="middle" >VSSIP</text><line x1="1150" y1="41" x2="1310" y2="41" stroke="#000000" stroke-width="1" /><line x1="1150" y1="81" x2="1310" y2="81" stroke="#000000" stroke-width="1" /><line x1="1310" y1="41" x2="1310" y2="81" stroke="#000000" stroke-width="1" /><line x1="1150" y1="41" x2="1150" y2="81" stroke="#000000" stroke-width="1" /><text font-size="24" font-family="M+ 1p Fallback" x="1230" y="62" text-anchor="middle" dominant-baseline="middle" >0</text><text font-size="24" font-family="M+ 1p Fallback" x="190" y="102" text-anchor="middle" dominant-baseline="middle" >5</text><text font-size="24" font-family="M+ 1p Fallback" x="430" y="102" text-anchor="middle" dominant-baseline="middle" >1</text><text font-size="24" font-family="M+ 1p Fallback" x="590" y="102" text-anchor="middle" dominant-baseline="middle" >3</text><text font-size="24" font-family="M+ 1p Fallback" x="750" y="102" text-anchor="middle" dominant-baseline="middle" >1</text><text font-size="24" font-family="M+ 1p Fallback" x="910" y="102" text-anchor="middle" dominant-baseline="middle" >3</text><text font-size="24" font-family="M+ 1p Fallback" x="1070" y="102" text-anchor="middle" dominant-baseline="middle" >1</text><text font-size="24" font-family="M+ 1p Fallback" x="1230" y="102" text-anchor="middle" dominant-baseline="middle" >2</text></svg>