<?xml version="1.0" encoding="UTF-8"?><svg xmlns:svg="http://www.w3.org/2000/svg" xmlns="http://www.w3.org/2000/svg" xmlns:xlink="http://www.w3.org/1999/xlink" version="1.0" width="1321" height="112" viewBox="0 0 1321 112" ><text font-size="18" x="60" y="11" font-family="Courier New, monospace" dominant-baseline="middle" text-anchor="middle" >31</text><text font-size="18" x="100" y="11" font-family="Courier New, monospace" dominant-baseline="middle" text-anchor="middle" ></text><text font-size="18" x="140" y="11" font-family="Courier New, monospace" dominant-baseline="middle" text-anchor="middle" >30</text><text font-size="18" x="180" y="11" font-family="Courier New, monospace" dominant-baseline="middle" text-anchor="middle" ></text><text font-size="18" x="220" y="11" font-family="Courier New, monospace" dominant-baseline="middle" text-anchor="middle" >29</text><text font-size="18" x="260" y="11" font-family="Courier New, monospace" dominant-baseline="middle" text-anchor="middle" ></text><text font-size="18" x="300" y="11" font-family="Courier New, monospace" dominant-baseline="middle" text-anchor="middle" >28</text><text font-size="18" x="340" y="11" font-family="Courier New, monospace" dominant-baseline="middle" text-anchor="middle" ></text><text font-size="18" x="380" y="11" font-family="Courier New, monospace" dominant-baseline="middle" text-anchor="middle" ></text><text font-size="18" x="420" y="11" font-family="Courier New, monospace" dominant-baseline="middle" text-anchor="middle" ></text><text font-size="18" x="460" y="11" font-family="Courier New, monospace" dominant-baseline="middle" text-anchor="middle" ></text><text font-size="18" x="500" y="11" font-family="Courier New, monospace" dominant-baseline="middle" text-anchor="middle" ></text><text font-size="18" x="540" y="11" font-family="Courier New, monospace" dominant-baseline="middle" text-anchor="middle" ></text><text font-size="18" x="580" y="11" font-family="Courier New, monospace" dominant-baseline="middle" text-anchor="middle" ></text><text font-size="18" x="620" y="11" font-family="Courier New, monospace" dominant-baseline="middle" text-anchor="middle" ></text><text font-size="18" x="660" y="11" font-family="Courier New, monospace" dominant-baseline="middle" text-anchor="middle" ></text><text font-size="18" x="700" y="11" font-family="Courier New, monospace" dominant-baseline="middle" text-anchor="middle" ></text><text font-size="18" x="740" y="11" font-family="Courier New, monospace" dominant-baseline="middle" text-anchor="middle" ></text><text font-size="18" x="780" y="11" font-family="Courier New, monospace" dominant-baseline="middle" text-anchor="middle" ></text><text font-size="18" x="820" y="11" font-family="Courier New, monospace" dominant-baseline="middle" text-anchor="middle" ></text><text font-size="18" x="860" y="11" font-family="Courier New, monospace" dominant-baseline="middle" text-anchor="middle" ></text><text font-size="18" x="900" y="11" font-family="Courier New, monospace" dominant-baseline="middle" text-anchor="middle" ></text><text font-size="18" x="940" y="11" font-family="Courier New, monospace" dominant-baseline="middle" text-anchor="middle" >6</text><text font-size="18" x="980" y="11" font-family="Courier New, monospace" dominant-baseline="middle" text-anchor="middle" >5</text><text font-size="18" x="1020" y="11" font-family="Courier New, monospace" dominant-baseline="middle" text-anchor="middle" ></text><text font-size="18" x="1060" y="11" font-family="Courier New, monospace" dominant-baseline="middle" text-anchor="middle" >4</text><text font-size="18" x="1100" y="11" font-family="Courier New, monospace" dominant-baseline="middle" text-anchor="middle" ></text><text font-size="18" x="1140" y="11" font-family="Courier New, monospace" dominant-baseline="middle" text-anchor="middle" >3</text><text font-size="18" x="1180" y="11" font-family="Courier New, monospace" dominant-baseline="middle" text-anchor="middle" ></text><text font-size="18" x="1220" y="11" font-family="Courier New, monospace" dominant-baseline="middle" text-anchor="middle" >2</text><text font-size="18" x="1260" y="11" font-family="Courier New, monospace" dominant-baseline="middle" text-anchor="middle" >1</text><text font-size="18" x="1300" y="11" font-family="Courier New, monospace" dominant-baseline="middle" text-anchor="middle" >0</text><line x1="40" y1="21" x2="120" y2="21" stroke="#000000" stroke-width="1" /><line x1="40" y1="66" x2="120" y2="66" stroke="#000000" stroke-width="1" /><line x1="120" y1="21" x2="120" y2="66" stroke="#000000" stroke-width="1" /><line x1="40" y1="21" x2="40" y2="66" stroke="#000000" stroke-width="1" /><text font-size="18" font-family="M+ 1p Fallback" x="80" y="44.5" text-anchor="middle" dominant-baseline="middle" >HPM31</text><line x1="120" y1="21" x2="200" y2="21" stroke="#000000" stroke-width="1" /><line x1="120" y1="66" x2="200" y2="66" stroke="#000000" stroke-width="1" /><line x1="200" y1="21" x2="200" y2="66" stroke="#000000" stroke-width="1" /><line x1="120" y1="21" x2="120" y2="66" stroke="#000000" stroke-width="1" /><text font-size="18" font-family="M+ 1p Fallback" x="160" y="44.5" text-anchor="middle" dominant-baseline="middle" >HPM30</text><line x1="200" y1="21" x2="280" y2="21" stroke="#000000" stroke-width="1" /><line x1="200" y1="66" x2="280" y2="66" stroke="#000000" stroke-width="1" /><line x1="280" y1="21" x2="280" y2="66" stroke="#000000" stroke-width="1" /><line x1="200" y1="21" x2="200" y2="66" stroke="#000000" stroke-width="1" /><text font-size="18" font-family="M+ 1p Fallback" x="240" y="44.5" text-anchor="middle" dominant-baseline="middle" >HPM29</text><line x1="280" y1="21" x2="960" y2="21" stroke="#000000" stroke-width="1" /><line x1="280" y1="66" x2="960" y2="66" stroke="#000000" stroke-width="1" /><line x1="960" y1="21" x2="960" y2="66" stroke="#000000" stroke-width="1" /><line x1="280" y1="21" x2="280" y2="66" stroke="#000000" stroke-width="1" /><text font-size="18" font-family="M+ 1p Fallback" x="620" y="44.5" text-anchor="middle" dominant-baseline="middle" >...</text><line x1="960" y1="21" x2="1040" y2="21" stroke="#000000" stroke-width="1" /><line x1="960" y1="66" x2="1040" y2="66" stroke="#000000" stroke-width="1" /><line x1="1040" y1="21" x2="1040" y2="66" stroke="#000000" stroke-width="1" /><line x1="960" y1="21" x2="960" y2="66" stroke="#000000" stroke-width="1" /><text font-size="18" font-family="M+ 1p Fallback" x="1000" y="44.5" text-anchor="middle" dominant-baseline="middle" >HPM5</text><line x1="1040" y1="21" x2="1120" y2="21" stroke="#000000" stroke-width="1" /><line x1="1040" y1="66" x2="1120" y2="66" stroke="#000000" stroke-width="1" /><line x1="1120" y1="21" x2="1120" y2="66" stroke="#000000" stroke-width="1" /><line x1="1040" y1="21" x2="1040" y2="66" stroke="#000000" stroke-width="1" /><text font-size="18" font-family="M+ 1p Fallback" x="1080" y="44.5" text-anchor="middle" dominant-baseline="middle" >HPM4</text><line x1="1120" y1="21" x2="1200" y2="21" stroke="#000000" stroke-width="1" /><line x1="1120" y1="66" x2="1200" y2="66" stroke="#000000" stroke-width="1" /><line x1="1200" y1="21" x2="1200" y2="66" stroke="#000000" stroke-width="1" /><line x1="1120" y1="21" x2="1120" y2="66" stroke="#000000" stroke-width="1" /><text font-size="18" font-family="M+ 1p Fallback" x="1160" y="44.5" text-anchor="middle" dominant-baseline="middle" >HPM3</text><line x1="1200" y1="21" x2="1240" y2="21" stroke="#000000" stroke-width="1" /><line x1="1200" y1="66" x2="1240" y2="66" stroke="#000000" stroke-width="1" /><line x1="1240" y1="21" x2="1240" y2="66" stroke="#000000" stroke-width="1" /><line x1="1200" y1="21" x2="1200" y2="66" stroke="#000000" stroke-width="1" /><text font-size="18" font-family="M+ 1p Fallback" x="1220" y="44.5" text-anchor="middle" dominant-baseline="middle" >IR</text><line x1="1240" y1="21" x2="1280" y2="21" stroke="#000000" stroke-width="1" /><line x1="1240" y1="66" x2="1280" y2="66" stroke="#000000" stroke-width="1" /><line x1="1280" y1="21" x2="1280" y2="66" stroke="#000000" stroke-width="1" /><line x1="1240" y1="21" x2="1240" y2="66" stroke="#000000" stroke-width="1" /><text font-size="18" font-family="M+ 1p Fallback" x="1260" y="44.5" text-anchor="middle" dominant-baseline="middle" >0</text><line x1="1280" y1="21" x2="1320" y2="21" stroke="#000000" stroke-width="1" /><line x1="1280" y1="66" x2="1320" y2="66" stroke="#000000" stroke-width="1" /><line x1="1320" y1="21" x2="1320" y2="66" stroke="#000000" stroke-width="1" /><line x1="1280" y1="21" x2="1280" y2="66" stroke="#000000" stroke-width="1" /><text font-size="18" font-family="M+ 1p Fallback" x="1300" y="44.5" text-anchor="middle" dominant-baseline="middle" >CY</text><text font-size="18" font-family="M+ 1p Fallback" x="80" y="89.5" text-anchor="middle" dominant-baseline="middle" >1</text><text font-size="18" font-family="M+ 1p Fallback" x="160" y="89.5" text-anchor="middle" dominant-baseline="middle" >1</text><text font-size="18" font-family="M+ 1p Fallback" x="240" y="89.5" text-anchor="middle" dominant-baseline="middle" >1</text><text font-size="18" font-family="M+ 1p Fallback" x="620" y="89.5" text-anchor="middle" dominant-baseline="middle" >23</text><text font-size="18" font-family="M+ 1p Fallback" x="1000" y="89.5" text-anchor="middle" dominant-baseline="middle" >1</text><text font-size="18" font-family="M+ 1p Fallback" x="1080" y="89.5" text-anchor="middle" dominant-baseline="middle" >1</text><text font-size="18" font-family="M+ 1p Fallback" x="1160" y="89.5" text-anchor="middle" dominant-baseline="middle" >1</text><text font-size="18" font-family="M+ 1p Fallback" x="1220" y="89.5" text-anchor="middle" dominant-baseline="middle" >1</text><text font-size="18" font-family="M+ 1p Fallback" x="1260" y="89.5" text-anchor="middle" dominant-baseline="middle" >1</text><text font-size="18" font-family="M+ 1p Fallback" x="1300" y="89.5" text-anchor="middle" dominant-baseline="middle" >1</text></svg>