<?xml version="1.0" encoding="UTF-8"?><svg xmlns:svg="http://www.w3.org/2000/svg" xmlns="http://www.w3.org/2000/svg" xmlns:xlink="http://www.w3.org/1999/xlink" version="1.0" width="1480" height="122" viewBox="0 0 1480 122" ><text font-size="24" font-family="M+ 1p Fallback" x="200" y="22" text-anchor="middle" dominant-baseline="middle" >7</text><text font-size="24" font-family="M+ 1p Fallback" x="304" y="22" text-anchor="start" dominant-baseline="middle" >6</text><text font-size="24" font-family="M+ 1p Fallback" x="536" y="22" text-anchor="end" dominant-baseline="middle" >5</text><text font-size="24" font-family="M+ 1p Fallback" x="544" y="22" text-anchor="start" dominant-baseline="middle" >4</text><text font-size="24" font-family="M+ 1p Fallback" x="776" y="22" text-anchor="end" dominant-baseline="middle" >3</text><text font-size="24" font-family="M+ 1p Fallback" x="880" y="22" text-anchor="middle" dominant-baseline="middle" >2</text><text font-size="24" font-family="M+ 1p Fallback" x="1080" y="22" text-anchor="middle" dominant-baseline="middle" >1</text><text font-size="24" font-family="M+ 1p Fallback" x="1280" y="22" text-anchor="middle" dominant-baseline="middle" >0</text><line x1="100" y1="41" x2="300" y2="41" stroke="#000000" stroke-width="1" /><line x1="100" y1="81" x2="300" y2="81" stroke="#000000" stroke-width="1" /><line x1="300" y1="41" x2="300" y2="81" stroke="#000000" stroke-width="1" /><line x1="100" y1="41" x2="100" y2="81" stroke="#000000" stroke-width="1" /><text font-size="24" font-family="M+ 1p Fallback" x="200" y="62" text-anchor="middle" dominant-baseline="middle" >L</text><line x1="300" y1="41" x2="540" y2="41" stroke="#000000" stroke-width="1" /><line x1="300" y1="81" x2="540" y2="81" stroke="#000000" stroke-width="1" /><line x1="540" y1="41" x2="540" y2="81" stroke="#000000" stroke-width="1" /><line x1="300" y1="41" x2="300" y2="81" stroke="#000000" stroke-width="1" /><text font-size="24" font-family="M+ 1p Fallback" x="420" y="62" text-anchor="middle" dominant-baseline="middle" >0</text><line x1="540" y1="41" x2="780" y2="41" stroke="#000000" stroke-width="1" /><line x1="540" y1="81" x2="780" y2="81" stroke="#000000" stroke-width="1" /><line x1="780" y1="41" x2="780" y2="81" stroke="#000000" stroke-width="1" /><line x1="540" y1="41" x2="540" y2="81" stroke="#000000" stroke-width="1" /><text font-size="24" font-family="M+ 1p Fallback" x="660" y="62" text-anchor="middle" dominant-baseline="middle" >A</text><line x1="780" y1="41" x2="980" y2="41" stroke="#000000" stroke-width="1" /><line x1="780" y1="81" x2="980" y2="81" stroke="#000000" stroke-width="1" /><line x1="980" y1="41" x2="980" y2="81" stroke="#000000" stroke-width="1" /><line x1="780" y1="41" x2="780" y2="81" stroke="#000000" stroke-width="1" /><text font-size="24" font-family="M+ 1p Fallback" x="880" y="62" text-anchor="middle" dominant-baseline="middle" >X</text><line x1="980" y1="41" x2="1180" y2="41" stroke="#000000" stroke-width="1" /><line x1="980" y1="81" x2="1180" y2="81" stroke="#000000" stroke-width="1" /><line x1="1180" y1="41" x2="1180" y2="81" stroke="#000000" stroke-width="1" /><line x1="980" y1="41" x2="980" y2="81" stroke="#000000" stroke-width="1" /><text font-size="24" font-family="M+ 1p Fallback" x="1080" y="62" text-anchor="middle" dominant-baseline="middle" >W</text><line x1="1180" y1="41" x2="1380" y2="41" stroke="#000000" stroke-width="1" /><line x1="1180" y1="81" x2="1380" y2="81" stroke="#000000" stroke-width="1" /><line x1="1380" y1="41" x2="1380" y2="81" stroke="#000000" stroke-width="1" /><line x1="1180" y1="41" x2="1180" y2="81" stroke="#000000" stroke-width="1" /><text font-size="24" font-family="M+ 1p Fallback" x="1280" y="62" text-anchor="middle" dominant-baseline="middle" >R</text><text font-size="24" font-family="M+ 1p Fallback" x="200" y="102" text-anchor="middle" dominant-baseline="middle" >1</text><text font-size="24" font-family="M+ 1p Fallback" x="420" y="102" text-anchor="middle" dominant-baseline="middle" >2</text><text font-size="24" font-family="M+ 1p Fallback" x="660" y="102" text-anchor="middle" dominant-baseline="middle" >2</text><text font-size="24" font-family="M+ 1p Fallback" x="880" y="102" text-anchor="middle" dominant-baseline="middle" >1</text><text font-size="24" font-family="M+ 1p Fallback" x="1080" y="102" text-anchor="middle" dominant-baseline="middle" >1</text><text font-size="24" font-family="M+ 1p Fallback" x="1280" y="102" text-anchor="middle" dominant-baseline="middle" >1</text></svg>