<?xml version="1.0" encoding="UTF-8"?><svg xmlns:svg="http://www.w3.org/2000/svg" xmlns="http://www.w3.org/2000/svg" xmlns:xlink="http://www.w3.org/1999/xlink" version="1.0" width="1340" height="122" viewBox="0 0 1340 122" ><text font-size="24" font-family="M+ 1p Fallback" x="34" y="22" text-anchor="start" dominant-baseline="middle" >31</text><text font-size="24" font-family="M+ 1p Fallback" x="666" y="22" text-anchor="end" dominant-baseline="middle" >8</text><text font-size="24" font-family="M+ 1p Fallback" x="730" y="22" text-anchor="middle" dominant-baseline="middle" >7</text><text font-size="24" font-family="M+ 1p Fallback" x="850" y="22" text-anchor="middle" dominant-baseline="middle" >6</text><text font-size="24" font-family="M+ 1p Fallback" x="970" y="22" text-anchor="middle" dominant-baseline="middle" >5</text><text font-size="24" font-family="M+ 1p Fallback" x="1090" y="22" text-anchor="middle" dominant-baseline="middle" >4</text><text font-size="24" font-family="M+ 1p Fallback" x="1154" y="22" text-anchor="start" dominant-baseline="middle" >3</text><text font-size="24" font-family="M+ 1p Fallback" x="1306" y="22" text-anchor="end" dominant-baseline="middle" >0</text><line x1="30" y1="41" x2="670" y2="41" stroke="#000000" stroke-width="1" /><line x1="30" y1="81" x2="670" y2="81" stroke="#000000" stroke-width="1" /><line x1="670" y1="41" x2="670" y2="81" stroke="#000000" stroke-width="1" /><line x1="30" y1="41" x2="30" y2="81" stroke="#000000" stroke-width="1" /><text font-size="24" font-weight="bold" x="350" y="62" text-anchor="middle" dominant-baseline="middle" >WPRI</text><line x1="670" y1="41" x2="790" y2="41" stroke="#000000" stroke-width="1" /><line x1="670" y1="81" x2="790" y2="81" stroke="#000000" stroke-width="1" /><line x1="790" y1="41" x2="790" y2="81" stroke="#000000" stroke-width="1" /><line x1="670" y1="41" x2="670" y2="81" stroke="#000000" stroke-width="1" /><text font-size="24" font-family="M+ 1p Fallback" x="730" y="62" text-anchor="middle" dominant-baseline="middle" >MPV</text><line x1="790" y1="41" x2="910" y2="41" stroke="#000000" stroke-width="1" /><line x1="790" y1="81" x2="910" y2="81" stroke="#000000" stroke-width="1" /><line x1="910" y1="41" x2="910" y2="81" stroke="#000000" stroke-width="1" /><line x1="790" y1="41" x2="790" y2="81" stroke="#000000" stroke-width="1" /><text font-size="24" font-family="M+ 1p Fallback" x="850" y="62" text-anchor="middle" dominant-baseline="middle" >GVA</text><line x1="910" y1="41" x2="1030" y2="41" stroke="#000000" stroke-width="1" /><line x1="910" y1="81" x2="1030" y2="81" stroke="#000000" stroke-width="1" /><line x1="1030" y1="41" x2="1030" y2="81" stroke="#000000" stroke-width="1" /><line x1="910" y1="41" x2="910" y2="81" stroke="#000000" stroke-width="1" /><text font-size="24" font-family="M+ 1p Fallback" x="970" y="62" text-anchor="middle" dominant-baseline="middle" >MBE</text><line x1="1030" y1="41" x2="1150" y2="41" stroke="#000000" stroke-width="1" /><line x1="1030" y1="81" x2="1150" y2="81" stroke="#000000" stroke-width="1" /><line x1="1150" y1="41" x2="1150" y2="81" stroke="#000000" stroke-width="1" /><line x1="1030" y1="41" x2="1030" y2="81" stroke="#000000" stroke-width="1" /><text font-size="24" font-family="M+ 1p Fallback" x="1090" y="62" text-anchor="middle" dominant-baseline="middle" >SBE</text><line x1="1150" y1="41" x2="1310" y2="41" stroke="#000000" stroke-width="1" /><line x1="1150" y1="81" x2="1310" y2="81" stroke="#000000" stroke-width="1" /><line x1="1310" y1="41" x2="1310" y2="81" stroke="#000000" stroke-width="1" /><line x1="1150" y1="41" x2="1150" y2="81" stroke="#000000" stroke-width="1" /><text font-size="24" font-weight="bold" x="1230" y="62" text-anchor="middle" dominant-baseline="middle" >WPRI</text><text font-size="24" font-family="M+ 1p Fallback" x="350" y="102" text-anchor="middle" dominant-baseline="middle" >24</text><text font-size="24" font-family="M+ 1p Fallback" x="730" y="102" text-anchor="middle" dominant-baseline="middle" >1</text><text font-size="24" font-family="M+ 1p Fallback" x="850" y="102" text-anchor="middle" dominant-baseline="middle" >1</text><text font-size="24" font-family="M+ 1p Fallback" x="970" y="102" text-anchor="middle" dominant-baseline="middle" >1</text><text font-size="24" font-family="M+ 1p Fallback" x="1090" y="102" text-anchor="middle" dominant-baseline="middle" >1</text><text font-size="24" font-family="M+ 1p Fallback" x="1230" y="102" text-anchor="middle" dominant-baseline="middle" >4</text></svg>