<?xml version="1.0" encoding="UTF-8"?><svg xmlns:svg="http://www.w3.org/2000/svg" xmlns="http://www.w3.org/2000/svg" xmlns:xlink="http://www.w3.org/1999/xlink" version="1.0" width="1340" height="122" viewBox="0 0 1340 122" ><text font-size="24" font-family="M+ 1p Fallback" x="50" y="22" text-anchor="middle" dominant-baseline="middle" >15</text><text font-size="24" font-family="M+ 1p Fallback" x="90" y="22" text-anchor="middle" dominant-baseline="middle" >14</text><text font-size="24" font-family="M+ 1p Fallback" x="170" y="22" text-anchor="middle" dominant-baseline="middle" >13</text><text font-size="24" font-family="M+ 1p Fallback" x="270" y="22" text-anchor="middle" dominant-baseline="middle" >12</text><text font-size="24" font-family="M+ 1p Fallback" x="350" y="22" text-anchor="middle" dominant-baseline="middle" >11</text><text font-size="24" font-family="M+ 1p Fallback" x="450" y="22" text-anchor="middle" dominant-baseline="middle" >10</text><text font-size="24" font-family="M+ 1p Fallback" x="550" y="22" text-anchor="middle" dominant-baseline="middle" >9</text><text font-size="24" font-family="M+ 1p Fallback" x="630" y="22" text-anchor="middle" dominant-baseline="middle" >8</text><text font-size="24" font-family="M+ 1p Fallback" x="710" y="22" text-anchor="middle" dominant-baseline="middle" >7</text><text font-size="24" font-family="M+ 1p Fallback" x="790" y="22" text-anchor="middle" dominant-baseline="middle" >6</text><text font-size="24" font-family="M+ 1p Fallback" x="870" y="22" text-anchor="middle" dominant-baseline="middle" >5</text><text font-size="24" font-family="M+ 1p Fallback" x="950" y="22" text-anchor="middle" dominant-baseline="middle" >4</text><text font-size="24" font-family="M+ 1p Fallback" x="1030" y="22" text-anchor="middle" dominant-baseline="middle" >3</text><text font-size="24" font-family="M+ 1p Fallback" x="1110" y="22" text-anchor="middle" dominant-baseline="middle" >2</text><text font-size="24" font-family="M+ 1p Fallback" x="1190" y="22" text-anchor="middle" dominant-baseline="middle" >1</text><text font-size="24" font-family="M+ 1p Fallback" x="1270" y="22" text-anchor="middle" dominant-baseline="middle" >0</text><line x1="30" y1="41" x2="110" y2="41" stroke="#000000" stroke-width="1" /><line x1="30" y1="81" x2="110" y2="81" stroke="#000000" stroke-width="1" /><line x1="110" y1="41" x2="110" y2="81" stroke="#000000" stroke-width="1" /><line x1="30" y1="41" x2="30" y2="81" stroke="#000000" stroke-width="1" /><text font-size="24" font-family="M+ 1p Fallback" x="70" y="62" text-anchor="middle" dominant-baseline="middle" >0</text><line x1="110" y1="41" x2="230" y2="41" stroke="#000000" stroke-width="1" /><line x1="110" y1="81" x2="230" y2="81" stroke="#000000" stroke-width="1" /><line x1="230" y1="41" x2="230" y2="81" stroke="#000000" stroke-width="1" /><line x1="110" y1="41" x2="110" y2="81" stroke="#000000" stroke-width="1" /><text font-size="24" font-family="M+ 1p Fallback" x="170" y="62" text-anchor="middle" dominant-baseline="middle" >LCOFIE</text><line x1="230" y1="41" x2="310" y2="41" stroke="#000000" stroke-width="1" /><line x1="230" y1="81" x2="310" y2="81" stroke="#000000" stroke-width="1" /><line x1="310" y1="41" x2="310" y2="81" stroke="#000000" stroke-width="1" /><line x1="230" y1="41" x2="230" y2="81" stroke="#000000" stroke-width="1" /><text font-size="24" font-family="M+ 1p Fallback" x="270" y="62" text-anchor="middle" dominant-baseline="middle" >SGEIE</text><line x1="310" y1="41" x2="390" y2="41" stroke="#000000" stroke-width="1" /><line x1="310" y1="81" x2="390" y2="81" stroke="#000000" stroke-width="1" /><line x1="390" y1="41" x2="390" y2="81" stroke="#000000" stroke-width="1" /><line x1="310" y1="41" x2="310" y2="81" stroke="#000000" stroke-width="1" /><text font-size="24" font-family="M+ 1p Fallback" x="350" y="62" text-anchor="middle" dominant-baseline="middle" >MEIE</text><line x1="390" y1="41" x2="510" y2="41" stroke="#000000" stroke-width="1" /><line x1="390" y1="81" x2="510" y2="81" stroke="#000000" stroke-width="1" /><line x1="510" y1="41" x2="510" y2="81" stroke="#000000" stroke-width="1" /><line x1="390" y1="41" x2="390" y2="81" stroke="#000000" stroke-width="1" /><text font-size="24" font-family="M+ 1p Fallback" x="450" y="62" text-anchor="middle" dominant-baseline="middle" >VSEIE</text><line x1="510" y1="41" x2="590" y2="41" stroke="#000000" stroke-width="1" /><line x1="510" y1="81" x2="590" y2="81" stroke="#000000" stroke-width="1" /><line x1="590" y1="41" x2="590" y2="81" stroke="#000000" stroke-width="1" /><line x1="510" y1="41" x2="510" y2="81" stroke="#000000" stroke-width="1" /><text font-size="24" font-family="M+ 1p Fallback" x="550" y="62" text-anchor="middle" dominant-baseline="middle" >SEIE</text><line x1="590" y1="41" x2="670" y2="41" stroke="#000000" stroke-width="1" /><line x1="590" y1="81" x2="670" y2="81" stroke="#000000" stroke-width="1" /><line x1="670" y1="41" x2="670" y2="81" stroke="#000000" stroke-width="1" /><line x1="590" y1="41" x2="590" y2="81" stroke="#000000" stroke-width="1" /><text font-size="24" font-family="M+ 1p Fallback" x="630" y="62" text-anchor="middle" dominant-baseline="middle" >0</text><line x1="670" y1="41" x2="750" y2="41" stroke="#000000" stroke-width="1" /><line x1="670" y1="81" x2="750" y2="81" stroke="#000000" stroke-width="1" /><line x1="750" y1="41" x2="750" y2="81" stroke="#000000" stroke-width="1" /><line x1="670" y1="41" x2="670" y2="81" stroke="#000000" stroke-width="1" /><text font-size="24" font-family="M+ 1p Fallback" x="710" y="62" text-anchor="middle" dominant-baseline="middle" >MTIE</text><line x1="750" y1="41" x2="830" y2="41" stroke="#000000" stroke-width="1" /><line x1="750" y1="81" x2="830" y2="81" stroke="#000000" stroke-width="1" /><line x1="830" y1="41" x2="830" y2="81" stroke="#000000" stroke-width="1" /><line x1="750" y1="41" x2="750" y2="81" stroke="#000000" stroke-width="1" /><text font-size="24" font-family="M+ 1p Fallback" x="790" y="62" text-anchor="middle" dominant-baseline="middle" >VSTIE</text><line x1="830" y1="41" x2="910" y2="41" stroke="#000000" stroke-width="1" /><line x1="830" y1="81" x2="910" y2="81" stroke="#000000" stroke-width="1" /><line x1="910" y1="41" x2="910" y2="81" stroke="#000000" stroke-width="1" /><line x1="830" y1="41" x2="830" y2="81" stroke="#000000" stroke-width="1" /><text font-size="24" font-family="M+ 1p Fallback" x="870" y="62" text-anchor="middle" dominant-baseline="middle" >STIE</text><line x1="910" y1="41" x2="990" y2="41" stroke="#000000" stroke-width="1" /><line x1="910" y1="81" x2="990" y2="81" stroke="#000000" stroke-width="1" /><line x1="990" y1="41" x2="990" y2="81" stroke="#000000" stroke-width="1" /><line x1="910" y1="41" x2="910" y2="81" stroke="#000000" stroke-width="1" /><text font-size="24" font-family="M+ 1p Fallback" x="950" y="62" text-anchor="middle" dominant-baseline="middle" >0</text><line x1="990" y1="41" x2="1070" y2="41" stroke="#000000" stroke-width="1" /><line x1="990" y1="81" x2="1070" y2="81" stroke="#000000" stroke-width="1" /><line x1="1070" y1="41" x2="1070" y2="81" stroke="#000000" stroke-width="1" /><line x1="990" y1="41" x2="990" y2="81" stroke="#000000" stroke-width="1" /><text font-size="24" font-family="M+ 1p Fallback" x="1030" y="62" text-anchor="middle" dominant-baseline="middle" >MSIE</text><line x1="1070" y1="41" x2="1150" y2="41" stroke="#000000" stroke-width="1" /><line x1="1070" y1="81" x2="1150" y2="81" stroke="#000000" stroke-width="1" /><line x1="1150" y1="41" x2="1150" y2="81" stroke="#000000" stroke-width="1" /><line x1="1070" y1="41" x2="1070" y2="81" stroke="#000000" stroke-width="1" /><text font-size="24" font-family="M+ 1p Fallback" x="1110" y="62" text-anchor="middle" dominant-baseline="middle" >VSSIE</text><line x1="1150" y1="41" x2="1230" y2="41" stroke="#000000" stroke-width="1" /><line x1="1150" y1="81" x2="1230" y2="81" stroke="#000000" stroke-width="1" /><line x1="1230" y1="41" x2="1230" y2="81" stroke="#000000" stroke-width="1" /><line x1="1150" y1="41" x2="1150" y2="81" stroke="#000000" stroke-width="1" /><text font-size="24" font-family="M+ 1p Fallback" x="1190" y="62" text-anchor="middle" dominant-baseline="middle" >SSIE</text><line x1="1230" y1="41" x2="1310" y2="41" stroke="#000000" stroke-width="1" /><line x1="1230" y1="81" x2="1310" y2="81" stroke="#000000" stroke-width="1" /><line x1="1310" y1="41" x2="1310" y2="81" stroke="#000000" stroke-width="1" /><line x1="1230" y1="41" x2="1230" y2="81" stroke="#000000" stroke-width="1" /><text font-size="24" font-family="M+ 1p Fallback" x="1270" y="62" text-anchor="middle" dominant-baseline="middle" >0</text><text font-size="24" font-family="M+ 1p Fallback" x="70" y="102" text-anchor="middle" dominant-baseline="middle" >2</text><text font-size="24" font-family="M+ 1p Fallback" x="170" y="102" text-anchor="middle" dominant-baseline="middle" >1</text><text font-size="24" font-family="M+ 1p Fallback" x="270" y="102" text-anchor="middle" dominant-baseline="middle" >1</text><text font-size="24" font-family="M+ 1p Fallback" x="350" y="102" text-anchor="middle" dominant-baseline="middle" >1</text><text font-size="24" font-family="M+ 1p Fallback" x="450" y="102" text-anchor="middle" dominant-baseline="middle" >1</text><text font-size="24" font-family="M+ 1p Fallback" x="550" y="102" text-anchor="middle" dominant-baseline="middle" >1</text><text font-size="24" font-family="M+ 1p Fallback" x="630" y="102" text-anchor="middle" dominant-baseline="middle" >1</text><text font-size="24" font-family="M+ 1p Fallback" x="710" y="102" text-anchor="middle" dominant-baseline="middle" >1</text><text font-size="24" font-family="M+ 1p Fallback" x="790" y="102" text-anchor="middle" dominant-baseline="middle" >1</text><text font-size="24" font-family="M+ 1p Fallback" x="870" y="102" text-anchor="middle" dominant-baseline="middle" >1</text><text font-size="24" font-family="M+ 1p Fallback" x="950" y="102" text-anchor="middle" dominant-baseline="middle" >1</text><text font-size="24" font-family="M+ 1p Fallback" x="1030" y="102" text-anchor="middle" dominant-baseline="middle" >1</text><text font-size="24" font-family="M+ 1p Fallback" x="1110" y="102" text-anchor="middle" dominant-baseline="middle" >1</text><text font-size="24" font-family="M+ 1p Fallback" x="1190" y="102" text-anchor="middle" dominant-baseline="middle" >1</text><text font-size="24" font-family="M+ 1p Fallback" x="1270" y="102" text-anchor="middle" dominant-baseline="middle" >1</text></svg>