<svg xmlns="http://www.w3.org/2000/svg" width="1024" height="56" viewBox="0 0 1024 56" class="WaveDrom"><g transform="translate(0.5,0.5)" text-anchor="middle" font-size="14" font-family="sans-serif" font-weight="normal"><g transform="translate(4,21)"><g stroke="black" stroke-width="1" stroke-linecap="round"><line x2="1015"/><line y2="31"/><line x2="1015" y1="31" y2="31"/><line x1="1015" x2="1015" y2="31"/><line x1="999" x2="999" y2="31"/><line x1="983" x2="983" y2="3"/><line x1="983" x2="983" y1="31" y2="28"/><line x1="967" x2="967" y2="3"/><line x1="967" x2="967" y1="31" y2="28"/><line x1="952" x2="952" y2="3"/><line x1="952" x2="952" y1="31" y2="28"/><line x1="936" x2="936" y2="3"/><line x1="936" x2="936" y1="31" y2="28"/><line x1="920" x2="920" y2="3"/><line x1="920" x2="920" y1="31" y2="28"/><line x1="904" x2="904" y2="3"/><line x1="904" x2="904" y1="31" y2="28"/><line x1="888" x2="888" y2="3"/><line x1="888" x2="888" y1="31" y2="28"/><line x1="872" x2="872" y2="3"/><line x1="872" x2="872" y1="31" y2="28"/><line x1="856" x2="856" y2="3"/><line x1="856" x2="856" y1="31" y2="28"/><line x1="841" x2="841" y2="3"/><line x1="841" x2="841" y1="31" y2="28"/><line x1="825" x2="825" y2="3"/><line x1="825" x2="825" y1="31" y2="28"/><line x1="809" x2="809" y2="3"/><line x1="809" x2="809" y1="31" y2="28"/><line x1="793" x2="793" y2="3"/><line x1="793" x2="793" y1="31" y2="28"/><line x1="777" x2="777" y2="3"/><line x1="777" x2="777" y1="31" y2="28"/><line x1="761" x2="761" y2="3"/><line x1="761" x2="761" y1="31" y2="28"/><line x1="745" x2="745" y2="3"/><line x1="745" x2="745" y1="31" y2="28"/><line x1="730" x2="730" y2="3"/><line x1="730" x2="730" y1="31" y2="28"/><line x1="714" x2="714" y2="3"/><line x1="714" x2="714" y1="31" y2="28"/><line x1="698" x2="698" y2="3"/><line x1="698" x2="698" y1="31" y2="28"/><line x1="682" x2="682" y2="3"/><line x1="682" x2="682" y1="31" y2="28"/><line x1="666" x2="666" y2="3"/><line x1="666" x2="666" y1="31" y2="28"/><line x1="650" x2="650" y2="3"/><line x1="650" x2="650" y1="31" y2="28"/><line x1="634" x2="634" y2="3"/><line x1="634" x2="634" y1="31" y2="28"/><line x1="619" x2="619" y2="3"/><line x1="619" x2="619" y1="31" y2="28"/><line x1="603" x2="603" y2="3"/><line x1="603" x2="603" y1="31" y2="28"/><line x1="587" x2="587" y2="3"/><line x1="587" x2="587" y1="31" y2="28"/><line x1="571" x2="571" y2="3"/><line x1="571" x2="571" y1="31" y2="28"/><line x1="555" x2="555" y2="3"/><line x1="555" x2="555" y1="31" y2="28"/><line x1="539" x2="539" y2="3"/><line x1="539" x2="539" y1="31" y2="28"/><line x1="523" x2="523" y2="3"/><line x1="523" x2="523" y1="31" y2="28"/><line x1="508" x2="508" y2="3"/><line x1="508" x2="508" y1="31" y2="28"/><line x1="492" x2="492" y2="3"/><line x1="492" x2="492" y1="31" y2="28"/><line x1="476" x2="476" y2="3"/><line x1="476" x2="476" y1="31" y2="28"/><line x1="460" x2="460" y2="3"/><line x1="460" x2="460" y1="31" y2="28"/><line x1="444" x2="444" y2="3"/><line x1="444" x2="444" y1="31" y2="28"/><line x1="428" x2="428" y2="3"/><line x1="428" x2="428" y1="31" y2="28"/><line x1="412" x2="412" y2="3"/><line x1="412" x2="412" y1="31" y2="28"/><line x1="396" x2="396" y2="3"/><line x1="396" x2="396" y1="31" y2="28"/><line x1="381" x2="381" y2="3"/><line x1="381" x2="381" y1="31" y2="28"/><line x1="365" x2="365" y2="3"/><line x1="365" x2="365" y1="31" y2="28"/><line x1="349" x2="349" y2="3"/><line x1="349" x2="349" y1="31" y2="28"/><line x1="333" x2="333" y2="3"/><line x1="333" x2="333" y1="31" y2="28"/><line x1="317" x2="317" y2="3"/><line x1="317" x2="317" y1="31" y2="28"/><line x1="301" x2="301" y2="3"/><line x1="301" x2="301" y1="31" y2="28"/><line x1="285" x2="285" y2="3"/><line x1="285" x2="285" y1="31" y2="28"/><line x1="270" x2="270" y2="3"/><line x1="270" x2="270" y1="31" y2="28"/><line x1="254" x2="254" y2="3"/><line x1="254" x2="254" y1="31" y2="28"/><line x1="238" x2="238" y2="3"/><line x1="238" x2="238" y1="31" y2="28"/><line x1="222" x2="222" y2="3"/><line x1="222" x2="222" y1="31" y2="28"/><line x1="206" x2="206" y2="3"/><line x1="206" x2="206" y1="31" y2="28"/><line x1="190" x2="190" y2="3"/><line x1="190" x2="190" y1="31" y2="28"/><line x1="174" x2="174" y2="3"/><line x1="174" x2="174" y1="31" y2="28"/><line x1="159" x2="159" y2="3"/><line x1="159" x2="159" y1="31" y2="28"/><line x1="143" x2="143" y2="3"/><line x1="143" x2="143" y1="31" y2="28"/><line x1="127" x2="127" y2="3"/><line x1="127" x2="127" y1="31" y2="28"/><line x1="111" x2="111" y2="3"/><line x1="111" x2="111" y1="31" y2="28"/><line x1="95" x2="95" y2="3"/><line x1="95" x2="95" y1="31" y2="28"/><line x1="79" x2="79" y2="3"/><line x1="79" x2="79" y1="31" y2="28"/><line x1="63" x2="63" y2="3"/><line x1="63" x2="63" y1="31" y2="28"/><line x1="48" x2="48" y2="3"/><line x1="48" x2="48" y1="31" y2="28"/><line x1="32" x2="32" y2="3"/><line x1="32" x2="32" y1="31" y2="28"/><line x1="16" x2="16" y2="3"/><line x1="16" x2="16" y1="31" y2="28"/></g><g><g/><g transform="translate(8,-11)"><g transform="translate(999)"><text y="6">0</text></g><g transform="translate(983)"><text y="6">1</text></g><g transform="translate(0)"><text y="6">63</text></g></g><g transform="translate(8,15)"><g transform="translate(999)"><text y="6"><tspan>V</tspan></text></g><g transform="translate(492)"><text y="6"><tspan>PC[63:1]</tspan></text></g></g><g transform="translate(8,39)"/></g></g></g></svg>
