<?xml version="1.0" encoding="UTF-8"?><svg xmlns:svg="http://www.w3.org/2000/svg" xmlns="http://www.w3.org/2000/svg" xmlns:xlink="http://www.w3.org/1999/xlink" version="1.0" width="1460" height="106" viewBox="0 0 1460 106" ><text font-size="24" x="50" y="13" font-family="Courier New, monospace" dominant-baseline="middle" text-anchor="middle" ></text><text font-size="24" x="90" y="13" font-family="Courier New, monospace" dominant-baseline="middle" text-anchor="middle" >MXLEN-1</text><text font-size="24" x="130" y="13" font-family="Courier New, monospace" dominant-baseline="middle" text-anchor="middle" ></text><text font-size="24" x="170" y="13" font-family="Courier New, monospace" dominant-baseline="middle" text-anchor="middle" ></text><text font-size="24" x="210" y="13" font-family="Courier New, monospace" dominant-baseline="middle" text-anchor="middle" ></text><text font-size="24" x="250" y="13" font-family="Courier New, monospace" dominant-baseline="middle" text-anchor="middle" ></text><text font-size="24" x="290" y="13" font-family="Courier New, monospace" dominant-baseline="middle" text-anchor="middle" ></text><text font-size="24" x="330" y="13" font-family="Courier New, monospace" dominant-baseline="middle" text-anchor="middle" >13</text><text font-size="24" x="370" y="13" font-family="Courier New, monospace" dominant-baseline="middle" text-anchor="middle" >12</text><text font-size="24" x="410" y="13" font-family="Courier New, monospace" dominant-baseline="middle" text-anchor="middle" ></text><text font-size="24" x="450" y="13" font-family="Courier New, monospace" dominant-baseline="middle" text-anchor="middle" ></text><text font-size="24" x="490" y="13" font-family="Courier New, monospace" dominant-baseline="middle" text-anchor="middle" >11</text><text font-size="24" x="530" y="13" font-family="Courier New, monospace" dominant-baseline="middle" text-anchor="middle" ></text><text font-size="24" x="570" y="13" font-family="Courier New, monospace" dominant-baseline="middle" text-anchor="middle" >10</text><text font-size="24" x="610" y="13" font-family="Courier New, monospace" dominant-baseline="middle" text-anchor="middle" ></text><text font-size="24" x="650" y="13" font-family="Courier New, monospace" dominant-baseline="middle" text-anchor="middle" ></text><text font-size="24" x="690" y="13" font-family="Courier New, monospace" dominant-baseline="middle" text-anchor="middle" >9</text><text font-size="24" x="730" y="13" font-family="Courier New, monospace" dominant-baseline="middle" text-anchor="middle" ></text><text font-size="24" x="770" y="13" font-family="Courier New, monospace" dominant-baseline="middle" text-anchor="middle" ></text><text font-size="24" x="810" y="13" font-family="Courier New, monospace" dominant-baseline="middle" text-anchor="middle" >8</text><text font-size="24" x="850" y="13" font-family="Courier New, monospace" dominant-baseline="middle" text-anchor="middle" ></text><text font-size="24" x="890" y="13" font-family="Courier New, monospace" dominant-baseline="middle" text-anchor="middle" ></text><text font-size="24" x="930" y="13" font-family="Courier New, monospace" dominant-baseline="middle" text-anchor="middle" >7</text><text font-size="24" x="970" y="13" font-family="Courier New, monospace" dominant-baseline="middle" text-anchor="middle" ></text><text font-size="24" x="1010" y="13" font-family="Courier New, monospace" dominant-baseline="middle" text-anchor="middle" ></text><text font-size="24" x="1050" y="13" font-family="Courier New, monospace" dominant-baseline="middle" text-anchor="middle" >6</text><text font-size="24" x="1090" y="13" font-family="Courier New, monospace" dominant-baseline="middle" text-anchor="middle" ></text><text font-size="24" x="1130" y="13" font-family="Courier New, monospace" dominant-baseline="middle" text-anchor="middle" ></text><text font-size="24" x="1170" y="13" font-family="Courier New, monospace" dominant-baseline="middle" text-anchor="middle" >4</text><text font-size="24" x="1210" y="13" font-family="Courier New, monospace" dominant-baseline="middle" text-anchor="middle" >3</text><text font-size="24" x="1250" y="13" font-family="Courier New, monospace" dominant-baseline="middle" text-anchor="middle" ></text><text font-size="24" x="1290" y="13" font-family="Courier New, monospace" dominant-baseline="middle" text-anchor="middle" >2</text><text font-size="24" x="1330" y="13" font-family="Courier New, monospace" dominant-baseline="middle" text-anchor="middle" ></text><text font-size="24" x="1370" y="13" font-family="Courier New, monospace" dominant-baseline="middle" text-anchor="middle" ></text><text font-size="24" x="1410" y="13" font-family="Courier New, monospace" dominant-baseline="middle" text-anchor="middle" >0</text><line x1="30" y1="25" x2="350" y2="25" stroke="#000000" stroke-width="1" /><line x1="30" y1="65" x2="350" y2="65" stroke="#000000" stroke-width="1" /><line x1="350" y1="25" x2="350" y2="65" stroke="#000000" stroke-width="1" /><line x1="30" y1="25" x2="30" y2="65" stroke="#000000" stroke-width="1" /><text font-style="italic" font-size="24" x="190" y="46" text-anchor="middle" dominant-baseline="middle" >Reserved</text><line x1="350" y1="25" x2="430" y2="25" stroke="#000000" stroke-width="1" /><line x1="350" y1="65" x2="430" y2="65" stroke="#000000" stroke-width="1" /><line x1="350" y1="25" x2="350" y2="65" stroke="#000000" stroke-width="1" /><text font-size="24" x="426" y="46" text-anchor="end" dominant-baseline="middle" >MNPP</text><line x1="430" y1="25" x2="510" y2="25" stroke="#000000" stroke-width="1" /><line x1="430" y1="65" x2="510" y2="65" stroke="#000000" stroke-width="1" /><line x1="510" y1="25" x2="510" y2="65" stroke="#000000" stroke-width="1" /><text font-size="20" font-weight="bold" x="434" y="46" text-anchor="start" dominant-baseline="middle" >(WARL)</text><line x1="510" y1="25" x2="630" y2="25" stroke="#000000" stroke-width="1" /><line x1="510" y1="65" x2="630" y2="65" stroke="#000000" stroke-width="1" /><line x1="630" y1="25" x2="630" y2="65" stroke="#000000" stroke-width="1" /><line x1="510" y1="25" x2="510" y2="65" stroke="#000000" stroke-width="1" /><text font-style="italic" font-size="24" x="570" y="46" text-anchor="middle" dominant-baseline="middle" >Reserved</text><line x1="630" y1="25" x2="750" y2="25" stroke="#000000" stroke-width="1" /><line x1="630" y1="65" x2="750" y2="65" stroke="#000000" stroke-width="1" /><line x1="750" y1="25" x2="750" y2="65" stroke="#000000" stroke-width="1" /><line x1="630" y1="25" x2="630" y2="65" stroke="#000000" stroke-width="1" /><text font-style="italic" font-size="20" x="690" y="46" text-anchor="middle" dominant-baseline="middle" >MNPELP</text><line x1="750" y1="25" x2="870" y2="25" stroke="#000000" stroke-width="1" /><line x1="750" y1="65" x2="870" y2="65" stroke="#000000" stroke-width="1" /><line x1="870" y1="25" x2="870" y2="65" stroke="#000000" stroke-width="1" /><line x1="750" y1="25" x2="750" y2="65" stroke="#000000" stroke-width="1" /><text font-style="italic" font-size="20" x="810" y="46" text-anchor="middle" dominant-baseline="middle" >Reserved</text><line x1="870" y1="25" x2="950" y2="25" stroke="#000000" stroke-width="1" /><line x1="870" y1="65" x2="950" y2="65" stroke="#000000" stroke-width="1" /><line x1="870" y1="25" x2="870" y2="65" stroke="#000000" stroke-width="1" /><text font-size="24" x="946" y="46" text-anchor="end" dominant-baseline="middle" >MNPV</text><line x1="950" y1="25" x2="1030" y2="25" stroke="#000000" stroke-width="1" /><line x1="950" y1="65" x2="1030" y2="65" stroke="#000000" stroke-width="1" /><line x1="1030" y1="25" x2="1030" y2="65" stroke="#000000" stroke-width="1" /><text font-size="20" font-weight="bold" x="954" y="46" text-anchor="start" dominant-baseline="middle" >(WARL)</text><line x1="1030" y1="25" x2="1190" y2="25" stroke="#000000" stroke-width="1" /><line x1="1030" y1="65" x2="1190" y2="65" stroke="#000000" stroke-width="1" /><line x1="1190" y1="25" x2="1190" y2="65" stroke="#000000" stroke-width="1" /><line x1="1030" y1="25" x2="1030" y2="65" stroke="#000000" stroke-width="1" /><text font-style="italic" font-size="24" x="1110" y="46" text-anchor="middle" dominant-baseline="middle" >Reserved</text><line x1="1190" y1="25" x2="1270" y2="25" stroke="#000000" stroke-width="1" /><line x1="1190" y1="65" x2="1270" y2="65" stroke="#000000" stroke-width="1" /><line x1="1270" y1="25" x2="1270" y2="65" stroke="#000000" stroke-width="1" /><line x1="1190" y1="25" x2="1190" y2="65" stroke="#000000" stroke-width="1" /><text font-size="24" font-family="M+ 1p Fallback" x="1230" y="46" text-anchor="middle" dominant-baseline="middle" >NMIE</text><line x1="1270" y1="25" x2="1430" y2="25" stroke="#000000" stroke-width="1" /><line x1="1270" y1="65" x2="1430" y2="65" stroke="#000000" stroke-width="1" /><line x1="1430" y1="25" x2="1430" y2="65" stroke="#000000" stroke-width="1" /><line x1="1270" y1="25" x2="1270" y2="65" stroke="#000000" stroke-width="1" /><text font-style="italic" font-size="24" x="1350" y="46" text-anchor="middle" dominant-baseline="middle" >Reserved</text><text font-size="24" font-family="M+ 1p Fallback" x="190" y="86" text-anchor="middle" dominant-baseline="middle" >MXLEN-13</text><text font-size="24" font-family="M+ 1p Fallback" x="430" y="86" text-anchor="middle" dominant-baseline="middle" >2</text><text font-size="24" font-family="M+ 1p Fallback" x="570" y="86" text-anchor="middle" dominant-baseline="middle" >1</text><text font-size="24" font-family="M+ 1p Fallback" x="690" y="86" text-anchor="middle" dominant-baseline="middle" >1</text><text font-size="24" font-family="M+ 1p Fallback" x="810" y="86" text-anchor="middle" dominant-baseline="middle" >1</text><text font-size="24" font-family="M+ 1p Fallback" x="950" y="86" text-anchor="middle" dominant-baseline="middle" >1</text><text font-size="24" font-family="M+ 1p Fallback" x="1110" y="86" text-anchor="middle" dominant-baseline="middle" >3</text><text font-size="24" font-family="M+ 1p Fallback" x="1230" y="86" text-anchor="middle" dominant-baseline="middle" >1</text><text font-size="24" font-family="M+ 1p Fallback" x="1350" y="86" text-anchor="middle" dominant-baseline="middle" >3</text></svg>