<?xml version="1.0" encoding="UTF-8"?><svg xmlns:svg="http://www.w3.org/2000/svg" xmlns="http://www.w3.org/2000/svg" xmlns:xlink="http://www.w3.org/1999/xlink" version="1.0" width="1340" height="122" viewBox="0 0 1340 122" ><text font-size="24" font-family="M+ 1p Fallback" x="74" y="22" text-anchor="start" dominant-baseline="middle" >47</text><text font-size="24" font-family="M+ 1p Fallback" x="306" y="22" text-anchor="end" dominant-baseline="middle" >39</text><text font-size="24" font-family="M+ 1p Fallback" x="314" y="22" text-anchor="start" dominant-baseline="middle" >38</text><text font-size="24" font-family="M+ 1p Fallback" x="546" y="22" text-anchor="end" dominant-baseline="middle" >30</text><text font-size="24" font-family="M+ 1p Fallback" x="554" y="22" text-anchor="start" dominant-baseline="middle" >29</text><text font-size="24" font-family="M+ 1p Fallback" x="786" y="22" text-anchor="end" dominant-baseline="middle" >21</text><text font-size="24" font-family="M+ 1p Fallback" x="794" y="22" text-anchor="start" dominant-baseline="middle" >20</text><text font-size="24" font-family="M+ 1p Fallback" x="1026" y="22" text-anchor="end" dominant-baseline="middle" >12</text><text font-size="24" font-family="M+ 1p Fallback" x="1034" y="22" text-anchor="start" dominant-baseline="middle" >11</text><text font-size="24" font-family="M+ 1p Fallback" x="1266" y="22" text-anchor="end" dominant-baseline="middle" >0</text><line x1="70" y1="41" x2="310" y2="41" stroke="#000000" stroke-width="1" /><line x1="70" y1="81" x2="310" y2="81" stroke="#000000" stroke-width="1" /><line x1="310" y1="41" x2="310" y2="81" stroke="#000000" stroke-width="1" /><line x1="70" y1="41" x2="70" y2="81" stroke="#000000" stroke-width="1" /><text font-size="24" font-family="M+ 1p Fallback" x="190" y="62" text-anchor="middle" dominant-baseline="middle" >VPN[3]</text><line x1="310" y1="41" x2="550" y2="41" stroke="#000000" stroke-width="1" /><line x1="310" y1="81" x2="550" y2="81" stroke="#000000" stroke-width="1" /><line x1="550" y1="41" x2="550" y2="81" stroke="#000000" stroke-width="1" /><line x1="310" y1="41" x2="310" y2="81" stroke="#000000" stroke-width="1" /><text font-size="24" font-family="M+ 1p Fallback" x="430" y="62" text-anchor="middle" dominant-baseline="middle" >VPN[2]</text><line x1="550" y1="41" x2="790" y2="41" stroke="#000000" stroke-width="1" /><line x1="550" y1="81" x2="790" y2="81" stroke="#000000" stroke-width="1" /><line x1="790" y1="41" x2="790" y2="81" stroke="#000000" stroke-width="1" /><line x1="550" y1="41" x2="550" y2="81" stroke="#000000" stroke-width="1" /><text font-size="24" font-family="M+ 1p Fallback" x="670" y="62" text-anchor="middle" dominant-baseline="middle" >VPN[1]</text><line x1="790" y1="41" x2="1030" y2="41" stroke="#000000" stroke-width="1" /><line x1="790" y1="81" x2="1030" y2="81" stroke="#000000" stroke-width="1" /><line x1="1030" y1="41" x2="1030" y2="81" stroke="#000000" stroke-width="1" /><line x1="790" y1="41" x2="790" y2="81" stroke="#000000" stroke-width="1" /><text font-size="24" font-family="M+ 1p Fallback" x="910" y="62" text-anchor="middle" dominant-baseline="middle" >VPN[0]</text><line x1="1030" y1="41" x2="1270" y2="41" stroke="#000000" stroke-width="1" /><line x1="1030" y1="81" x2="1270" y2="81" stroke="#000000" stroke-width="1" /><line x1="1270" y1="41" x2="1270" y2="81" stroke="#000000" stroke-width="1" /><line x1="1030" y1="41" x2="1030" y2="81" stroke="#000000" stroke-width="1" /><text font-size="24" font-family="M+ 1p Fallback" x="1150" y="62" text-anchor="middle" dominant-baseline="middle" >page offset</text><text font-size="24" font-family="M+ 1p Fallback" x="190" y="102" text-anchor="middle" dominant-baseline="middle" >9</text><text font-size="24" font-family="M+ 1p Fallback" x="430" y="102" text-anchor="middle" dominant-baseline="middle" >9</text><text font-size="24" font-family="M+ 1p Fallback" x="670" y="102" text-anchor="middle" dominant-baseline="middle" >9</text><text font-size="24" font-family="M+ 1p Fallback" x="910" y="102" text-anchor="middle" dominant-baseline="middle" >9</text><text font-size="24" font-family="M+ 1p Fallback" x="1150" y="102" text-anchor="middle" dominant-baseline="middle" >12</text></svg>