<?xml version="1.0" encoding="UTF-8"?><svg xmlns:svg="http://www.w3.org/2000/svg" xmlns="http://www.w3.org/2000/svg" xmlns:xlink="http://www.w3.org/1999/xlink" version="1.0" width="2000" height="602" viewBox="0 0 2000 602" ><text font-size="22" font-family="M+ 1p Fallback" x="204" y="27" text-anchor="start" dominant-baseline="middle" >63</text><text font-size="22" font-family="M+ 1p Fallback" x="356" y="27" text-anchor="end" dominant-baseline="middle" >56</text><text font-size="22" font-family="M+ 1p Fallback" x="364" y="27" text-anchor="start" dominant-baseline="middle" >55</text><text font-size="22" font-family="M+ 1p Fallback" x="516" y="27" text-anchor="end" dominant-baseline="middle" >48</text><text font-size="22" font-family="M+ 1p Fallback" x="524" y="27" text-anchor="start" dominant-baseline="middle" >47</text><text font-size="22" font-family="M+ 1p Fallback" x="676" y="27" text-anchor="end" dominant-baseline="middle" >40</text><text font-size="22" font-family="M+ 1p Fallback" x="684" y="27" text-anchor="start" dominant-baseline="middle" >39</text><text font-size="22" font-family="M+ 1p Fallback" x="836" y="27" text-anchor="end" dominant-baseline="middle" >32</text><text font-size="22" font-family="M+ 1p Fallback" x="844" y="27" text-anchor="start" dominant-baseline="middle" >31</text><text font-size="22" font-family="M+ 1p Fallback" x="996" y="27" text-anchor="end" dominant-baseline="middle" >24</text><text font-size="22" font-family="M+ 1p Fallback" x="1004" y="27" text-anchor="start" dominant-baseline="middle" >23</text><text font-size="22" font-family="M+ 1p Fallback" x="1156" y="27" text-anchor="end" dominant-baseline="middle" >16</text><text font-size="22" font-family="M+ 1p Fallback" x="1164" y="27" text-anchor="start" dominant-baseline="middle" >15</text><text font-size="22" font-family="M+ 1p Fallback" x="1316" y="27" text-anchor="end" dominant-baseline="middle" >8</text><text font-size="22" font-family="M+ 1p Fallback" x="1324" y="27" text-anchor="start" dominant-baseline="middle" >7</text><text font-size="22" font-family="M+ 1p Fallback" x="1476" y="27" text-anchor="end" dominant-baseline="middle" >0</text><line x1="200" y1="51" x2="360" y2="51" stroke="#000000" stroke-width="1" /><line x1="200" y1="101" x2="360" y2="101" stroke="#000000" stroke-width="1" /><line x1="360" y1="51" x2="360" y2="101" stroke="#000000" stroke-width="1" /><line x1="200" y1="51" x2="200" y2="101" stroke="#000000" stroke-width="1" /><text font-size="22" font-family="M+ 1p Fallback" x="280" y="77" text-anchor="middle" dominant-baseline="middle" >pmp7cfg</text><line x1="360" y1="51" x2="520" y2="51" stroke="#000000" stroke-width="1" /><line x1="360" y1="101" x2="520" y2="101" stroke="#000000" stroke-width="1" /><line x1="520" y1="51" x2="520" y2="101" stroke="#000000" stroke-width="1" /><line x1="360" y1="51" x2="360" y2="101" stroke="#000000" stroke-width="1" /><text font-size="22" font-family="M+ 1p Fallback" x="440" y="77" text-anchor="middle" dominant-baseline="middle" >pmp6cfg</text><line x1="520" y1="51" x2="680" y2="51" stroke="#000000" stroke-width="1" /><line x1="520" y1="101" x2="680" y2="101" stroke="#000000" stroke-width="1" /><line x1="680" y1="51" x2="680" y2="101" stroke="#000000" stroke-width="1" /><line x1="520" y1="51" x2="520" y2="101" stroke="#000000" stroke-width="1" /><text font-size="22" font-family="M+ 1p Fallback" x="600" y="77" text-anchor="middle" dominant-baseline="middle" >pmp5cfg</text><line x1="680" y1="51" x2="840" y2="51" stroke="#000000" stroke-width="1" /><line x1="680" y1="101" x2="840" y2="101" stroke="#000000" stroke-width="1" /><line x1="840" y1="51" x2="840" y2="101" stroke="#000000" stroke-width="1" /><line x1="680" y1="51" x2="680" y2="101" stroke="#000000" stroke-width="1" /><text font-size="22" font-family="M+ 1p Fallback" x="760" y="77" text-anchor="middle" dominant-baseline="middle" >pmp4cfg</text><line x1="840" y1="51" x2="1000" y2="51" stroke="#000000" stroke-width="1" /><line x1="840" y1="101" x2="1000" y2="101" stroke="#000000" stroke-width="1" /><line x1="1000" y1="51" x2="1000" y2="101" stroke="#000000" stroke-width="1" /><line x1="840" y1="51" x2="840" y2="101" stroke="#000000" stroke-width="1" /><text font-size="22" font-family="M+ 1p Fallback" x="920" y="77" text-anchor="middle" dominant-baseline="middle" >pmp3cfg</text><line x1="1000" y1="51" x2="1160" y2="51" stroke="#000000" stroke-width="1" /><line x1="1000" y1="101" x2="1160" y2="101" stroke="#000000" stroke-width="1" /><line x1="1160" y1="51" x2="1160" y2="101" stroke="#000000" stroke-width="1" /><line x1="1000" y1="51" x2="1000" y2="101" stroke="#000000" stroke-width="1" /><text font-size="22" font-family="M+ 1p Fallback" x="1080" y="77" text-anchor="middle" dominant-baseline="middle" >pmp2cfg</text><line x1="1160" y1="51" x2="1320" y2="51" stroke="#000000" stroke-width="1" /><line x1="1160" y1="101" x2="1320" y2="101" stroke="#000000" stroke-width="1" /><line x1="1320" y1="51" x2="1320" y2="101" stroke="#000000" stroke-width="1" /><line x1="1160" y1="51" x2="1160" y2="101" stroke="#000000" stroke-width="1" /><text font-size="22" font-family="M+ 1p Fallback" x="1240" y="77" text-anchor="middle" dominant-baseline="middle" >pmp1cfg</text><line x1="1320" y1="51" x2="1480" y2="51" stroke="#000000" stroke-width="1" /><line x1="1320" y1="101" x2="1480" y2="101" stroke="#000000" stroke-width="1" /><line x1="1480" y1="51" x2="1480" y2="101" stroke="#000000" stroke-width="1" /><line x1="1320" y1="51" x2="1320" y2="101" stroke="#000000" stroke-width="1" /><text font-size="22" font-family="M+ 1p Fallback" x="1400" y="77" text-anchor="middle" dominant-baseline="middle" >pmp0cfg</text><text font-size="22" font-family="M+ 1p Fallback" x="1560" y="77" text-anchor="middle" dominant-baseline="middle" >pmpcfg0</text><text font-size="22" font-family="M+ 1p Fallback" x="280" y="127" text-anchor="middle" dominant-baseline="middle" >8</text><text font-size="22" font-family="M+ 1p Fallback" x="440" y="127" text-anchor="middle" dominant-baseline="middle" >8</text><text font-size="22" font-family="M+ 1p Fallback" x="600" y="127" text-anchor="middle" dominant-baseline="middle" >8</text><text font-size="22" font-family="M+ 1p Fallback" x="760" y="127" text-anchor="middle" dominant-baseline="middle" >8</text><text font-size="22" font-family="M+ 1p Fallback" x="920" y="127" text-anchor="middle" dominant-baseline="middle" >8</text><text font-size="22" font-family="M+ 1p Fallback" x="1080" y="127" text-anchor="middle" dominant-baseline="middle" >8</text><text font-size="22" font-family="M+ 1p Fallback" x="1240" y="127" text-anchor="middle" dominant-baseline="middle" >8</text><text font-size="22" font-family="M+ 1p Fallback" x="1400" y="127" text-anchor="middle" dominant-baseline="middle" >8</text><text font-size="22" font-family="M+ 1p Fallback" x="204" y="177" text-anchor="start" dominant-baseline="middle" >63</text><text font-size="22" font-family="M+ 1p Fallback" x="356" y="177" text-anchor="end" dominant-baseline="middle" >56</text><text font-size="22" font-family="M+ 1p Fallback" x="364" y="177" text-anchor="start" dominant-baseline="middle" >55</text><text font-size="22" font-family="M+ 1p Fallback" x="516" y="177" text-anchor="end" dominant-baseline="middle" >48</text><text font-size="22" font-family="M+ 1p Fallback" x="524" y="177" text-anchor="start" dominant-baseline="middle" >47</text><text font-size="22" font-family="M+ 1p Fallback" x="676" y="177" text-anchor="end" dominant-baseline="middle" >40</text><text font-size="22" font-family="M+ 1p Fallback" x="684" y="177" text-anchor="start" dominant-baseline="middle" >39</text><text font-size="22" font-family="M+ 1p Fallback" x="836" y="177" text-anchor="end" dominant-baseline="middle" >32</text><text font-size="22" font-family="M+ 1p Fallback" x="844" y="177" text-anchor="start" dominant-baseline="middle" >31</text><text font-size="22" font-family="M+ 1p Fallback" x="996" y="177" text-anchor="end" dominant-baseline="middle" >24</text><text font-size="22" font-family="M+ 1p Fallback" x="1004" y="177" text-anchor="start" dominant-baseline="middle" >23</text><text font-size="22" font-family="M+ 1p Fallback" x="1156" y="177" text-anchor="end" dominant-baseline="middle" >16</text><text font-size="22" font-family="M+ 1p Fallback" x="1164" y="177" text-anchor="start" dominant-baseline="middle" >15</text><text font-size="22" font-family="M+ 1p Fallback" x="1316" y="177" text-anchor="end" dominant-baseline="middle" >8</text><text font-size="22" font-family="M+ 1p Fallback" x="1324" y="177" text-anchor="start" dominant-baseline="middle" >7</text><text font-size="22" font-family="M+ 1p Fallback" x="1476" y="177" text-anchor="end" dominant-baseline="middle" >0</text><line x1="200" y1="201" x2="360" y2="201" stroke="#000000" stroke-width="1" /><line x1="200" y1="251" x2="360" y2="251" stroke="#000000" stroke-width="1" /><line x1="360" y1="201" x2="360" y2="251" stroke="#000000" stroke-width="1" /><line x1="200" y1="201" x2="200" y2="251" stroke="#000000" stroke-width="1" /><text font-size="22" font-family="M+ 1p Fallback" x="280" y="227" text-anchor="middle" dominant-baseline="middle" >pmp15cfg</text><line x1="360" y1="201" x2="520" y2="201" stroke="#000000" stroke-width="1" /><line x1="360" y1="251" x2="520" y2="251" stroke="#000000" stroke-width="1" /><line x1="520" y1="201" x2="520" y2="251" stroke="#000000" stroke-width="1" /><line x1="360" y1="201" x2="360" y2="251" stroke="#000000" stroke-width="1" /><text font-size="22" font-family="M+ 1p Fallback" x="440" y="227" text-anchor="middle" dominant-baseline="middle" >pmp14cfg</text><line x1="520" y1="201" x2="680" y2="201" stroke="#000000" stroke-width="1" /><line x1="520" y1="251" x2="680" y2="251" stroke="#000000" stroke-width="1" /><line x1="680" y1="201" x2="680" y2="251" stroke="#000000" stroke-width="1" /><line x1="520" y1="201" x2="520" y2="251" stroke="#000000" stroke-width="1" /><text font-size="22" font-family="M+ 1p Fallback" x="600" y="227" text-anchor="middle" dominant-baseline="middle" >pmp13cfg</text><line x1="680" y1="201" x2="840" y2="201" stroke="#000000" stroke-width="1" /><line x1="680" y1="251" x2="840" y2="251" stroke="#000000" stroke-width="1" /><line x1="840" y1="201" x2="840" y2="251" stroke="#000000" stroke-width="1" /><line x1="680" y1="201" x2="680" y2="251" stroke="#000000" stroke-width="1" /><text font-size="22" font-family="M+ 1p Fallback" x="760" y="227" text-anchor="middle" dominant-baseline="middle" >pmp12cfg</text><line x1="840" y1="201" x2="1000" y2="201" stroke="#000000" stroke-width="1" /><line x1="840" y1="251" x2="1000" y2="251" stroke="#000000" stroke-width="1" /><line x1="1000" y1="201" x2="1000" y2="251" stroke="#000000" stroke-width="1" /><line x1="840" y1="201" x2="840" y2="251" stroke="#000000" stroke-width="1" /><text font-size="22" font-family="M+ 1p Fallback" x="920" y="227" text-anchor="middle" dominant-baseline="middle" >pmp11cfg</text><line x1="1000" y1="201" x2="1160" y2="201" stroke="#000000" stroke-width="1" /><line x1="1000" y1="251" x2="1160" y2="251" stroke="#000000" stroke-width="1" /><line x1="1160" y1="201" x2="1160" y2="251" stroke="#000000" stroke-width="1" /><line x1="1000" y1="201" x2="1000" y2="251" stroke="#000000" stroke-width="1" /><text font-size="22" font-family="M+ 1p Fallback" x="1080" y="227" text-anchor="middle" dominant-baseline="middle" >pmp10cfg</text><line x1="1160" y1="201" x2="1320" y2="201" stroke="#000000" stroke-width="1" /><line x1="1160" y1="251" x2="1320" y2="251" stroke="#000000" stroke-width="1" /><line x1="1320" y1="201" x2="1320" y2="251" stroke="#000000" stroke-width="1" /><line x1="1160" y1="201" x2="1160" y2="251" stroke="#000000" stroke-width="1" /><text font-size="22" font-family="M+ 1p Fallback" x="1240" y="227" text-anchor="middle" dominant-baseline="middle" >pmp9cfg</text><line x1="1320" y1="201" x2="1480" y2="201" stroke="#000000" stroke-width="1" /><line x1="1320" y1="251" x2="1480" y2="251" stroke="#000000" stroke-width="1" /><line x1="1480" y1="201" x2="1480" y2="251" stroke="#000000" stroke-width="1" /><line x1="1320" y1="201" x2="1320" y2="251" stroke="#000000" stroke-width="1" /><text font-size="22" font-family="M+ 1p Fallback" x="1400" y="227" text-anchor="middle" dominant-baseline="middle" >pmp8cfg</text><text font-size="22" font-family="M+ 1p Fallback" x="1560" y="227" text-anchor="middle" dominant-baseline="middle" >pmpcfg2</text><text font-size="22" font-family="M+ 1p Fallback" x="280" y="277" text-anchor="middle" dominant-baseline="middle" >8</text><text font-size="22" font-family="M+ 1p Fallback" x="440" y="277" text-anchor="middle" dominant-baseline="middle" >8</text><text font-size="22" font-family="M+ 1p Fallback" x="600" y="277" text-anchor="middle" dominant-baseline="middle" >8</text><text font-size="22" font-family="M+ 1p Fallback" x="760" y="277" text-anchor="middle" dominant-baseline="middle" >8</text><text font-size="22" font-family="M+ 1p Fallback" x="920" y="277" text-anchor="middle" dominant-baseline="middle" >8</text><text font-size="22" font-family="M+ 1p Fallback" x="1080" y="277" text-anchor="middle" dominant-baseline="middle" >8</text><text font-size="22" font-family="M+ 1p Fallback" x="1240" y="277" text-anchor="middle" dominant-baseline="middle" >8</text><text font-size="22" font-family="M+ 1p Fallback" x="1400" y="277" text-anchor="middle" dominant-baseline="middle" >8</text><text font-size="22" font-family="M+ 1p Fallback" x="844" y="377" text-anchor="start" dominant-baseline="middle" >⋮</text><text font-size="22" font-family="M+ 1p Fallback" x="204" y="477" text-anchor="start" dominant-baseline="middle" >63</text><text font-size="22" font-family="M+ 1p Fallback" x="356" y="477" text-anchor="end" dominant-baseline="middle" >56</text><text font-size="22" font-family="M+ 1p Fallback" x="364" y="477" text-anchor="start" dominant-baseline="middle" >55</text><text font-size="22" font-family="M+ 1p Fallback" x="516" y="477" text-anchor="end" dominant-baseline="middle" >48</text><text font-size="22" font-family="M+ 1p Fallback" x="524" y="477" text-anchor="start" dominant-baseline="middle" >47</text><text font-size="22" font-family="M+ 1p Fallback" x="676" y="477" text-anchor="end" dominant-baseline="middle" >40</text><text font-size="22" font-family="M+ 1p Fallback" x="684" y="477" text-anchor="start" dominant-baseline="middle" >39</text><text font-size="22" font-family="M+ 1p Fallback" x="836" y="477" text-anchor="end" dominant-baseline="middle" >32</text><text font-size="22" font-family="M+ 1p Fallback" x="844" y="477" text-anchor="start" dominant-baseline="middle" >31</text><text font-size="22" font-family="M+ 1p Fallback" x="996" y="477" text-anchor="end" dominant-baseline="middle" >24</text><text font-size="22" font-family="M+ 1p Fallback" x="1004" y="477" text-anchor="start" dominant-baseline="middle" >23</text><text font-size="22" font-family="M+ 1p Fallback" x="1156" y="477" text-anchor="end" dominant-baseline="middle" >16</text><text font-size="22" font-family="M+ 1p Fallback" x="1164" y="477" text-anchor="start" dominant-baseline="middle" >15</text><text font-size="22" font-family="M+ 1p Fallback" x="1316" y="477" text-anchor="end" dominant-baseline="middle" >8</text><text font-size="22" font-family="M+ 1p Fallback" x="1324" y="477" text-anchor="start" dominant-baseline="middle" >7</text><text font-size="22" font-family="M+ 1p Fallback" x="1476" y="477" text-anchor="end" dominant-baseline="middle" >0</text><line x1="200" y1="501" x2="360" y2="501" stroke="#000000" stroke-width="1" /><line x1="200" y1="551" x2="360" y2="551" stroke="#000000" stroke-width="1" /><line x1="360" y1="501" x2="360" y2="551" stroke="#000000" stroke-width="1" /><line x1="200" y1="501" x2="200" y2="551" stroke="#000000" stroke-width="1" /><text font-size="22" font-family="M+ 1p Fallback" x="280" y="527" text-anchor="middle" dominant-baseline="middle" >pmp63cfg</text><line x1="360" y1="501" x2="520" y2="501" stroke="#000000" stroke-width="1" /><line x1="360" y1="551" x2="520" y2="551" stroke="#000000" stroke-width="1" /><line x1="520" y1="501" x2="520" y2="551" stroke="#000000" stroke-width="1" /><line x1="360" y1="501" x2="360" y2="551" stroke="#000000" stroke-width="1" /><text font-size="22" font-family="M+ 1p Fallback" x="440" y="527" text-anchor="middle" dominant-baseline="middle" >pmp62cfg</text><line x1="520" y1="501" x2="680" y2="501" stroke="#000000" stroke-width="1" /><line x1="520" y1="551" x2="680" y2="551" stroke="#000000" stroke-width="1" /><line x1="680" y1="501" x2="680" y2="551" stroke="#000000" stroke-width="1" /><line x1="520" y1="501" x2="520" y2="551" stroke="#000000" stroke-width="1" /><text font-size="22" font-family="M+ 1p Fallback" x="600" y="527" text-anchor="middle" dominant-baseline="middle" >pmp61cfg</text><line x1="680" y1="501" x2="840" y2="501" stroke="#000000" stroke-width="1" /><line x1="680" y1="551" x2="840" y2="551" stroke="#000000" stroke-width="1" /><line x1="840" y1="501" x2="840" y2="551" stroke="#000000" stroke-width="1" /><line x1="680" y1="501" x2="680" y2="551" stroke="#000000" stroke-width="1" /><text font-size="22" font-family="M+ 1p Fallback" x="760" y="527" text-anchor="middle" dominant-baseline="middle" >pmp60cfg</text><line x1="840" y1="501" x2="1000" y2="501" stroke="#000000" stroke-width="1" /><line x1="840" y1="551" x2="1000" y2="551" stroke="#000000" stroke-width="1" /><line x1="1000" y1="501" x2="1000" y2="551" stroke="#000000" stroke-width="1" /><line x1="840" y1="501" x2="840" y2="551" stroke="#000000" stroke-width="1" /><text font-size="22" font-family="M+ 1p Fallback" x="920" y="527" text-anchor="middle" dominant-baseline="middle" >pmp59cfg</text><line x1="1000" y1="501" x2="1160" y2="501" stroke="#000000" stroke-width="1" /><line x1="1000" y1="551" x2="1160" y2="551" stroke="#000000" stroke-width="1" /><line x1="1160" y1="501" x2="1160" y2="551" stroke="#000000" stroke-width="1" /><line x1="1000" y1="501" x2="1000" y2="551" stroke="#000000" stroke-width="1" /><text font-size="22" font-family="M+ 1p Fallback" x="1080" y="527" text-anchor="middle" dominant-baseline="middle" >pmp58cfg</text><line x1="1160" y1="501" x2="1320" y2="501" stroke="#000000" stroke-width="1" /><line x1="1160" y1="551" x2="1320" y2="551" stroke="#000000" stroke-width="1" /><line x1="1320" y1="501" x2="1320" y2="551" stroke="#000000" stroke-width="1" /><line x1="1160" y1="501" x2="1160" y2="551" stroke="#000000" stroke-width="1" /><text font-size="22" font-family="M+ 1p Fallback" x="1240" y="527" text-anchor="middle" dominant-baseline="middle" >pmp57cfg</text><line x1="1320" y1="501" x2="1480" y2="501" stroke="#000000" stroke-width="1" /><line x1="1320" y1="551" x2="1480" y2="551" stroke="#000000" stroke-width="1" /><line x1="1480" y1="501" x2="1480" y2="551" stroke="#000000" stroke-width="1" /><line x1="1320" y1="501" x2="1320" y2="551" stroke="#000000" stroke-width="1" /><text font-size="22" font-family="M+ 1p Fallback" x="1400" y="527" text-anchor="middle" dominant-baseline="middle" >pmp56cfg</text><text font-size="22" font-family="M+ 1p Fallback" x="1560" y="527" text-anchor="middle" dominant-baseline="middle" >pmpcfg14</text><text font-size="22" font-family="M+ 1p Fallback" x="280" y="577" text-anchor="middle" dominant-baseline="middle" >8</text><text font-size="22" font-family="M+ 1p Fallback" x="440" y="577" text-anchor="middle" dominant-baseline="middle" >8</text><text font-size="22" font-family="M+ 1p Fallback" x="600" y="577" text-anchor="middle" dominant-baseline="middle" >8</text><text font-size="22" font-family="M+ 1p Fallback" x="760" y="577" text-anchor="middle" dominant-baseline="middle" >8</text><text font-size="22" font-family="M+ 1p Fallback" x="920" y="577" text-anchor="middle" dominant-baseline="middle" >8</text><text font-size="22" font-family="M+ 1p Fallback" x="1080" y="577" text-anchor="middle" dominant-baseline="middle" >8</text><text font-size="22" font-family="M+ 1p Fallback" x="1240" y="577" text-anchor="middle" dominant-baseline="middle" >8</text><text font-size="22" font-family="M+ 1p Fallback" x="1400" y="577" text-anchor="middle" dominant-baseline="middle" >8</text></svg>