<?xml version="1.0" encoding="UTF-8"?><svg xmlns="http://www.w3.org/2000/svg" width="320" height="154" version="1.0" shape-rendering="geometricPrecision"><defs><filter id="shadowBlur" x="0" y="0" width="200%" height="200%"><feOffset in="SourceGraphic" dx="3.0003002" dy="3.0003002" result="offOut"></feOffset><feGaussianBlur in="offOut" stdDeviation="3"></feGaussianBlur></filter></defs><g stroke-width="1" stroke-linecap="square" stroke-linejoin="round"><rect x="0" y="0" width="320" height="154" style="fill: #ffffff"></rect><path stroke="#969696" fill="#969696" filter="url(#shadowBlur)" d="M25.0 91.0 L295.0 91.0 L295.0 119.0 L25.0 119.0 z"></path><path stroke="#969696" fill="#969696" filter="url(#shadowBlur)" d="M25.0 35.0 L135.0 35.0 L135.0 63.0 L25.0 63.0 z"></path><path stroke="#969696" fill="#969696" filter="url(#shadowBlur)" d="M195.0 35.0 L295.0 35.0 L295.0 63.0 L195.0 63.0 z"></path><path stroke="#000000" stroke-width="1.0" stroke-linecap="round" stroke-linejoin="round" fill="white" d="M25.0 91.0 L295.0 91.0 L295.0 119.0 L25.0 119.0 z"></path><path stroke="#000000" stroke-width="1.0" stroke-linecap="round" stroke-linejoin="round" fill="white" d="M25.0 35.0 L135.0 35.0 L135.0 63.0 L25.0 63.0 z"></path><path stroke="#000000" stroke-width="1.0" stroke-linecap="round" stroke-linejoin="round" fill="white" d="M195.0 35.0 L295.0 35.0 L295.0 63.0 L195.0 63.0 z"></path><text x="55" y="54" font-family="sans-serif" font-size="15" stroke="none" fill="#000000"><![CDATA[Hart 0]]></text><text x="156" y="54" font-family="sans-serif" font-size="15" stroke="none" fill="#000000"><![CDATA[...]]></text><text x="222" y="54" font-family="sans-serif" font-size="15" stroke="none" fill="#000000"><![CDATA[Trace]]></text><text x="51" y="82" font-family="sans-serif" font-size="15" stroke="none" fill="#000000"><![CDATA[↑ ]]></text><text x="111" y="82" font-family="sans-serif" font-size="15" stroke="none" fill="#000000"><![CDATA[↓ ]]></text><text x="211" y="82" font-family="sans-serif" font-size="15" stroke="none" fill="#000000"><![CDATA[↑ ]]></text><text x="271" y="82" font-family="sans-serif" font-size="15" stroke="none" fill="#000000"><![CDATA[↓ ]]></text><text x="103" y="110" font-family="sans-serif" font-size="14" stroke="none" fill="#000000"><![CDATA[Shared memory]]></text></g></svg>