<?xml version="1.0" encoding="UTF-8"?><svg xmlns:svg="http://www.w3.org/2000/svg" xmlns="http://www.w3.org/2000/svg" xmlns:xlink="http://www.w3.org/1999/xlink" version="1.0" width="1200" height="362" viewBox="0 0 1200 362" ><text font-size="18" font-family="M+ 1p Fallback" x="204" y="17" text-anchor="start" dominant-baseline="middle" >31</text><text font-size="18" font-family="M+ 1p Fallback" x="356" y="17" text-anchor="end" dominant-baseline="middle" >24</text><text font-size="18" font-family="M+ 1p Fallback" x="364" y="17" text-anchor="start" dominant-baseline="middle" >23</text><text font-size="18" font-family="M+ 1p Fallback" x="516" y="17" text-anchor="end" dominant-baseline="middle" >16</text><text font-size="18" font-family="M+ 1p Fallback" x="524" y="17" text-anchor="start" dominant-baseline="middle" >15</text><text font-size="18" font-family="M+ 1p Fallback" x="676" y="17" text-anchor="end" dominant-baseline="middle" >8</text><text font-size="18" font-family="M+ 1p Fallback" x="684" y="17" text-anchor="start" dominant-baseline="middle" >7</text><text font-size="18" font-family="M+ 1p Fallback" x="836" y="17" text-anchor="end" dominant-baseline="middle" >0</text><line x1="200" y1="31" x2="360" y2="31" stroke="#000000" stroke-width="1" /><line x1="200" y1="61" x2="360" y2="61" stroke="#000000" stroke-width="1" /><line x1="360" y1="31" x2="360" y2="61" stroke="#000000" stroke-width="1" /><line x1="200" y1="31" x2="200" y2="61" stroke="#000000" stroke-width="1" /><text font-size="18" font-family="M+ 1p Fallback" x="280" y="47" text-anchor="middle" dominant-baseline="middle" >pmp3cfg</text><line x1="360" y1="31" x2="520" y2="31" stroke="#000000" stroke-width="1" /><line x1="360" y1="61" x2="520" y2="61" stroke="#000000" stroke-width="1" /><line x1="520" y1="31" x2="520" y2="61" stroke="#000000" stroke-width="1" /><line x1="360" y1="31" x2="360" y2="61" stroke="#000000" stroke-width="1" /><text font-size="18" font-family="M+ 1p Fallback" x="440" y="47" text-anchor="middle" dominant-baseline="middle" >pmp2cfg</text><line x1="520" y1="31" x2="680" y2="31" stroke="#000000" stroke-width="1" /><line x1="520" y1="61" x2="680" y2="61" stroke="#000000" stroke-width="1" /><line x1="680" y1="31" x2="680" y2="61" stroke="#000000" stroke-width="1" /><line x1="520" y1="31" x2="520" y2="61" stroke="#000000" stroke-width="1" /><text font-size="18" font-family="M+ 1p Fallback" x="600" y="47" text-anchor="middle" dominant-baseline="middle" >pmp1cfg</text><line x1="680" y1="31" x2="840" y2="31" stroke="#000000" stroke-width="1" /><line x1="680" y1="61" x2="840" y2="61" stroke="#000000" stroke-width="1" /><line x1="840" y1="31" x2="840" y2="61" stroke="#000000" stroke-width="1" /><line x1="680" y1="31" x2="680" y2="61" stroke="#000000" stroke-width="1" /><text font-size="18" font-family="M+ 1p Fallback" x="760" y="47" text-anchor="middle" dominant-baseline="middle" >pmp0cfg</text><text font-size="18" font-family="M+ 1p Fallback" x="920" y="47" text-anchor="middle" dominant-baseline="middle" >pmpcfg0</text><text font-size="18" font-family="M+ 1p Fallback" x="280" y="77" text-anchor="middle" dominant-baseline="middle" >8</text><text font-size="18" font-family="M+ 1p Fallback" x="440" y="77" text-anchor="middle" dominant-baseline="middle" >8</text><text font-size="18" font-family="M+ 1p Fallback" x="600" y="77" text-anchor="middle" dominant-baseline="middle" >8</text><text font-size="18" font-family="M+ 1p Fallback" x="760" y="77" text-anchor="middle" dominant-baseline="middle" >8</text><text font-size="18" font-family="M+ 1p Fallback" x="204" y="107" text-anchor="start" dominant-baseline="middle" >31</text><text font-size="18" font-family="M+ 1p Fallback" x="356" y="107" text-anchor="end" dominant-baseline="middle" >24</text><text font-size="18" font-family="M+ 1p Fallback" x="364" y="107" text-anchor="start" dominant-baseline="middle" >23</text><text font-size="18" font-family="M+ 1p Fallback" x="516" y="107" text-anchor="end" dominant-baseline="middle" >16</text><text font-size="18" font-family="M+ 1p Fallback" x="524" y="107" text-anchor="start" dominant-baseline="middle" >15</text><text font-size="18" font-family="M+ 1p Fallback" x="676" y="107" text-anchor="end" dominant-baseline="middle" >8</text><text font-size="18" font-family="M+ 1p Fallback" x="684" y="107" text-anchor="start" dominant-baseline="middle" >7</text><text font-size="18" font-family="M+ 1p Fallback" x="836" y="107" text-anchor="end" dominant-baseline="middle" >0</text><line x1="200" y1="121" x2="360" y2="121" stroke="#000000" stroke-width="1" /><line x1="200" y1="151" x2="360" y2="151" stroke="#000000" stroke-width="1" /><line x1="360" y1="121" x2="360" y2="151" stroke="#000000" stroke-width="1" /><line x1="200" y1="121" x2="200" y2="151" stroke="#000000" stroke-width="1" /><text font-size="18" font-family="M+ 1p Fallback" x="280" y="137" text-anchor="middle" dominant-baseline="middle" >pmp7cfg</text><line x1="360" y1="121" x2="520" y2="121" stroke="#000000" stroke-width="1" /><line x1="360" y1="151" x2="520" y2="151" stroke="#000000" stroke-width="1" /><line x1="520" y1="121" x2="520" y2="151" stroke="#000000" stroke-width="1" /><line x1="360" y1="121" x2="360" y2="151" stroke="#000000" stroke-width="1" /><text font-size="18" font-family="M+ 1p Fallback" x="440" y="137" text-anchor="middle" dominant-baseline="middle" >pmp6cfg</text><line x1="520" y1="121" x2="680" y2="121" stroke="#000000" stroke-width="1" /><line x1="520" y1="151" x2="680" y2="151" stroke="#000000" stroke-width="1" /><line x1="680" y1="121" x2="680" y2="151" stroke="#000000" stroke-width="1" /><line x1="520" y1="121" x2="520" y2="151" stroke="#000000" stroke-width="1" /><text font-size="18" font-family="M+ 1p Fallback" x="600" y="137" text-anchor="middle" dominant-baseline="middle" >pmp5cfg</text><line x1="680" y1="121" x2="840" y2="121" stroke="#000000" stroke-width="1" /><line x1="680" y1="151" x2="840" y2="151" stroke="#000000" stroke-width="1" /><line x1="840" y1="121" x2="840" y2="151" stroke="#000000" stroke-width="1" /><line x1="680" y1="121" x2="680" y2="151" stroke="#000000" stroke-width="1" /><text font-size="18" font-family="M+ 1p Fallback" x="760" y="137" text-anchor="middle" dominant-baseline="middle" >pmp4cfg</text><text font-size="18" font-family="M+ 1p Fallback" x="920" y="137" text-anchor="middle" dominant-baseline="middle" >pmpcfg1</text><text font-size="18" font-family="M+ 1p Fallback" x="280" y="167" text-anchor="middle" dominant-baseline="middle" >8</text><text font-size="18" font-family="M+ 1p Fallback" x="440" y="167" text-anchor="middle" dominant-baseline="middle" >8</text><text font-size="18" font-family="M+ 1p Fallback" x="600" y="167" text-anchor="middle" dominant-baseline="middle" >8</text><text font-size="18" font-family="M+ 1p Fallback" x="760" y="167" text-anchor="middle" dominant-baseline="middle" >8</text><text font-size="18" font-family="M+ 1p Fallback" x="524" y="227" text-anchor="start" dominant-baseline="middle" >⋮</text><text font-size="18" font-family="M+ 1p Fallback" x="204" y="287" text-anchor="start" dominant-baseline="middle" >31</text><text font-size="18" font-family="M+ 1p Fallback" x="356" y="287" text-anchor="end" dominant-baseline="middle" >24</text><text font-size="18" font-family="M+ 1p Fallback" x="364" y="287" text-anchor="start" dominant-baseline="middle" >23</text><text font-size="18" font-family="M+ 1p Fallback" x="516" y="287" text-anchor="end" dominant-baseline="middle" >16</text><text font-size="18" font-family="M+ 1p Fallback" x="524" y="287" text-anchor="start" dominant-baseline="middle" >15</text><text font-size="18" font-family="M+ 1p Fallback" x="676" y="287" text-anchor="end" dominant-baseline="middle" >8</text><text font-size="18" font-family="M+ 1p Fallback" x="684" y="287" text-anchor="start" dominant-baseline="middle" >7</text><text font-size="18" font-family="M+ 1p Fallback" x="836" y="287" text-anchor="end" dominant-baseline="middle" >0</text><line x1="200" y1="301" x2="360" y2="301" stroke="#000000" stroke-width="1" /><line x1="200" y1="331" x2="360" y2="331" stroke="#000000" stroke-width="1" /><line x1="360" y1="301" x2="360" y2="331" stroke="#000000" stroke-width="1" /><line x1="200" y1="301" x2="200" y2="331" stroke="#000000" stroke-width="1" /><text font-size="18" font-family="M+ 1p Fallback" x="280" y="317" text-anchor="middle" dominant-baseline="middle" >pmp63cfg</text><line x1="360" y1="301" x2="520" y2="301" stroke="#000000" stroke-width="1" /><line x1="360" y1="331" x2="520" y2="331" stroke="#000000" stroke-width="1" /><line x1="520" y1="301" x2="520" y2="331" stroke="#000000" stroke-width="1" /><line x1="360" y1="301" x2="360" y2="331" stroke="#000000" stroke-width="1" /><text font-size="18" font-family="M+ 1p Fallback" x="440" y="317" text-anchor="middle" dominant-baseline="middle" >pmp62cfg</text><line x1="520" y1="301" x2="680" y2="301" stroke="#000000" stroke-width="1" /><line x1="520" y1="331" x2="680" y2="331" stroke="#000000" stroke-width="1" /><line x1="680" y1="301" x2="680" y2="331" stroke="#000000" stroke-width="1" /><line x1="520" y1="301" x2="520" y2="331" stroke="#000000" stroke-width="1" /><text font-size="18" font-family="M+ 1p Fallback" x="600" y="317" text-anchor="middle" dominant-baseline="middle" >pmp61cfg</text><line x1="680" y1="301" x2="840" y2="301" stroke="#000000" stroke-width="1" /><line x1="680" y1="331" x2="840" y2="331" stroke="#000000" stroke-width="1" /><line x1="840" y1="301" x2="840" y2="331" stroke="#000000" stroke-width="1" /><line x1="680" y1="301" x2="680" y2="331" stroke="#000000" stroke-width="1" /><text font-size="18" font-family="M+ 1p Fallback" x="760" y="317" text-anchor="middle" dominant-baseline="middle" >pmp60cfg</text><text font-size="18" font-family="M+ 1p Fallback" x="920" y="317" text-anchor="middle" dominant-baseline="middle" >pmpcfg15</text><text font-size="18" font-family="M+ 1p Fallback" x="280" y="347" text-anchor="middle" dominant-baseline="middle" >8</text><text font-size="18" font-family="M+ 1p Fallback" x="440" y="347" text-anchor="middle" dominant-baseline="middle" >8</text><text font-size="18" font-family="M+ 1p Fallback" x="600" y="347" text-anchor="middle" dominant-baseline="middle" >8</text><text font-size="18" font-family="M+ 1p Fallback" x="760" y="347" text-anchor="middle" dominant-baseline="middle" >8</text></svg>