<?xml version="1.0" encoding="UTF-8"?><svg xmlns:svg="http://www.w3.org/2000/svg" xmlns="http://www.w3.org/2000/svg" xmlns:xlink="http://www.w3.org/1999/xlink" version="1.0" width="1480" height="92" viewBox="0 0 1480 92" ><text font-size="16" font-family="M+ 1p Fallback" x="220" y="17" text-anchor="middle" dominant-baseline="middle" >MXLEN-1</text><text font-size="16" font-family="M+ 1p Fallback" x="460" y="17" text-anchor="middle" dominant-baseline="middle" >MXLEN-2</text><text font-size="16" font-family="M+ 1p Fallback" x="584" y="17" text-anchor="start" dominant-baseline="middle" >MXLEN-3</text><text font-size="16" font-family="M+ 1p Fallback" x="800" y="17" text-anchor="middle" dominant-baseline="middle" >26</text><text font-size="16" font-family="M+ 1p Fallback" x="824" y="17" text-anchor="start" dominant-baseline="middle" >25</text><text font-size="16" font-family="M+ 1p Fallback" x="1376" y="17" text-anchor="end" dominant-baseline="middle" >0</text><line x1="100" y1="31" x2="340" y2="31" stroke="#000000" stroke-width="1" /><line x1="100" y1="61" x2="340" y2="61" stroke="#000000" stroke-width="1" /><line x1="100" y1="31" x2="100" y2="61" stroke="#000000" stroke-width="1" /><text font-size="16" font-family="M+ 1p Fallback" x="336" y="47" text-anchor="end" dominant-baseline="middle" >MXL[1:0]</text><line x1="340" y1="31" x2="580" y2="31" stroke="#000000" stroke-width="1" /><line x1="340" y1="61" x2="580" y2="61" stroke="#000000" stroke-width="1" /><text font-weight="bold" x="344" y="47" text-anchor="start" dominant-baseline="middle" >(WARL)</text><line x1="580" y1="31" x2="700" y2="31" stroke="#000000" stroke-width="1" /><line x1="580" y1="61" x2="700" y2="61" stroke="#000000" stroke-width="1" /><line x1="580" y1="31" x2="580" y2="61" stroke="#000000" stroke-width="1" /><text font-size="16" font-family="M+ 1p Fallback" x="696" y="47" text-anchor="end" dominant-baseline="middle" >0</text><line x1="700" y1="31" x2="820" y2="31" stroke="#000000" stroke-width="1" /><line x1="700" y1="61" x2="820" y2="61" stroke="#000000" stroke-width="1" /><line x1="820" y1="31" x2="820" y2="61" stroke="#000000" stroke-width="1" /><text font-weight="bold" x="704" y="47" text-anchor="start" dominant-baseline="middle" >(WARL)</text><line x1="820" y1="31" x2="1100" y2="31" stroke="#000000" stroke-width="1" /><line x1="820" y1="61" x2="1100" y2="61" stroke="#000000" stroke-width="1" /><line x1="820" y1="31" x2="820" y2="61" stroke="#000000" stroke-width="1" /><text font-size="16" font-family="M+ 1p Fallback" x="1096" y="47" text-anchor="end" dominant-baseline="middle" >Extensions[25:0]</text><line x1="1100" y1="31" x2="1380" y2="31" stroke="#000000" stroke-width="1" /><line x1="1100" y1="61" x2="1380" y2="61" stroke="#000000" stroke-width="1" /><line x1="1380" y1="31" x2="1380" y2="61" stroke="#000000" stroke-width="1" /><text font-weight="bold" x="1104" y="47" text-anchor="start" dominant-baseline="middle" >(WARL)</text><text font-size="16" font-family="M+ 1p Fallback" x="340" y="77" text-anchor="middle" dominant-baseline="middle" >2</text><text font-size="16" font-family="M+ 1p Fallback" x="700" y="77" text-anchor="middle" dominant-baseline="middle" >MXLEN-28</text><text font-size="16" font-family="M+ 1p Fallback" x="1100" y="77" text-anchor="middle" dominant-baseline="middle" >26</text></svg>