<?xml version="1.0" encoding="UTF-8"?><svg xmlns:svg="http://www.w3.org/2000/svg" xmlns="http://www.w3.org/2000/svg" xmlns:xlink="http://www.w3.org/1999/xlink" version="1.0" width="1340" height="122" viewBox="0 0 1340 122" ><text font-size="24" font-family="M+ 1p Fallback" x="274" y="22" text-anchor="start" dominant-baseline="middle" >33</text><text font-size="24" font-family="M+ 1p Fallback" x="506" y="22" text-anchor="end" dominant-baseline="middle" >22</text><text font-size="24" font-family="M+ 1p Fallback" x="514" y="22" text-anchor="start" dominant-baseline="middle" >21</text><text font-size="24" font-family="M+ 1p Fallback" x="746" y="22" text-anchor="end" dominant-baseline="middle" >12</text><text font-size="24" font-family="M+ 1p Fallback" x="754" y="22" text-anchor="start" dominant-baseline="middle" >11</text><text font-size="24" font-family="M+ 1p Fallback" x="1066" y="22" text-anchor="end" dominant-baseline="middle" >0</text><line x1="270" y1="41" x2="510" y2="41" stroke="#000000" stroke-width="1" /><line x1="270" y1="81" x2="510" y2="81" stroke="#000000" stroke-width="1" /><line x1="510" y1="41" x2="510" y2="81" stroke="#000000" stroke-width="1" /><line x1="270" y1="41" x2="270" y2="81" stroke="#000000" stroke-width="1" /><text font-size="24" font-family="M+ 1p Fallback" x="390" y="62" text-anchor="middle" dominant-baseline="middle" >VPN[1]</text><line x1="510" y1="41" x2="750" y2="41" stroke="#000000" stroke-width="1" /><line x1="510" y1="81" x2="750" y2="81" stroke="#000000" stroke-width="1" /><line x1="750" y1="41" x2="750" y2="81" stroke="#000000" stroke-width="1" /><line x1="510" y1="41" x2="510" y2="81" stroke="#000000" stroke-width="1" /><text font-size="24" font-family="M+ 1p Fallback" x="630" y="62" text-anchor="middle" dominant-baseline="middle" >VPN[0]</text><line x1="750" y1="41" x2="1070" y2="41" stroke="#000000" stroke-width="1" /><line x1="750" y1="81" x2="1070" y2="81" stroke="#000000" stroke-width="1" /><line x1="1070" y1="41" x2="1070" y2="81" stroke="#000000" stroke-width="1" /><line x1="750" y1="41" x2="750" y2="81" stroke="#000000" stroke-width="1" /><text font-size="24" font-family="M+ 1p Fallback" x="910" y="62" text-anchor="middle" dominant-baseline="middle" >page offset</text><text font-size="24" font-family="M+ 1p Fallback" x="390" y="102" text-anchor="middle" dominant-baseline="middle" >12</text><text font-size="24" font-family="M+ 1p Fallback" x="630" y="102" text-anchor="middle" dominant-baseline="middle" >10</text><text font-size="24" font-family="M+ 1p Fallback" x="910" y="102" text-anchor="middle" dominant-baseline="middle" >12</text></svg>