<?xml version="1.0" encoding="UTF-8"?><svg xmlns:svg="http://www.w3.org/2000/svg" xmlns="http://www.w3.org/2000/svg" xmlns:xlink="http://www.w3.org/1999/xlink" version="1.0" width="1340" height="122" viewBox="0 0 1340 122" ><text font-size="24" font-family="M+ 1p Fallback" x="34" y="22" text-anchor="start" dominant-baseline="middle" >63</text><text font-size="24" font-family="M+ 1p Fallback" x="346" y="22" text-anchor="end" dominant-baseline="middle" >60</text><text font-size="24" font-family="M+ 1p Fallback" x="354" y="22" text-anchor="start" dominant-baseline="middle" >59</text><text font-size="24" font-family="M+ 1p Fallback" x="586" y="22" text-anchor="end" dominant-baseline="middle" >58</text><text font-size="24" font-family="M+ 1p Fallback" x="594" y="22" text-anchor="start" dominant-baseline="middle" >57</text><text font-size="24" font-family="M+ 1p Fallback" x="906" y="22" text-anchor="end" dominant-baseline="middle" >44</text><text font-size="24" font-family="M+ 1p Fallback" x="914" y="22" text-anchor="start" dominant-baseline="middle" >43</text><text font-size="24" font-family="M+ 1p Fallback" x="1306" y="22" text-anchor="end" dominant-baseline="middle" >0</text><line x1="30" y1="41" x2="190" y2="41" stroke="#000000" stroke-width="1" /><line x1="30" y1="81" x2="190" y2="81" stroke="#000000" stroke-width="1" /><line x1="30" y1="41" x2="30" y2="81" stroke="#000000" stroke-width="1" /><text font-size="24" font-family="M+ 1p Fallback" x="186" y="62" text-anchor="end" dominant-baseline="middle" >MODE</text><line x1="190" y1="41" x2="350" y2="41" stroke="#000000" stroke-width="1" /><line x1="190" y1="81" x2="350" y2="81" stroke="#000000" stroke-width="1" /><line x1="350" y1="41" x2="350" y2="81" stroke="#000000" stroke-width="1" /><text font-size="24" font-weight="bold" x="194" y="62" text-anchor="start" dominant-baseline="middle" >(WARL)</text><line x1="350" y1="41" x2="470" y2="41" stroke="#000000" stroke-width="1" /><line x1="350" y1="81" x2="470" y2="81" stroke="#000000" stroke-width="1" /><line x1="350" y1="41" x2="350" y2="81" stroke="#000000" stroke-width="1" /><text font-size="24" font-family="M+ 1p Fallback" x="466" y="62" text-anchor="end" dominant-baseline="middle" >0</text><line x1="470" y1="41" x2="590" y2="41" stroke="#000000" stroke-width="1" /><line x1="470" y1="81" x2="590" y2="81" stroke="#000000" stroke-width="1" /><line x1="590" y1="41" x2="590" y2="81" stroke="#000000" stroke-width="1" /><text font-size="24" font-weight="bold" x="474" y="62" text-anchor="start" dominant-baseline="middle" >(WARL)</text><line x1="590" y1="41" x2="750" y2="41" stroke="#000000" stroke-width="1" /><line x1="590" y1="81" x2="750" y2="81" stroke="#000000" stroke-width="1" /><line x1="590" y1="41" x2="590" y2="81" stroke="#000000" stroke-width="1" /><text font-size="24" font-family="M+ 1p Fallback" x="746" y="62" text-anchor="end" dominant-baseline="middle" >VMID</text><line x1="750" y1="41" x2="910" y2="41" stroke="#000000" stroke-width="1" /><line x1="750" y1="81" x2="910" y2="81" stroke="#000000" stroke-width="1" /><line x1="910" y1="41" x2="910" y2="81" stroke="#000000" stroke-width="1" /><text font-size="24" font-weight="bold" x="754" y="62" text-anchor="start" dominant-baseline="middle" >(WARL)</text><line x1="910" y1="41" x2="1110" y2="41" stroke="#000000" stroke-width="1" /><line x1="910" y1="81" x2="1110" y2="81" stroke="#000000" stroke-width="1" /><line x1="910" y1="41" x2="910" y2="81" stroke="#000000" stroke-width="1" /><text font-size="24" font-family="M+ 1p Fallback" x="1106" y="62" text-anchor="end" dominant-baseline="middle" >PPN</text><line x1="1110" y1="41" x2="1310" y2="41" stroke="#000000" stroke-width="1" /><line x1="1110" y1="81" x2="1310" y2="81" stroke="#000000" stroke-width="1" /><line x1="1310" y1="41" x2="1310" y2="81" stroke="#000000" stroke-width="1" /><text font-size="24" font-weight="bold" x="1114" y="62" text-anchor="start" dominant-baseline="middle" >(WARL)</text><text font-size="24" font-family="M+ 1p Fallback" x="190" y="102" text-anchor="middle" dominant-baseline="middle" >4</text><text font-size="24" font-family="M+ 1p Fallback" x="470" y="102" text-anchor="middle" dominant-baseline="middle" >2</text><text font-size="24" font-family="M+ 1p Fallback" x="750" y="102" text-anchor="middle" dominant-baseline="middle" >14</text><text font-size="24" font-family="M+ 1p Fallback" x="1110" y="102" text-anchor="middle" dominant-baseline="middle" >44</text></svg>