<?xml version="1.0" encoding="UTF-8"?><svg xmlns:svg="http://www.w3.org/2000/svg" xmlns="http://www.w3.org/2000/svg" xmlns:xlink="http://www.w3.org/1999/xlink" version="1.0" width="1340" height="122" viewBox="0 0 1340 122" ><text font-size="24" font-family="M+ 1p Fallback" x="90" y="22" text-anchor="middle" dominant-baseline="middle" >31</text><text font-size="24" font-family="M+ 1p Fallback" x="154" y="22" text-anchor="start" dominant-baseline="middle" >30</text><text font-size="24" font-family="M+ 1p Fallback" x="426" y="22" text-anchor="end" dominant-baseline="middle" >29</text><text font-size="24" font-family="M+ 1p Fallback" x="434" y="22" text-anchor="start" dominant-baseline="middle" >28</text><text font-size="24" font-family="M+ 1p Fallback" x="706" y="22" text-anchor="end" dominant-baseline="middle" >22</text><text font-size="24" font-family="M+ 1p Fallback" x="714" y="22" text-anchor="start" dominant-baseline="middle" >21</text><text font-size="24" font-family="M+ 1p Fallback" x="1306" y="22" text-anchor="end" dominant-baseline="middle" >0</text><line x1="30" y1="41" x2="150" y2="41" stroke="#000000" stroke-width="1" /><line x1="30" y1="81" x2="150" y2="81" stroke="#000000" stroke-width="1" /><line x1="150" y1="41" x2="150" y2="81" stroke="#000000" stroke-width="1" /><line x1="30" y1="41" x2="30" y2="81" stroke="#000000" stroke-width="1" /><text font-size="24" font-family="M+ 1p Fallback" x="90" y="62" text-anchor="middle" dominant-baseline="middle" >MODE</text><line x1="150" y1="41" x2="270" y2="41" stroke="#000000" stroke-width="1" /><line x1="150" y1="81" x2="270" y2="81" stroke="#000000" stroke-width="1" /><line x1="150" y1="41" x2="150" y2="81" stroke="#000000" stroke-width="1" /><text font-size="24" font-family="M+ 1p Fallback" x="266" y="62" text-anchor="end" dominant-baseline="middle" >0</text><line x1="270" y1="41" x2="430" y2="41" stroke="#000000" stroke-width="1" /><line x1="270" y1="81" x2="430" y2="81" stroke="#000000" stroke-width="1" /><line x1="430" y1="41" x2="430" y2="81" stroke="#000000" stroke-width="1" /><text font-size="24" font-weight="bold" x="274" y="62" text-anchor="start" dominant-baseline="middle" >(WARL)</text><line x1="430" y1="41" x2="590" y2="41" stroke="#000000" stroke-width="1" /><line x1="430" y1="81" x2="590" y2="81" stroke="#000000" stroke-width="1" /><line x1="430" y1="41" x2="430" y2="81" stroke="#000000" stroke-width="1" /><text font-size="24" font-family="M+ 1p Fallback" x="586" y="62" text-anchor="end" dominant-baseline="middle" >VMID</text><line x1="590" y1="41" x2="710" y2="41" stroke="#000000" stroke-width="1" /><line x1="590" y1="81" x2="710" y2="81" stroke="#000000" stroke-width="1" /><line x1="710" y1="41" x2="710" y2="81" stroke="#000000" stroke-width="1" /><text font-size="24" font-weight="bold" x="594" y="62" text-anchor="start" dominant-baseline="middle" >(WARL)</text><line x1="710" y1="41" x2="990" y2="41" stroke="#000000" stroke-width="1" /><line x1="710" y1="81" x2="990" y2="81" stroke="#000000" stroke-width="1" /><line x1="710" y1="41" x2="710" y2="81" stroke="#000000" stroke-width="1" /><text font-size="24" font-family="M+ 1p Fallback" x="986" y="62" text-anchor="end" dominant-baseline="middle" >PPN</text><line x1="990" y1="41" x2="1310" y2="41" stroke="#000000" stroke-width="1" /><line x1="990" y1="81" x2="1310" y2="81" stroke="#000000" stroke-width="1" /><line x1="1310" y1="41" x2="1310" y2="81" stroke="#000000" stroke-width="1" /><text font-size="24" font-weight="bold" x="994" y="62" text-anchor="start" dominant-baseline="middle" >(WARL)</text><text font-size="24" font-family="M+ 1p Fallback" x="90" y="102" text-anchor="middle" dominant-baseline="middle" >1</text><text font-size="24" font-family="M+ 1p Fallback" x="290" y="102" text-anchor="middle" dominant-baseline="middle" >2</text><text font-size="24" font-family="M+ 1p Fallback" x="570" y="102" text-anchor="middle" dominant-baseline="middle" >7</text><text font-size="24" font-family="M+ 1p Fallback" x="1010" y="102" text-anchor="middle" dominant-baseline="middle" >22</text></svg>